STARTFONT 2.1
FONT -Efont-Fixed-Medium-R-Normal--24-240-75-75-C-120-ISO10646-1
SIZE 24 75 75
FONTBOUNDINGBOX 12 24 0 -2
STARTPROPERTIES 18
COPYRIGHT "(c) Copyright 2000-2003 /efont/ The Electronic Font Open Laboratory."
FOUNDRY "Efont"
FAMILY_NAME "Fixed"
WEIGHT_NAME "Medium"
SLANT "R"
SETWIDTH_NAME "Normal"
ADD_STYLE_NAME ""
PIXEL_SIZE 24
POINT_SIZE 240
RESOLUTION_X 75
RESOLUTION_Y 75
AVERAGE_WIDTH 120
CHARSET_REGISTRY "ISO10646"
CHARSET_ENCODING "1"
_MULE_BASELINE_OFFSET -3
FONT_ASCENT 22
FONT_DESCENT 2
DEFAULT_CHAR 32
ENDPROPERTIES
CHARS 2125
STARTCHAR U+0020
ENCODING 32
SWIDTH 500 0
DWIDTH 12 0
BBX 12 24 0 -2
BITMAP 
0000
0000
0000
0000
0000
0000
0000
0000
0000
0000
0000
0000
0000
0000
0000
0000
0000
0000
0000
0000
0000
0000
0000
0000
ENDCHAR
STARTCHAR U+0021
ENCODING 33
SWIDTH 500 0
DWIDTH 12 0
BBX 12 24 0 -2
BITMAP 
0000
0000
0000
0000
0000
0600
0600
0600
0600
0600
0600
0600
0600
0600
0600
0000
0000
0600
0F00
0600
0000
0000
0000
0000
ENDCHAR
STARTCHAR U+0022
ENCODING 34
SWIDTH 500 0
DWIDTH 12 0
BBX 12 24 0 -2
BITMAP 
0000
0000
0000
0000
1980
1980
1980
1980
1980
0000
0000
0000
0000
0000
0000
0000
0000
0000
0000
0000
0000
0000
0000
0000
ENDCHAR
STARTCHAR U+0023
ENCODING 35
SWIDTH 500 0
DWIDTH 12 0
BBX 12 24 0 -2
BITMAP 
0000
0000
0000
0000
0000
0CC0
0CC0
0CC0
3FE0
3FE0
1980
1980
1980
1980
7FC0
7FC0
3300
3300
3300
0000
0000
0000
0000
0000
ENDCHAR
STARTCHAR U+0024
ENCODING 36
SWIDTH 500 0
DWIDTH 12 0
BBX 12 24 0 -2
BITMAP 
0000
0000
0000
0000
0000
0600
1F80
3FE0
6660
6600
3E00
1F80
07C0
0660
0660
6660
7FC0
3F80
0600
0000
0000
0000
0000
0000
ENDCHAR
STARTCHAR U+0025
ENCODING 37
SWIDTH 500 0
DWIDTH 12 0
BBX 12 24 0 -2
BITMAP 
0000
0000
0000
0000
0000
38C0
7CC0
6D80
7D80
3B00
0300
0600
0600
0C00
0DC0
1BE0
1B60
33E0
31C0
0000
0000
0000
0000
0000
ENDCHAR
STARTCHAR U+0026
ENCODING 38
SWIDTH 500 0
DWIDTH 12 0
BBX 12 24 0 -2
BITMAP 
0000
0000
0000
0000
0000
0700
0F80
1DC0
18C0
1980
0F80
1F00
3E00
7360
61E0
61C0
6180
3FE0
1E60
0000
0000
0000
0000
0000
ENDCHAR
STARTCHAR U+0027
ENCODING 39
SWIDTH 500 0
DWIDTH 12 0
BBX 12 24 0 -2
BITMAP 
0000
0000
0000
0600
0F00
0F00
0300
0300
0600
0C00
0000
0000
0000
0000
0000
0000
0000
0000
0000
0000
0000
0000
0000
0000
ENDCHAR
STARTCHAR U+0028
ENCODING 40
SWIDTH 500 0
DWIDTH 12 0
BBX 12 24 0 -2
BITMAP 
0000
0000
0000
0000
0000
0180
0300
0700
0600
0E00
0C00
0C00
0C00
0C00
0E00
0600
0700
0300
0180
0000
0000
0000
0000
0000
ENDCHAR
STARTCHAR U+0029
ENCODING 41
SWIDTH 500 0
DWIDTH 12 0
BBX 12 24 0 -2
BITMAP 
0000
0000
0000
0000
0000
1800
0C00
0E00
0600
0700
0300
0300
0300
0300
0700
0600
0E00
0C00
1800
0000
0000
0000
0000
0000
ENDCHAR
STARTCHAR U+002A
ENCODING 42
SWIDTH 500 0
DWIDTH 12 0
BBX 12 24 0 -2
BITMAP 
0000
0000
0000
0000
0000
0000
0000
0600
0600
6660
76E0
1F80
0600
1F80
76E0
6660
0600
0600
0000
0000
0000
0000
0000
0000
ENDCHAR
STARTCHAR U+002B
ENCODING 43
SWIDTH 500 0
DWIDTH 12 0
BBX 12 24 0 -2
BITMAP 
0000
0000
0000
0000
0000
0000
0000
0000
0600
0600
0600
0600
7FE0
7FE0
0600
0600
0600
0600
0000
0000
0000
0000
0000
0000
ENDCHAR
STARTCHAR U+002C
ENCODING 44
SWIDTH 500 0
DWIDTH 12 0
BBX 12 24 0 -2
BITMAP 
0000
0000
0000
0000
0000
0000
0000
0000
0000
0000
0000
0000
0000
0000
0000
0600
0F00
0F00
0300
0300
0600
0C00
0000
0000
ENDCHAR
STARTCHAR U+002D
ENCODING 45
SWIDTH 500 0
DWIDTH 12 0
BBX 12 24 0 -2
BITMAP 
0000
0000
0000
0000
0000
0000
0000
0000
0000
0000
0000
0000
7FE0
7FE0
0000
0000
0000
0000
0000
0000
0000
0000
0000
0000
ENDCHAR
STARTCHAR U+002E
ENCODING 46
SWIDTH 500 0
DWIDTH 12 0
BBX 12 24 0 -2
BITMAP 
0000
0000
0000
0000
0000
0000
0000
0000
0000
0000
0000
0000
0000
0000
0000
0600
0F00
0F00
0600
0000
0000
0000
0000
0000
ENDCHAR
STARTCHAR U+002F
ENCODING 47
SWIDTH 500 0
DWIDTH 12 0
BBX 12 24 0 -2
BITMAP 
0000
0000
0000
0000
0000
00C0
00C0
0180
0180
0300
0300
0600
0600
0C00
0C00
1800
1800
3000
3000
0000
0000
0000
0000
0000
ENDCHAR
STARTCHAR U+0030
ENCODING 48
SWIDTH 500 0
DWIDTH 12 0
BBX 12 24 0 -2
BITMAP 
0000
0000
0000
0000
0000
0F00
1F80
39C0
30C0
31C0
33C0
36C0
3CC0
38C0
30C0
30C0
39C0
1F80
0F00
0000
0000
0000
0000
0000
ENDCHAR
STARTCHAR U+0031
ENCODING 49
SWIDTH 500 0
DWIDTH 12 0
BBX 12 24 0 -2
BITMAP 
0000
0000
0000
0000
0000
0600
0E00
1E00
3600
0600
0600
0600
0600
0600
0600
0600
0600
3FC0
3FC0
0000
0000
0000
0000
0000
ENDCHAR
STARTCHAR U+0032
ENCODING 50
SWIDTH 500 0
DWIDTH 12 0
BBX 12 24 0 -2
BITMAP 
0000
0000
0000
0000
0000
0F80
1FC0
30E0
3060
0060
00C0
0180
0300
0600
0C00
1800
3000
3FE0
3FE0
0000
0000
0000
0000
0000
ENDCHAR
STARTCHAR U+0033
ENCODING 51
SWIDTH 500 0
DWIDTH 12 0
BBX 12 24 0 -2
BITMAP 
0000
0000
0000
0000
0000
0F80
1FC0
30E0
3060
0060
00C0
0780
07C0
0060
0060
3060
30E0
1FC0
0F80
0000
0000
0000
0000
0000
ENDCHAR
STARTCHAR U+0034
ENCODING 52
SWIDTH 500 0
DWIDTH 12 0
BBX 12 24 0 -2
BITMAP 
0000
0000
0000
0000
0000
0300
0300
0600
0600
0D80
0D80
1980
1980
3180
3FE0
3FE0
0180
0180
0180
0000
0000
0000
0000
0000
ENDCHAR
STARTCHAR U+0035
ENCODING 53
SWIDTH 500 0
DWIDTH 12 0
BBX 12 24 0 -2
BITMAP 
0000
0000
0000
0000
0000
3FC0
3FC0
3000
3000
3000
3F80
3FC0
00E0
0060
0060
3060
30E0
1FC0
0F80
0000
0000
0000
0000
0000
ENDCHAR
STARTCHAR U+0036
ENCODING 54
SWIDTH 500 0
DWIDTH 12 0
BBX 12 24 0 -2
BITMAP 
0000
0000
0000
0000
0000
0F80
1FC0
3860
3060
3000
3780
3FC0
38E0
3060
3060
3060
38E0
1FC0
0F80
0000
0000
0000
0000
0000
ENDCHAR
STARTCHAR U+0037
ENCODING 55
SWIDTH 500 0
DWIDTH 12 0
BBX 12 24 0 -2
BITMAP 
0000
0000
0000
0000
0000
3FE0
3FE0
00C0
00C0
0180
0180
0300
0300
0600
0600
0C00
0C00
1800
1800
0000
0000
0000
0000
0000
ENDCHAR
STARTCHAR U+0038
ENCODING 56
SWIDTH 500 0
DWIDTH 12 0
BBX 12 24 0 -2
BITMAP 
0000
0000
0000
0000
0000
0F00
1F80
30C0
30C0
30C0
1F80
1F80
39C0
70E0
6060
6060
70E0
3FC0
1F80
0000
0000
0000
0000
0000
ENDCHAR
STARTCHAR U+0039
ENCODING 57
SWIDTH 500 0
DWIDTH 12 0
BBX 12 24 0 -2
BITMAP 
0000
0000
0000
0000
0000
0F80
1FC0
38E0
3060
3060
38E0
1FE0
0F60
0060
0060
3060
30E0
1FC0
0F80
0000
0000
0000
0000
0000
ENDCHAR
STARTCHAR U+003A
ENCODING 58
SWIDTH 500 0
DWIDTH 12 0
BBX 12 24 0 -2
BITMAP 
0000
0000
0000
0000
0000
0000
0000
0000
0600
0F00
0F00
0600
0000
0000
0000
0600
0F00
0F00
0600
0000
0000
0000
0000
0000
ENDCHAR
STARTCHAR U+003B
ENCODING 59
SWIDTH 500 0
DWIDTH 12 0
BBX 12 24 0 -2
BITMAP 
0000
0000
0000
0000
0000
0000
0000
0000
0600
0F00
0F00
0600
0000
0000
0000
0600
0F00
0F00
0300
0300
0600
0C00
0000
0000
ENDCHAR
STARTCHAR U+003C
ENCODING 60
SWIDTH 500 0
DWIDTH 12 0
BBX 12 24 0 -2
BITMAP 
0000
0000
0000
0000
0000
0000
0000
0000
0060
01C0
0700
1E00
7800
7800
1E00
0780
01C0
0060
0000
0000
0000
0000
0000
0000
ENDCHAR
STARTCHAR U+003D
ENCODING 61
SWIDTH 500 0
DWIDTH 12 0
BBX 12 24 0 -2
BITMAP 
0000
0000
0000
0000
0000
0000
0000
0000
0000
0000
7FE0
7FE0
0000
0000
7FE0
7FE0
0000
0000
0000
0000
0000
0000
0000
0000
ENDCHAR
STARTCHAR U+003E
ENCODING 62
SWIDTH 500 0
DWIDTH 12 0
BBX 12 24 0 -2
BITMAP 
0000
0000
0000
0000
0000
0000
0000
0000
6000
3800
0E00
0780
01E0
01E0
0780
0E00
3800
6000
0000
0000
0000
0000
0000
0000
ENDCHAR
STARTCHAR U+003F
ENCODING 63
SWIDTH 500 0
DWIDTH 12 0
BBX 12 24 0 -2
BITMAP 
0000
0000
0000
0000
0000
0F00
1F80
39C0
20C0
00C0
0180
0300
0600
0600
0600
0000
0000
0600
0F00
0600
0000
0000
0000
0000
ENDCHAR
STARTCHAR U+0040
ENCODING 64
SWIDTH 500 0
DWIDTH 12 0
BBX 12 24 0 -2
BITMAP 
0000
0000
0000
0000
0000
0F80
1FC0
3860
3060
33E0
37E0
3660
3660
3660
37E0
33C0
3800
1FE0
0FE0
0000
0000
0000
0000
0000
ENDCHAR
STARTCHAR U+0041
ENCODING 65
SWIDTH 500 0
DWIDTH 12 0
BBX 12 24 0 -2
BITMAP 
0000
0000
0000
0000
0000
0F80
1FC0
38E0
3060
3060
3060
3FE0
3FE0
3060
3060
3060
3060
3060
3060
0000
0000
0000
0000
0000
ENDCHAR
STARTCHAR U+0042
ENCODING 66
SWIDTH 500 0
DWIDTH 12 0
BBX 12 24 0 -2
BITMAP 
0000
0000
0000
0000
0000
3F00
3F80
31C0
30C0
30C0
3180
3F80
3FC0
30C0
3060
3060
30E0
3FC0
3F80
0000
0000
0000
0000
0000
ENDCHAR
STARTCHAR U+0043
ENCODING 67
SWIDTH 500 0
DWIDTH 12 0
BBX 12 24 0 -2
BITMAP 
0000
0000
0000
0000
0000
0F80
1FC0
38E0
3060
3000
3000
3000
3000
3000
3000
3060
38E0
1FC0
0F80
0000
0000
0000
0000
0000
ENDCHAR
STARTCHAR U+0044
ENCODING 68
SWIDTH 500 0
DWIDTH 12 0
BBX 12 24 0 -2
BITMAP 
0000
0000
0000
0000
0000
3F80
3FC0
30E0
3060
3060
3060
3060
3060
3060
3060
3060
30E0
3FC0
3F80
0000
0000
0000
0000
0000
ENDCHAR
STARTCHAR U+0045
ENCODING 69
SWIDTH 500 0
DWIDTH 12 0
BBX 12 24 0 -2
BITMAP 
0000
0000
0000
0000
0000
3FE0
3FE0
3000
3000
3000
3000
3F80
3F80
3000
3000
3000
3000
3FE0
3FE0
0000
0000
0000
0000
0000
ENDCHAR
STARTCHAR U+0046
ENCODING 70
SWIDTH 500 0
DWIDTH 12 0
BBX 12 24 0 -2
BITMAP 
0000
0000
0000
0000
0000
3FE0
3FE0
3000
3000
3000
3000
3F80
3F80
3000
3000
3000
3000
3000
3000
0000
0000
0000
0000
0000
ENDCHAR
STARTCHAR U+0047
ENCODING 71
SWIDTH 500 0
DWIDTH 12 0
BBX 12 24 0 -2
BITMAP 
0000
0000
0000
0000
0000
0F80
1FC0
38E0
3060
3000
3000
3000
31E0
31E0
3060
3060
38E0
1FC0
0F80
0000
0000
0000
0000
0000
ENDCHAR
STARTCHAR U+0048
ENCODING 72
SWIDTH 500 0
DWIDTH 12 0
BBX 12 24 0 -2
BITMAP 
0000
0000
0000
0000
0000
3060
3060
3060
3060
3060
3060
3FE0
3FE0
3060
3060
3060
3060
3060
3060
0000
0000
0000
0000
0000
ENDCHAR
STARTCHAR U+0049
ENCODING 73
SWIDTH 500 0
DWIDTH 12 0
BBX 12 24 0 -2
BITMAP 
0000
0000
0000
0000
0000
1F80
1F80
0600
0600
0600
0600
0600
0600
0600
0600
0600
0600
1F80
1F80
0000
0000
0000
0000
0000
ENDCHAR
STARTCHAR U+004A
ENCODING 74
SWIDTH 500 0
DWIDTH 12 0
BBX 12 24 0 -2
BITMAP 
0000
0000
0000
0000
0000
0060
0060
0060
0060
0060
0060
0060
0060
0060
0060
3060
30E0
1FC0
0F80
0000
0000
0000
0000
0000
ENDCHAR
STARTCHAR U+004B
ENCODING 75
SWIDTH 500 0
DWIDTH 12 0
BBX 12 24 0 -2
BITMAP 
0000
0000
0000
0000
0000
3060
30C0
3180
3300
3600
3C00
3800
3C00
3600
3300
3180
30C0
3060
3020
0000
0000
0000
0000
0000
ENDCHAR
STARTCHAR U+004C
ENCODING 76
SWIDTH 500 0
DWIDTH 12 0
BBX 12 24 0 -2
BITMAP 
0000
0000
0000
0000
0000
3000
3000
3000
3000
3000
3000
3000
3000
3000
3000
3000
3000
3FE0
3FE0
0000
0000
0000
0000
0000
ENDCHAR
STARTCHAR U+004D
ENCODING 77
SWIDTH 500 0
DWIDTH 12 0
BBX 12 24 0 -2
BITMAP 
0000
0000
0000
0000
0000
3060
38E0
38E0
3DE0
3FE0
3760
3760
3260
3060
3060
3060
3060
3060
3060
0000
0000
0000
0000
0000
ENDCHAR
STARTCHAR U+004E
ENCODING 78
SWIDTH 500 0
DWIDTH 12 0
BBX 12 24 0 -2
BITMAP 
0000
0000
0000
0000
0000
3060
3860
3860
3C60
3C60
3660
3660
3360
3360
31E0
31E0
30E0
30E0
3060
0000
0000
0000
0000
0000
ENDCHAR
STARTCHAR U+004F
ENCODING 79
SWIDTH 500 0
DWIDTH 12 0
BBX 12 24 0 -2
BITMAP 
0000
0000
0000
0000
0000
0F80
1FC0
38E0
3060
3060
3060
3060
3060
3060
3060
3060
38E0
1FC0
0F80
0000
0000
0000
0000
0000
ENDCHAR
STARTCHAR U+0050
ENCODING 80
SWIDTH 500 0
DWIDTH 12 0
BBX 12 24 0 -2
BITMAP 
0000
0000
0000
0000
0000
3F80
3FC0
30E0
3060
3060
30E0
3FC0
3F80
3000
3000
3000
3000
3000
3000
0000
0000
0000
0000
0000
ENDCHAR
STARTCHAR U+0051
ENCODING 81
SWIDTH 500 0
DWIDTH 12 0
BBX 12 24 0 -2
BITMAP 
0000
0000
0000
0000
0000
0F80
1FC0
38E0
3060
3060
3060
3060
3060
3060
3060
31E0
39E0
1FC0
0FF0
0030
0000
0000
0000
0000
ENDCHAR
STARTCHAR U+0052
ENCODING 82
SWIDTH 500 0
DWIDTH 12 0
BBX 12 24 0 -2
BITMAP 
0000
0000
0000
0000
0000
3F80
3FC0
30E0
3060
3060
30E0
3FC0
3F80
3180
3180
30C0
30C0
3060
3060
0000
0000
0000
0000
0000
ENDCHAR
STARTCHAR U+0053
ENCODING 83
SWIDTH 500 0
DWIDTH 12 0
BBX 12 24 0 -2
BITMAP 
0000
0000
0000
0000
0000
0F80
1FC0
30E0
3060
3000
3800
1F80
0FC0
00E0
0060
3060
30E0
3FC0
1F80
0000
0000
0000
0000
0000
ENDCHAR
STARTCHAR U+0054
ENCODING 84
SWIDTH 500 0
DWIDTH 12 0
BBX 12 24 0 -2
BITMAP 
0000
0000
0000
0000
0000
7FE0
7FE0
0600
0600
0600
0600
0600
0600
0600
0600
0600
0600
0600
0600
0000
0000
0000
0000
0000
ENDCHAR
STARTCHAR U+0055
ENCODING 85
SWIDTH 500 0
DWIDTH 12 0
BBX 12 24 0 -2
BITMAP 
0000
0000
0000
0000
0000
3060
3060
3060
3060
3060
3060
3060
3060
3060
3060
3060
38E0
1FC0
0F80
0000
0000
0000
0000
0000
ENDCHAR
STARTCHAR U+0056
ENCODING 86
SWIDTH 500 0
DWIDTH 12 0
BBX 12 24 0 -2
BITMAP 
0000
0000
0000
0000
0000
6060
6060
6060
30C0
30C0
30C0
1980
1980
1980
0900
0F00
0F00
0600
0600
0000
0000
0000
0000
0000
ENDCHAR
STARTCHAR U+0057
ENCODING 87
SWIDTH 500 0
DWIDTH 12 0
BBX 12 24 0 -2
BITMAP 
0000
0000
0000
0000
0000
3060
3060
3060
3060
3060
3060
3260
3760
3760
3DE0
3DE0
38E0
38E0
3060
0000
0000
0000
0000
0000
ENDCHAR
STARTCHAR U+0058
ENCODING 88
SWIDTH 500 0
DWIDTH 12 0
BBX 12 24 0 -2
BITMAP 
0000
0000
0000
0000
0000
3060
3060
18C0
18C0
0D80
0D80
0700
0700
0D80
0D80
18C0
18C0
3060
3060
0000
0000
0000
0000
0000
ENDCHAR
STARTCHAR U+0059
ENCODING 89
SWIDTH 500 0
DWIDTH 12 0
BBX 12 24 0 -2
BITMAP 
0000
0000
0000
0000
0000
6060
6060
30C0
30C0
1980
1F80
0F00
0600
0600
0600
0600
0600
0600
0600
0000
0000
0000
0000
0000
ENDCHAR
STARTCHAR U+005A
ENCODING 90
SWIDTH 500 0
DWIDTH 12 0
BBX 12 24 0 -2
BITMAP 
0000
0000
0000
0000
0000
7FE0
7FE0
0060
00E0
01C0
0380
0700
0E00
1C00
3800
7000
6000
7FE0
7FE0
0000
0000
0000
0000
0000
ENDCHAR
STARTCHAR U+005B
ENCODING 91
SWIDTH 500 0
DWIDTH 12 0
BBX 12 24 0 -2
BITMAP 
0000
0000
0000
0000
0F80
0F80
0C00
0C00
0C00
0C00
0C00
0C00
0C00
0C00
0C00
0C00
0C00
0F80
0F80
0000
0000
0000
0000
0000
ENDCHAR
STARTCHAR U+005C
ENCODING 92
SWIDTH 500 0
DWIDTH 12 0
BBX 12 24 0 -2
BITMAP 
0000
0000
0000
0000
0000
3000
3000
1800
1800
0C00
0C00
0600
0600
0300
0300
0180
0180
00C0
00C0
0000
0000
0000
0000
0000
ENDCHAR
STARTCHAR U+005D
ENCODING 93
SWIDTH 500 0
DWIDTH 12 0
BBX 12 24 0 -2
BITMAP 
0000
0000
0000
0000
1F00
1F00
0300
0300
0300
0300
0300
0300
0300
0300
0300
0300
0300
1F00
1F00
0000
0000
0000
0000
0000
ENDCHAR
STARTCHAR U+005E
ENCODING 94
SWIDTH 500 0
DWIDTH 12 0
BBX 12 24 0 -2
BITMAP 
0000
0000
0000
0000
0200
0700
0D80
18C0
3060
0000
0000
0000
0000
0000
0000
0000
0000
0000
0000
0000
0000
0000
0000
0000
ENDCHAR
STARTCHAR U+005F
ENCODING 95
SWIDTH 500 0
DWIDTH 12 0
BBX 12 24 0 -2
BITMAP 
0000
0000
0000
0000
0000
0000
0000
0000
0000
0000
0000
0000
0000
0000
0000
0000
0000
0000
0000
0000
FFF0
FFF0
0000
0000
ENDCHAR
STARTCHAR U+0060
ENCODING 96
SWIDTH 500 0
DWIDTH 12 0
BBX 12 24 0 -2
BITMAP 
0000
0000
0000
0300
0600
0C00
0C00
0F00
0F00
0600
0000
0000
0000
0000
0000
0000
0000
0000
0000
0000
0000
0000
0000
0000
ENDCHAR
STARTCHAR U+0061
ENCODING 97
SWIDTH 500 0
DWIDTH 12 0
BBX 12 24 0 -2
BITMAP 
0000
0000
0000
0000
0000
0000
0000
0000
0780
0FC0
1860
0060
07E0
1FE0
3060
30E0
31E0
3F60
1E60
0000
0000
0000
0000
0000
ENDCHAR
STARTCHAR U+0062
ENCODING 98
SWIDTH 500 0
DWIDTH 12 0
BBX 12 24 0 -2
BITMAP 
0000
0000
0000
0000
0000
3000
3000
3000
3000
3380
37C0
3CE0
3860
3060
3060
3860
3CE0
37C0
3380
0000
0000
0000
0000
0000
ENDCHAR
STARTCHAR U+0063
ENCODING 99
SWIDTH 500 0
DWIDTH 12 0
BBX 12 24 0 -2
BITMAP 
0000
0000
0000
0000
0000
0000
0000
0000
0000
0FC0
1FC0
3860
3060
3000
3000
3000
3860
1FE0
0FC0
0000
0000
0000
0000
0000
ENDCHAR
STARTCHAR U+0064
ENCODING 100
SWIDTH 500 0
DWIDTH 12 0
BBX 12 24 0 -2
BITMAP 
0000
0000
0000
0000
0000
0060
0060
0060
0060
0F60
1FE0
38E0
3060
3060
3060
30E0
31E0
1F60
0E60
0000
0000
0000
0000
0000
ENDCHAR
STARTCHAR U+0065
ENCODING 101
SWIDTH 500 0
DWIDTH 12 0
BBX 12 24 0 -2
BITMAP 
0000
0000
0000
0000
0000
0000
0000
0000
0000
0F80
1FC0
3860
3060
3FE0
3FE0
3000
3060
1FE0
0FC0
0000
0000
0000
0000
0000
ENDCHAR
STARTCHAR U+0066
ENCODING 102
SWIDTH 500 0
DWIDTH 12 0
BBX 12 24 0 -2
BITMAP 
0000
0000
0000
0000
0000
0380
0780
0600
0600
0600
1F80
1F80
0600
0600
0600
0600
0600
0600
0600
0000
0000
0000
0000
0000
ENDCHAR
STARTCHAR U+0067
ENCODING 103
SWIDTH 500 0
DWIDTH 12 0
BBX 12 24 0 -2
BITMAP 
0000
0000
0000
0000
0000
0000
0000
0000
0000
0E60
1F60
39E0
30E0
3060
3060
3060
38E0
1FE0
0F60
0060
0060
0060
0FC0
0780
ENDCHAR
STARTCHAR U+0068
ENCODING 104
SWIDTH 500 0
DWIDTH 12 0
BBX 12 24 0 -2
BITMAP 
0000
0000
0000
0000
0000
3000
3000
3000
3000
3380
37C0
3CE0
3860
3060
3060
3060
3060
3060
3060
0000
0000
0000
0000
0000
ENDCHAR
STARTCHAR U+0069
ENCODING 105
SWIDTH 500 0
DWIDTH 12 0
BBX 12 24 0 -2
BITMAP 
0000
0000
0000
0000
0000
0600
0600
0000
0000
0600
0600
0600
0600
0600
0600
0600
0600
0600
0600
0000
0000
0000
0000
0000
ENDCHAR
STARTCHAR U+006A
ENCODING 106
SWIDTH 500 0
DWIDTH 12 0
BBX 12 24 0 -2
BITMAP 
0000
0000
0000
0000
0000
0600
0600
0000
0000
0600
0600
0600
0600
0600
0600
0600
0600
0600
0600
0600
0600
3E00
3800
0000
ENDCHAR
STARTCHAR U+006B
ENCODING 107
SWIDTH 500 0
DWIDTH 12 0
BBX 12 24 0 -2
BITMAP 
0000
0000
0000
0000
0000
0000
3000
3000
30C0
31C0
3380
3700
3E00
3C00
3E00
3700
3380
31C0
30C0
0000
0000
0000
0000
0000
ENDCHAR
STARTCHAR U+006C
ENCODING 108
SWIDTH 500 0
DWIDTH 12 0
BBX 12 24 0 -2
BITMAP 
0000
0000
0000
0000
0000
0600
0600
0600
0600
0600
0600
0600
0600
0600
0600
0600
0600
0780
0380
0000
0000
0000
0000
0000
ENDCHAR
STARTCHAR U+006D
ENCODING 109
SWIDTH 500 0
DWIDTH 12 0
BBX 12 24 0 -2
BITMAP 
0000
0000
0000
0000
0000
0000
0000
0000
0000
6DC0
7FE0
6660
6660
6660
6660
6660
6660
6660
6660
0000
0000
0000
0000
0000
ENDCHAR
STARTCHAR U+006E
ENCODING 110
SWIDTH 500 0
DWIDTH 12 0
BBX 12 24 0 -2
BITMAP 
0000
0000
0000
0000
0000
0000
0000
0000
0000
3380
37C0
3C60
3860
3060
3060
3060
3060
3060
3060
0000
0000
0000
0000
0000
ENDCHAR
STARTCHAR U+006F
ENCODING 111
SWIDTH 500 0
DWIDTH 12 0
BBX 12 24 0 -2
BITMAP 
0000
0000
0000
0000
0000
0000
0000
0000
0000
0F80
1FC0
38E0
3060
3060
3060
3060
38E0
1FC0
0F80
0000
0000
0000
0000
0000
ENDCHAR
STARTCHAR U+0070
ENCODING 112
SWIDTH 500 0
DWIDTH 12 0
BBX 12 24 0 -2
BITMAP 
0000
0000
0000
0000
0000
0000
0000
0000
0000
3380
37C0
3CE0
3860
3060
3060
3860
3CE0
37C0
3380
3000
3000
3000
3000
0000
ENDCHAR
STARTCHAR U+0071
ENCODING 113
SWIDTH 500 0
DWIDTH 12 0
BBX 12 24 0 -2
BITMAP 
0000
0000
0000
0000
0000
0000
0000
0000
0000
0E60
1F60
39E0
30E0
3060
3060
30E0
39E0
1F60
0E60
0060
0060
0060
0060
0000
ENDCHAR
STARTCHAR U+0072
ENCODING 114
SWIDTH 500 0
DWIDTH 12 0
BBX 12 24 0 -2
BITMAP 
0000
0000
0000
0000
0000
0000
0000
0000
0000
3380
37C0
3C60
3860
3000
3000
3000
3000
3000
3000
0000
0000
0000
0000
0000
ENDCHAR
STARTCHAR U+0073
ENCODING 115
SWIDTH 500 0
DWIDTH 12 0
BBX 12 24 0 -2
BITMAP 
0000
0000
0000
0000
0000
0000
0000
0000
0000
1FC0
3FE0
3020
3000
1F80
0FC0
0060
3060
3FE0
1FC0
0000
0000
0000
0000
0000
ENDCHAR
STARTCHAR U+0074
ENCODING 116
SWIDTH 500 0
DWIDTH 12 0
BBX 12 24 0 -2
BITMAP 
0000
0000
0000
0000
0000
0000
0600
0600
0600
1F80
1F80
0600
0600
0600
0600
0600
0600
0780
0380
0000
0000
0000
0000
0000
ENDCHAR
STARTCHAR U+0075
ENCODING 117
SWIDTH 500 0
DWIDTH 12 0
BBX 12 24 0 -2
BITMAP 
0000
0000
0000
0000
0000
0000
0000
0000
0000
3060
3060
3060
3060
3060
3060
30E0
39E0
1F60
0E60
0000
0000
0000
0000
0000
ENDCHAR
STARTCHAR U+0076
ENCODING 118
SWIDTH 500 0
DWIDTH 12 0
BBX 12 24 0 -2
BITMAP 
0000
0000
0000
0000
0000
0000
0000
0000
0000
6060
6060
30C0
30C0
1980
1980
0F00
0F00
0600
0600
0000
0000
0000
0000
0000
ENDCHAR
STARTCHAR U+0077
ENCODING 119
SWIDTH 500 0
DWIDTH 12 0
BBX 12 24 0 -2
BITMAP 
0000
0000
0000
0000
0000
0000
0000
0000
0000
3060
3060
3060
3060
3260
3760
3760
3DE0
38E0
3060
0000
0000
0000
0000
0000
ENDCHAR
STARTCHAR U+0078
ENCODING 120
SWIDTH 500 0
DWIDTH 12 0
BBX 12 24 0 -2
BITMAP 
0000
0000
0000
0000
0000
0000
0000
0000
0000
3060
3060
18C0
0D80
0700
0700
0D80
18C0
3060
3060
0000
0000
0000
0000
0000
ENDCHAR
STARTCHAR U+0079
ENCODING 121
SWIDTH 500 0
DWIDTH 12 0
BBX 12 24 0 -2
BITMAP 
0000
0000
0000
0000
0000
0000
0000
0000
0000
3060
3060
3060
3060
3060
3060
3060
30E0
1FE0
0F60
0060
0060
0060
1FC0
0F80
ENDCHAR
STARTCHAR U+007A
ENCODING 122
SWIDTH 500 0
DWIDTH 12 0
BBX 12 24 0 -2
BITMAP 
0000
0000
0000
0000
0000
0000
0000
0000
0000
3FE0
3FE0
00C0
0180
0300
0600
0C00
1800
3FE0
3FE0
0000
0000
0000
0000
0000
ENDCHAR
STARTCHAR U+007B
ENCODING 123
SWIDTH 500 0
DWIDTH 12 0
BBX 12 24 0 -2
BITMAP 
0000
0000
0000
0000
0380
0600
0600
0600
0600
0600
0C00
1C00
0C00
0600
0600
0600
0600
0600
0380
0000
0000
0000
0000
0000
ENDCHAR
STARTCHAR U+007C
ENCODING 124
SWIDTH 500 0
DWIDTH 12 0
BBX 12 24 0 -2
BITMAP 
0000
0600
0600
0600
0600
0600
0600
0600
0600
0600
0600
0600
0600
0600
0600
0600
0600
0600
0600
0600
0600
0600
0600
0000
ENDCHAR
STARTCHAR U+007D
ENCODING 125
SWIDTH 500 0
DWIDTH 12 0
BBX 12 24 0 -2
BITMAP 
0000
0000
0000
0000
1C00
0600
0600
0600
0600
0600
0300
0380
0300
0600
0600
0600
0600
0600
1C00
0000
0000
0000
0000
0000
ENDCHAR
STARTCHAR U+007E
ENCODING 126
SWIDTH 500 0
DWIDTH 12 0
BBX 12 24 0 -2
BITMAP 
0000
0000
0000
0000
1C20
3E60
27E0
61C0
0000
0000
0000
0000
0000
0000
0000
0000
0000
0000
0000
0000
0000
0000
0000
0000
ENDCHAR
STARTCHAR U+00A0
ENCODING 160
SWIDTH 500 0
DWIDTH 12 0
BBX 12 24 0 -2
BITMAP 
0000
0000
0000
0000
0000
0000
0000
0000
0000
0000
0000
0000
0000
0000
0000
0000
0000
0000
0000
0000
0000
0000
0000
0000
ENDCHAR
STARTCHAR U+00A1
ENCODING 161
SWIDTH 500 0
DWIDTH 12 0
BBX 12 24 0 -2
BITMAP 
0000
0000
0000
0000
0600
0F00
0600
0000
0000
0600
0600
0600
0600
0600
0600
0600
0600
0600
0600
0000
0000
0000
0000
0000
ENDCHAR
STARTCHAR U+00A2
ENCODING 162
SWIDTH 500 0
DWIDTH 12 0
BBX 12 24 0 -2
BITMAP 
0000
0000
0000
0000
0000
0300
0300
0F80
1FC0
3B60
3360
3300
3300
3360
3B60
1FC0
0F80
0300
0300
0000
0000
0000
0000
0000
ENDCHAR
STARTCHAR U+00A3
ENCODING 163
SWIDTH 500 0
DWIDTH 12 0
BBX 12 24 0 -2
BITMAP 
0000
0000
0000
0000
0000
0780
0FC0
1CC0
1800
1800
1C00
3FC0
3FC0
0C00
0C00
1F80
3FC0
38E0
3060
0000
0000
0000
0000
0000
ENDCHAR
STARTCHAR U+00A4
ENCODING 164
SWIDTH 500 0
DWIDTH 12 0
BBX 12 24 0 -2
BITMAP 
0000
0000
0000
0000
0000
0000
0000
6060
76E0
3FC0
1980
30C0
30C0
1980
3FC0
76E0
6060
0000
0000
0000
0000
0000
0000
0000
ENDCHAR
STARTCHAR U+00A5
ENCODING 165
SWIDTH 500 0
DWIDTH 12 0
BBX 12 24 0 -2
BITMAP 
0000
0000
0000
0000
0000
30C0
39C0
1980
1F80
0F00
3FC0
3FC0
0600
3FC0
3FC0
0600
0600
0600
0600
0000
0000
0000
0000
0000
ENDCHAR
STARTCHAR U+00A6
ENCODING 166
SWIDTH 500 0
DWIDTH 12 0
BBX 12 24 0 -2
BITMAP 
0000
0600
0600
0600
0600
0600
0600
0600
0600
0600
0600
0000
0000
0600
0600
0600
0600
0600
0600
0600
0600
0600
0600
0000
ENDCHAR
STARTCHAR U+00A7
ENCODING 167
SWIDTH 500 0
DWIDTH 12 0
BBX 12 24 0 -2
BITMAP 
0000
0000
0000
0F80
1FC0
38E0
3060
3800
1F80
1FC0
3060
3060
1FC0
0FC0
00E0
3060
38E0
1FC0
0F80
0000
0000
0000
0000
0000
ENDCHAR
STARTCHAR U+00A8
ENCODING 168
SWIDTH 500 0
DWIDTH 12 0
BBX 12 24 0 -2
BITMAP 
0000
18C0
18C0
0000
0000
0000
0000
0000
0000
0000
0000
0000
0000
0000
0000
0000
0000
0000
0000
0000
0000
0000
0000
0000
ENDCHAR
STARTCHAR U+00A9
ENCODING 169
SWIDTH 500 0
DWIDTH 12 0
BBX 12 24 0 -2
BITMAP 
0000
0000
0F80
1FC0
38E0
3060
3760
3FE0
3CE0
3860
3860
3860
3CE0
3FE0
3760
3060
38E0
1FC0
0F80
0000
0000
0000
0000
0000
ENDCHAR
STARTCHAR U+00AA
ENCODING 170
SWIDTH 500 0
DWIDTH 12 0
BBX 12 24 0 -2
BITMAP 
0F80
1FC0
18C0
07C0
0FC0
18C0
1FC0
0FC0
0000
1FC0
1FC0
0000
0000
0000
0000
0000
0000
0000
0000
0000
0000
0000
0000
0000
ENDCHAR
STARTCHAR U+00AB
ENCODING 171
SWIDTH 500 0
DWIDTH 12 0
BBX 12 24 0 -2
BITMAP 
0000
0000
0000
0000
0000
0000
06C0
0D80
0D80
1B00
1B00
3600
3600
1B00
1B00
0D80
0D80
06C0
0000
0000
0000
0000
0000
0000
ENDCHAR
STARTCHAR U+00AC
ENCODING 172
SWIDTH 500 0
DWIDTH 12 0
BBX 12 24 0 -2
BITMAP 
0000
0000
0000
0000
0000
0000
0000
0000
0000
0000
0000
7FE0
7FE0
0060
0060
0060
0000
0000
0000
0000
0000
0000
0000
0000
ENDCHAR
STARTCHAR U+00AD
ENCODING 173
SWIDTH 500 0
DWIDTH 12 0
BBX 12 24 0 -2
BITMAP 
0000
0000
0000
0000
0000
0000
0000
0000
0000
0000
0000
0000
7FE0
7FE0
0000
0000
0000
0000
0000
0000
0000
0000
0000
0000
ENDCHAR
STARTCHAR U+00AE
ENCODING 174
SWIDTH 500 0
DWIDTH 12 0
BBX 12 24 0 -2
BITMAP 
0000
0000
0F80
1FC0
38E0
3060
3F60
3FE0
38E0
38E0
3FE0
3F60
3B60
39E0
39E0
3060
38E0
1FC0
0F80
0000
0000
0000
0000
0000
ENDCHAR
STARTCHAR U+00AF
ENCODING 175
SWIDTH 500 0
DWIDTH 12 0
BBX 12 24 0 -2
BITMAP 
7FE0
7FE0
0000
0000
0000
0000
0000
0000
0000
0000
0000
0000
0000
0000
0000
0000
0000
0000
0000
0000
0000
0000
0000
0000
ENDCHAR
STARTCHAR U+00B0
ENCODING 176
SWIDTH 500 0
DWIDTH 12 0
BBX 12 24 0 -2
BITMAP 
0700
0D80
0D80
0700
0000
0000
0000
0000
0000
0000
0000
0000
0000
0000
0000
0000
0000
0000
0000
0000
0000
0000
0000
0000
ENDCHAR
STARTCHAR U+00B1
ENCODING 177
SWIDTH 500 0
DWIDTH 12 0
BBX 12 24 0 -2
BITMAP 
0000
0000
0000
0000
0000
0000
0600
0600
0600
3FC0
3FC0
0600
0600
0600
0000
0000
3FC0
3FC0
0000
0000
0000
0000
0000
0000
ENDCHAR
STARTCHAR U+00B2
ENCODING 178
SWIDTH 500 0
DWIDTH 12 0
BBX 12 24 0 -2
BITMAP 
0F80
1FC0
18C0
01C0
0380
0700
0E00
1C00
1FC0
1FC0
0000
0000
0000
0000
0000
0000
0000
0000
0000
0000
0000
0000
0000
0000
ENDCHAR
STARTCHAR U+00B3
ENCODING 179
SWIDTH 500 0
DWIDTH 12 0
BBX 12 24 0 -2
BITMAP 
0F80
1FC0
18C0
00C0
07C0
07C0
00C0
18C0
1FC0
0F80
0000
0000
0000
0000
0000
0000
0000
0000
0000
0000
0000
0000
0000
0000
ENDCHAR
STARTCHAR U+00B4
ENCODING 180
SWIDTH 500 0
DWIDTH 12 0
BBX 12 24 0 -2
BITMAP 
0300
0700
0C00
0000
0000
0000
0000
0000
0000
0000
0000
0000
0000
0000
0000
0000
0000
0000
0000
0000
0000
0000
0000
0000
ENDCHAR
STARTCHAR U+00B5
ENCODING 181
SWIDTH 500 0
DWIDTH 12 0
BBX 12 24 0 -2
BITMAP 
0000
0000
0000
0000
0000
0000
0000
0000
0000
0660
0660
0660
0660
0EC0
0CC0
0CC0
0FE0
1FE0
1860
1800
3800
3000
3000
3000
ENDCHAR
STARTCHAR U+00B6
ENCODING 182
SWIDTH 500 0
DWIDTH 12 0
BBX 12 24 0 -2
BITMAP 
0000
0000
0000
0000
0000
0FE0
1FA0
3FA0
3FA0
3FA0
3FA0
1FA0
0FA0
00A0
00A0
00A0
00A0
00A0
00E0
0000
0000
0000
0000
0000
ENDCHAR
STARTCHAR U+00B7
ENCODING 183
SWIDTH 500 0
DWIDTH 12 0
BBX 12 24 0 -2
BITMAP 
0000
0000
0000
0000
0000
0000
0000
0000
0000
0000
0600
0F00
0F00
0600
0000
0000
0000
0000
0000
0000
0000
0000
0000
0000
ENDCHAR
STARTCHAR U+00B8
ENCODING 184
SWIDTH 500 0
DWIDTH 12 0
BBX 12 24 0 -2
BITMAP 
0000
0000
0000
0000
0000
0000
0000
0000
0000
0000
0000
0000
0000
0000
0000
0000
0000
0000
0600
0600
0700
0180
0F80
0F00
ENDCHAR
STARTCHAR U+00B9
ENCODING 185
SWIDTH 500 0
DWIDTH 12 0
BBX 12 24 0 -2
BITMAP 
0600
0E00
1E00
0600
0600
0600
0600
0600
1F80
1F80
0000
0000
0000
0000
0000
0000
0000
0000
0000
0000
0000
0000
0000
0000
ENDCHAR
STARTCHAR U+00BA
ENCODING 186
SWIDTH 500 0
DWIDTH 12 0
BBX 12 24 0 -2
BITMAP 
0F80
1FC0
18C0
18C0
18C0
18C0
1FC0
0F80
0000
1FC0
1FC0
0000
0000
0000
0000
0000
0000
0000
0000
0000
0000
0000
0000
0000
ENDCHAR
STARTCHAR U+00BB
ENCODING 187
SWIDTH 500 0
DWIDTH 12 0
BBX 12 24 0 -2
BITMAP 
0000
0000
0000
0000
0000
0000
1B00
0D80
0D80
06C0
06C0
0360
0360
06C0
06C0
0D80
0D80
1B00
0000
0000
0000
0000
0000
0000
ENDCHAR
STARTCHAR U+00BC
ENCODING 188
SWIDTH 500 0
DWIDTH 12 0
BBX 12 24 0 -2
BITMAP 
0000
0000
1800
3800
1800
1800
1800
1860
3CE0
3DC0
0380
0700
0E00
1CC0
39C0
73C0
66C0
07E0
07E0
00C0
00C0
0000
0000
0000
ENDCHAR
STARTCHAR U+00BD
ENCODING 189
SWIDTH 500 0
DWIDTH 12 0
BBX 12 24 0 -2
BITMAP 
0000
0000
1800
3800
1800
1800
1800
1860
3CE0
3DC0
0380
0700
0E00
1DC0
3BE0
7360
6060
00C0
0180
03E0
03E0
0000
0000
0000
ENDCHAR
STARTCHAR U+00BE
ENCODING 190
SWIDTH 500 0
DWIDTH 12 0
BBX 12 24 0 -2
BITMAP 
0000
0000
3C00
3E00
0600
1C00
1C00
0660
3EE0
3DC0
0380
0700
0E00
1CC0
39C0
73C0
66C0
07E0
07E0
00C0
00C0
0000
0000
0000
ENDCHAR
STARTCHAR U+00BF
ENCODING 191
SWIDTH 500 0
DWIDTH 12 0
BBX 12 24 0 -2
BITMAP 
0000
0000
0000
0000
0600
0F00
0600
0000
0000
0600
0600
0600
0C00
1800
3000
3040
39C0
1F80
0F00
0000
0000
0000
0000
0000
ENDCHAR
STARTCHAR U+00C0
ENCODING 192
SWIDTH 500 0
DWIDTH 12 0
BBX 12 24 0 -2
BITMAP 
0600
0700
0180
0000
0000
0F80
1FC0
38E0
3060
3060
3060
3FE0
3FE0
3060
3060
3060
3060
3060
3060
0000
0000
0000
0000
0000
ENDCHAR
STARTCHAR U+00C1
ENCODING 193
SWIDTH 500 0
DWIDTH 12 0
BBX 12 24 0 -2
BITMAP 
0300
0700
0C00
0000
0000
0F80
1FC0
38E0
3060
3060
3060
3FE0
3FE0
3060
3060
3060
3060
3060
3060
0000
0000
0000
0000
0000
ENDCHAR
STARTCHAR U+00C2
ENCODING 194
SWIDTH 500 0
DWIDTH 12 0
BBX 12 24 0 -2
BITMAP 
0700
0F80
18C0
0000
0000
0F80
1FC0
38E0
3060
3060
3060
3FE0
3FE0
3060
3060
3060
3060
3060
3060
0000
0000
0000
0000
0000
ENDCHAR
STARTCHAR U+00C3
ENCODING 195
SWIDTH 500 0
DWIDTH 12 0
BBX 12 24 0 -2
BITMAP 
1C20
3660
23C0
0000
0000
0F80
1FC0
38E0
3060
3060
3060
3FE0
3FE0
3060
3060
3060
3060
3060
3060
0000
0000
0000
0000
0000
ENDCHAR
STARTCHAR U+00C4
ENCODING 196
SWIDTH 500 0
DWIDTH 12 0
BBX 12 24 0 -2
BITMAP 
0000
18C0
18C0
0000
0000
0F80
1FC0
38E0
3060
3060
3060
3FE0
3FE0
3060
3060
3060
3060
3060
3060
0000
0000
0000
0000
0000
ENDCHAR
STARTCHAR U+00C5
ENCODING 197
SWIDTH 500 0
DWIDTH 12 0
BBX 12 24 0 -2
BITMAP 
0700
0D80
0D80
0700
0000
0F80
1FC0
38E0
3060
3060
3060
3FE0
3FE0
3060
3060
3060
3060
3060
3060
0000
0000
0000
0000
0000
ENDCHAR
STARTCHAR U+00C6
ENCODING 198
SWIDTH 500 0
DWIDTH 12 0
BBX 12 24 0 -2
BITMAP 
0000
0000
0000
0000
0000
1FE0
1FE0
3300
3300
6300
63E0
7FE0
7F00
6300
6300
6300
6300
63E0
63E0
0000
0000
0000
0000
0000
ENDCHAR
STARTCHAR U+00C7
ENCODING 199
SWIDTH 500 0
DWIDTH 12 0
BBX 12 24 0 -2
BITMAP 
0000
0000
0000
0000
0000
0F80
1FC0
38E0
3060
3000
3000
3000
3000
3000
3000
3060
38E0
1FC0
0F80
0600
0700
0180
0F80
0F00
ENDCHAR
STARTCHAR U+00C8
ENCODING 200
SWIDTH 500 0
DWIDTH 12 0
BBX 12 24 0 -2
BITMAP 
0600
0700
0180
0000
0000
3FE0
3FE0
3000
3000
3000
3000
3F80
3F80
3000
3000
3000
3000
3FE0
3FE0
0000
0000
0000
0000
0000
ENDCHAR
STARTCHAR U+00C9
ENCODING 201
SWIDTH 500 0
DWIDTH 12 0
BBX 12 24 0 -2
BITMAP 
0300
0700
0C00
0000
0000
3FE0
3FE0
3000
3000
3000
3000
3F80
3F80
3000
3000
3000
3000
3FE0
3FE0
0000
0000
0000
0000
0000
ENDCHAR
STARTCHAR U+00CA
ENCODING 202
SWIDTH 500 0
DWIDTH 12 0
BBX 12 24 0 -2
BITMAP 
0700
0F80
18C0
0000
0000
3FE0
3FE0
3000
3000
3000
3000
3F80
3F80
3000
3000
3000
3000
3FE0
3FE0
0000
0000
0000
0000
0000
ENDCHAR
STARTCHAR U+00CB
ENCODING 203
SWIDTH 500 0
DWIDTH 12 0
BBX 12 24 0 -2
BITMAP 
0000
18C0
18C0
0000
0000
3FE0
3FE0
3000
3000
3000
3000
3F80
3F80
3000
3000
3000
3000
3FE0
3FE0
0000
0000
0000
0000
0000
ENDCHAR
STARTCHAR U+00CC
ENCODING 204
SWIDTH 500 0
DWIDTH 12 0
BBX 12 24 0 -2
BITMAP 
0C00
0E00
0300
0000
0000
1F80
1F80
0600
0600
0600
0600
0600
0600
0600
0600
0600
0600
1F80
1F80
0000
0000
0000
0000
0000
ENDCHAR
STARTCHAR U+00CD
ENCODING 205
SWIDTH 500 0
DWIDTH 12 0
BBX 12 24 0 -2
BITMAP 
0300
0700
0C00
0000
0000
1F80
1F80
0600
0600
0600
0600
0600
0600
0600
0600
0600
0600
1F80
1F80
0000
0000
0000
0000
0000
ENDCHAR
STARTCHAR U+00CE
ENCODING 206
SWIDTH 500 0
DWIDTH 12 0
BBX 12 24 0 -2
BITMAP 
0600
0F00
1980
0000
0000
1F80
1F80
0600
0600
0600
0600
0600
0600
0600
0600
0600
0600
1F80
1F80
0000
0000
0000
0000
0000
ENDCHAR
STARTCHAR U+00CF
ENCODING 207
SWIDTH 500 0
DWIDTH 12 0
BBX 12 24 0 -2
BITMAP 
0000
1980
1980
0000
0000
1F80
1F80
0600
0600
0600
0600
0600
0600
0600
0600
0600
0600
1F80
1F80
0000
0000
0000
0000
0000
ENDCHAR
STARTCHAR U+00D0
ENCODING 208
SWIDTH 500 0
DWIDTH 12 0
BBX 12 24 0 -2
BITMAP 
0000
0000
0000
0000
0000
3F80
3FC0
30E0
3060
3060
3060
7E60
7E60
3060
3060
3060
30E0
3FC0
3F80
0000
0000
0000
0000
0000
ENDCHAR
STARTCHAR U+00D1
ENCODING 209
SWIDTH 500 0
DWIDTH 12 0
BBX 12 24 0 -2
BITMAP 
1C20
3660
23C0
0000
0000
3060
3860
3860
3C60
3C60
3660
3660
3360
3360
31E0
31E0
30E0
30E0
3060
0000
0000
0000
0000
0000
ENDCHAR
STARTCHAR U+00D2
ENCODING 210
SWIDTH 500 0
DWIDTH 12 0
BBX 12 24 0 -2
BITMAP 
0600
0700
0180
0000
0000
0F80
1FC0
38E0
3060
3060
3060
3060
3060
3060
3060
3060
38E0
1FC0
0F80
0000
0000
0000
0000
0000
ENDCHAR
STARTCHAR U+00D3
ENCODING 211
SWIDTH 500 0
DWIDTH 12 0
BBX 12 24 0 -2
BITMAP 
0300
0700
0C00
0000
0000
0F80
1FC0
38E0
3060
3060
3060
3060
3060
3060
3060
3060
38E0
1FC0
0F80
0000
0000
0000
0000
0000
ENDCHAR
STARTCHAR U+00D4
ENCODING 212
SWIDTH 500 0
DWIDTH 12 0
BBX 12 24 0 -2
BITMAP 
0700
0F80
18C0
0000
0000
0F80
1FC0
38E0
3060
3060
3060
3060
3060
3060
3060
3060
38E0
1FC0
0F80
0000
0000
0000
0000
0000
ENDCHAR
STARTCHAR U+00D5
ENCODING 213
SWIDTH 500 0
DWIDTH 12 0
BBX 12 24 0 -2
BITMAP 
1C20
3660
23C0
0000
0000
0F80
1FC0
38E0
3060
3060
3060
3060
3060
3060
3060
3060
38E0
1FC0
0F80
0000
0000
0000
0000
0000
ENDCHAR
STARTCHAR U+00D6
ENCODING 214
SWIDTH 500 0
DWIDTH 12 0
BBX 12 24 0 -2
BITMAP 
0000
18C0
18C0
0000
0000
0F80
1FC0
38E0
3060
3060
3060
3060
3060
3060
3060
3060
38E0
1FC0
0F80
0000
0000
0000
0000
0000
ENDCHAR
STARTCHAR U+00D7
ENCODING 215
SWIDTH 500 0
DWIDTH 12 0
BBX 12 24 0 -2
BITMAP 
0000
0000
0000
0000
0000
0000
0000
0000
3060
38E0
1DC0
0F80
0700
0F80
1DC0
38E0
3060
0000
0000
0000
0000
0000
0000
0000
ENDCHAR
STARTCHAR U+00D8
ENCODING 216
SWIDTH 500 0
DWIDTH 12 0
BBX 12 24 0 -2
BITMAP 
0000
0000
0000
0000
0000
0FA0
1FE0
38E0
30E0
31E0
3160
3360
3660
3460
3C60
3860
38E0
3FC0
2F80
0000
0000
0000
0000
0000
ENDCHAR
STARTCHAR U+00D9
ENCODING 217
SWIDTH 500 0
DWIDTH 12 0
BBX 12 24 0 -2
BITMAP 
0600
0700
0180
0000
0000
3060
3060
3060
3060
3060
3060
3060
3060
3060
3060
3060
38E0
1FC0
0F80
0000
0000
0000
0000
0000
ENDCHAR
STARTCHAR U+00DA
ENCODING 218
SWIDTH 500 0
DWIDTH 12 0
BBX 12 24 0 -2
BITMAP 
0300
0700
0C00
0000
0000
3060
3060
3060
3060
3060
3060
3060
3060
3060
3060
3060
38E0
1FC0
0F80
0000
0000
0000
0000
0000
ENDCHAR
STARTCHAR U+00DB
ENCODING 219
SWIDTH 500 0
DWIDTH 12 0
BBX 12 24 0 -2
BITMAP 
0700
0F80
18C0
0000
0000
3060
3060
3060
3060
3060
3060
3060
3060
3060
3060
3060
38E0
1FC0
0F80
0000
0000
0000
0000
0000
ENDCHAR
STARTCHAR U+00DC
ENCODING 220
SWIDTH 500 0
DWIDTH 12 0
BBX 12 24 0 -2
BITMAP 
0000
18C0
18C0
0000
0000
3060
3060
3060
3060
3060
3060
3060
3060
3060
3060
3060
38E0
1FC0
0F80
0000
0000
0000
0000
0000
ENDCHAR
STARTCHAR U+00DD
ENCODING 221
SWIDTH 500 0
DWIDTH 12 0
BBX 12 24 0 -2
BITMAP 
0300
0700
0C00
0000
0000
6060
6060
30C0
30C0
1980
1F80
0F00
0600
0600
0600
0600
0600
0600
0600
0000
0000
0000
0000
0000
ENDCHAR
STARTCHAR U+00DE
ENCODING 222
SWIDTH 500 0
DWIDTH 12 0
BBX 12 24 0 -2
BITMAP 
0000
0000
0000
0000
0000
3180
33C0
3660
3C60
3860
3060
3060
3860
3C60
3660
33C0
3180
3000
3000
6000
4000
0000
0000
0000
ENDCHAR
STARTCHAR U+00DF
ENCODING 223
SWIDTH 500 0
DWIDTH 12 0
BBX 12 24 0 -2
BITMAP 
0000
0000
0000
0000
0000
0F80
1FC0
38E0
3060
3060
30E0
33C0
33E0
30E0
3060
3060
30E0
33C0
3380
0000
0000
0000
0000
0000
ENDCHAR
STARTCHAR U+00E0
ENCODING 224
SWIDTH 500 0
DWIDTH 12 0
BBX 12 24 0 -2
BITMAP 
0000
0000
0000
0600
0700
0180
0000
0000
0780
0FC0
1860
0060
07E0
1FE0
3060
30E0
31E0
3F60
1E60
0000
0000
0000
0000
0000
ENDCHAR
STARTCHAR U+00E1
ENCODING 225
SWIDTH 500 0
DWIDTH 12 0
BBX 12 24 0 -2
BITMAP 
0000
0000
0000
0180
0380
0600
0000
0000
0780
0FC0
1860
0060
07E0
1FE0
3060
30E0
31E0
3F60
1E60
0000
0000
0000
0000
0000
ENDCHAR
STARTCHAR U+00E2
ENCODING 226
SWIDTH 500 0
DWIDTH 12 0
BBX 12 24 0 -2
BITMAP 
0000
0000
0000
0700
0F80
18C0
0000
0000
0780
0FC0
1860
0060
07E0
1FE0
3060
30E0
31E0
3F60
1E60
0000
0000
0000
0000
0000
ENDCHAR
STARTCHAR U+00E3
ENCODING 227
SWIDTH 500 0
DWIDTH 12 0
BBX 12 24 0 -2
BITMAP 
0000
0000
0000
1C20
3660
23C0
0000
0000
0780
0FC0
1860
0060
07E0
1FE0
3060
30E0
31E0
3F60
1E60
0000
0000
0000
0000
0000
ENDCHAR
STARTCHAR U+00E4
ENCODING 228
SWIDTH 500 0
DWIDTH 12 0
BBX 12 24 0 -2
BITMAP 
0000
0000
0000
0000
0CC0
0CC0
0000
0000
0780
0FC0
1860
0060
07E0
1FE0
3060
30E0
31E0
3F60
1E60
0000
0000
0000
0000
0000
ENDCHAR
STARTCHAR U+00E5
ENCODING 229
SWIDTH 500 0
DWIDTH 12 0
BBX 12 24 0 -2
BITMAP 
0000
0000
0000
0700
0D80
0D80
0700
0000
0780
0FC0
1860
0060
07E0
1FE0
3060
30E0
31E0
3F60
1E60
0000
0000
0000
0000
0000
ENDCHAR
STARTCHAR U+00E6
ENCODING 230
SWIDTH 500 0
DWIDTH 12 0
BBX 12 24 0 -2
BITMAP 
0000
0000
0000
0000
0000
0000
0000
0000
39C0
7FE0
4660
0660
1FE0
3FC0
6600
6600
6660
7FE0
3FC0
0000
0000
0000
0000
0000
ENDCHAR
STARTCHAR U+00E7
ENCODING 231
SWIDTH 500 0
DWIDTH 12 0
BBX 12 24 0 -2
BITMAP 
0000
0000
0000
0000
0000
0000
0000
0000
0000
07C0
1FC0
3860
3060
3000
3000
3000
3860
1FE0
0FC0
0600
0700
0180
0F80
0F00
ENDCHAR
STARTCHAR U+00E8
ENCODING 232
SWIDTH 500 0
DWIDTH 12 0
BBX 12 24 0 -2
BITMAP 
0000
0000
0000
0000
0600
0700
0180
0000
0000
0F80
1FC0
3860
3060
3FE0
3FE0
3000
3060
1FE0
0FC0
0000
0000
0000
0000
0000
ENDCHAR
STARTCHAR U+00E9
ENCODING 233
SWIDTH 500 0
DWIDTH 12 0
BBX 12 24 0 -2
BITMAP 
0000
0000
0000
0000
0300
0700
0C00
0000
0000
0F80
1FC0
3860
3060
3FE0
3FE0
3000
3060
1FE0
0FC0
0000
0000
0000
0000
0000
ENDCHAR
STARTCHAR U+00EA
ENCODING 234
SWIDTH 500 0
DWIDTH 12 0
BBX 12 24 0 -2
BITMAP 
0000
0000
0000
0000
0700
0F80
18C0
0000
0000
0F80
1FC0
3860
3060
3FE0
3FE0
3000
3060
1FE0
0FC0
0000
0000
0000
0000
0000
ENDCHAR
STARTCHAR U+00EB
ENCODING 235
SWIDTH 500 0
DWIDTH 12 0
BBX 12 24 0 -2
BITMAP 
0000
0000
0000
0000
0000
18C0
18C0
0000
0000
0F80
1FC0
3860
3060
3FE0
3FE0
3000
3060
1FE0
0FC0
0000
0000
0000
0000
0000
ENDCHAR
STARTCHAR U+00EC
ENCODING 236
SWIDTH 500 0
DWIDTH 12 0
BBX 12 24 0 -2
BITMAP 
0000
0000
0000
0000
0C00
0E00
0300
0000
0000
0600
0600
0600
0600
0600
0600
0600
0600
0600
0600
0000
0000
0000
0000
0000
ENDCHAR
STARTCHAR U+00ED
ENCODING 237
SWIDTH 500 0
DWIDTH 12 0
BBX 12 24 0 -2
BITMAP 
0000
0000
0000
0000
0300
0700
0C00
0000
0000
0600
0600
0600
0600
0600
0600
0600
0600
0600
0600
0000
0000
0000
0000
0000
ENDCHAR
STARTCHAR U+00EE
ENCODING 238
SWIDTH 500 0
DWIDTH 12 0
BBX 12 24 0 -2
BITMAP 
0000
0000
0000
0000
0600
0F00
1980
0000
0000
0600
0600
0600
0600
0600
0600
0600
0600
0600
0600
0000
0000
0000
0000
0000
ENDCHAR
STARTCHAR U+00EF
ENCODING 239
SWIDTH 500 0
DWIDTH 12 0
BBX 12 24 0 -2
BITMAP 
0000
0000
0000
0000
0000
1980
1980
0000
0000
0600
0600
0600
0600
0600
0600
0600
0600
0600
0600
0000
0000
0000
0000
0000
ENDCHAR
STARTCHAR U+00F0
ENCODING 240
SWIDTH 500 0
DWIDTH 12 0
BBX 12 24 0 -2
BITMAP 
0000
0000
0000
0000
0000
1CE0
1FE0
0380
0FC0
3CE0
3060
0FE0
1FE0
3860
3060
3060
38E0
1FC0
0F80
0000
0000
0000
0000
0000
ENDCHAR
STARTCHAR U+00F1
ENCODING 241
SWIDTH 500 0
DWIDTH 12 0
BBX 12 24 0 -2
BITMAP 
0000
0000
0000
0000
1C20
3660
23C0
0000
0000
3380
37C0
3C60
3860
3060
3060
3060
3060
3060
3060
0000
0000
0000
0000
0000
ENDCHAR
STARTCHAR U+00F2
ENCODING 242
SWIDTH 500 0
DWIDTH 12 0
BBX 12 24 0 -2
BITMAP 
0000
0000
0000
0000
0600
0700
0180
0000
0000
0F80
1FC0
38E0
3060
3060
3060
3060
38E0
1FC0
0F80
0000
0000
0000
0000
0000
ENDCHAR
STARTCHAR U+00F3
ENCODING 243
SWIDTH 500 0
DWIDTH 12 0
BBX 12 24 0 -2
BITMAP 
0000
0000
0000
0000
0300
0700
0C00
0000
0000
0F80
1FC0
38E0
3060
3060
3060
3060
38E0
1FC0
0F80
0000
0000
0000
0000
0000
ENDCHAR
STARTCHAR U+00F4
ENCODING 244
SWIDTH 500 0
DWIDTH 12 0
BBX 12 24 0 -2
BITMAP 
0000
0000
0000
0000
0700
0F80
18C0
0000
0000
0F80
1FC0
38E0
3060
3060
3060
3060
38E0
1FC0
0F80
0000
0000
0000
0000
0000
ENDCHAR
STARTCHAR U+00F5
ENCODING 245
SWIDTH 500 0
DWIDTH 12 0
BBX 12 24 0 -2
BITMAP 
0000
0000
0000
0000
1C20
3660
23C0
0000
0000
0F80
1FC0
38E0
3060
3060
3060
3060
38E0
1FC0
0F80
0000
0000
0000
0000
0000
ENDCHAR
STARTCHAR U+00F6
ENCODING 246
SWIDTH 500 0
DWIDTH 12 0
BBX 12 24 0 -2
BITMAP 
0000
0000
0000
0000
0000
18C0
18C0
0000
0000
0F80
1FC0
38E0
3060
3060
3060
3060
38E0
1FC0
0F80
0000
0000
0000
0000
0000
ENDCHAR
STARTCHAR U+00F7
ENCODING 247
SWIDTH 500 0
DWIDTH 12 0
BBX 12 24 0 -2
BITMAP 
0000
0000
0000
0000
0000
0000
0000
0000
0600
0F00
0600
0000
7FE0
7FE0
0000
0600
0F00
0600
0000
0000
0000
0000
0000
0000
ENDCHAR
STARTCHAR U+00F8
ENCODING 248
SWIDTH 500 0
DWIDTH 12 0
BBX 12 24 0 -2
BITMAP 
0000
0000
0000
0000
0000
0000
0000
0000
0000
0F60
1FE0
39C0
33E0
3360
3760
3E60
1CE0
3FC0
3780
0000
0000
0000
0000
0000
ENDCHAR
STARTCHAR U+00F9
ENCODING 249
SWIDTH 500 0
DWIDTH 12 0
BBX 12 24 0 -2
BITMAP 
0000
0000
0000
0000
0600
0700
0180
0000
0000
3060
3060
3060
3060
3060
3060
30E0
39E0
1F60
0E60
0000
0000
0000
0000
0000
ENDCHAR
STARTCHAR U+00FA
ENCODING 250
SWIDTH 500 0
DWIDTH 12 0
BBX 12 24 0 -2
BITMAP 
0000
0000
0000
0000
0300
0700
0C00
0000
0000
3060
3060
3060
3060
3060
3060
30E0
39E0
1F60
0E60
0000
0000
0000
0000
0000
ENDCHAR
STARTCHAR U+00FB
ENCODING 251
SWIDTH 500 0
DWIDTH 12 0
BBX 12 24 0 -2
BITMAP 
0000
0000
0000
0000
0700
0F80
18C0
0000
0000
3060
3060
3060
3060
3060
3060
30E0
39E0
1F60
0E60
0000
0000
0000
0000
0000
ENDCHAR
STARTCHAR U+00FC
ENCODING 252
SWIDTH 500 0
DWIDTH 12 0
BBX 12 24 0 -2
BITMAP 
0000
0000
0000
0000
0000
18C0
18C0
0000
0000
3060
3060
3060
3060
3060
3060
30E0
39E0
1F60
0E60
0000
0000
0000
0000
0000
ENDCHAR
STARTCHAR U+00FD
ENCODING 253
SWIDTH 500 0
DWIDTH 12 0
BBX 12 24 0 -2
BITMAP 
0000
0000
0000
0000
0180
0380
0600
0000
0000
3060
3060
3060
3060
3060
3060
3060
38E0
1FE0
0F60
0060
0060
00E0
1FC0
0F80
ENDCHAR
STARTCHAR U+00FE
ENCODING 254
SWIDTH 500 0
DWIDTH 12 0
BBX 12 24 0 -2
BITMAP 
0000
0000
0000
0000
0000
3000
3000
3000
3000
3380
37C0
3CE0
3860
3060
3060
30E0
31C0
3F80
3F00
3000
3000
3000
3000
3000
ENDCHAR
STARTCHAR U+00FF
ENCODING 255
SWIDTH 500 0
DWIDTH 12 0
BBX 12 24 0 -2
BITMAP 
0000
0000
0000
0000
0000
18C0
18C0
0000
0000
3060
3060
3060
3060
3060
3060
3060
38E0
1FE0
0F60
0060
0060
00E0
1FC0
0F80
ENDCHAR
STARTCHAR U+0100
ENCODING 256
SWIDTH 500 0
DWIDTH 12 0
BBX 12 24 0 -2
BITMAP 
0000
1FC0
1FC0
0000
0000
0F80
1FC0
38E0
3060
3060
3060
3FE0
3FE0
3060
3060
3060
3060
3060
3060
0000
0000
0000
0000
0000
ENDCHAR
STARTCHAR U+0101
ENCODING 257
SWIDTH 500 0
DWIDTH 12 0
BBX 12 24 0 -2
BITMAP 
0000
0000
0000
0000
1FC0
1FC0
0000
0000
0780
0FC0
1860
0060
07E0
1FE0
3060
30E0
31E0
3F60
1E60
0000
0000
0000
0000
0000
ENDCHAR
STARTCHAR U+0102
ENCODING 258
SWIDTH 500 0
DWIDTH 12 0
BBX 12 24 0 -2
BITMAP 
18C0
18C0
0F80
0000
0000
0F80
1FC0
38E0
3060
3060
3060
3FE0
3FE0
3060
3060
3060
3060
3060
3060
0000
0000
0000
0000
0000
ENDCHAR
STARTCHAR U+0103
ENCODING 259
SWIDTH 500 0
DWIDTH 12 0
BBX 12 24 0 -2
BITMAP 
0000
0000
0000
0CC0
0CC0
0780
0000
0000
0780
0FC0
1860
0060
07E0
1FE0
3060
30E0
31E0
3F60
1E60
0000
0000
0000
0000
0000
ENDCHAR
STARTCHAR U+0104
ENCODING 260
SWIDTH 500 0
DWIDTH 12 0
BBX 12 24 0 -2
BITMAP 
0000
0000
0000
0000
0000
0F80
1FC0
38E0
3060
3060
3060
3FE0
3FE0
3060
3060
3060
3060
3060
3060
01E0
0380
0600
07C0
03C0
ENDCHAR
STARTCHAR U+0105
ENCODING 261
SWIDTH 500 0
DWIDTH 12 0
BBX 12 24 0 -2
BITMAP 
0000
0000
0000
0000
0000
0000
0000
0000
0780
0FC0
1860
0060
07E0
1FE0
3060
30E0
31E0
3F60
1E60
01E0
0380
0600
07C0
03C0
ENDCHAR
STARTCHAR U+0106
ENCODING 262
SWIDTH 500 0
DWIDTH 12 0
BBX 12 24 0 -2
BITMAP 
0300
0700
0C00
0000
0000
0F80
1FC0
38E0
3060
3000
3000
3000
3000
3000
3000
3000
3060
18E0
0FC0
0780
0000
0000
0000
0000
ENDCHAR
STARTCHAR U+0107
ENCODING 263
SWIDTH 500 0
DWIDTH 12 0
BBX 12 24 0 -2
BITMAP 
0000
0000
0000
0000
0300
0700
0C00
0000
0000
07C0
1FC0
3860
3060
3000
3000
3000
3860
1FE0
0FC0
0000
0000
0000
0000
0000
ENDCHAR
STARTCHAR U+0108
ENCODING 264
SWIDTH 500 0
DWIDTH 12 0
BBX 12 24 0 -2
BITMAP 
0700
0F80
18C0
0000
0000
0F80
1FC0
38E0
3060
3000
3000
3000
3000
3000
3000
3060
38E0
1FC0
0F80
0000
0000
0000
0000
0000
ENDCHAR
STARTCHAR U+0109
ENCODING 265
SWIDTH 500 0
DWIDTH 12 0
BBX 12 24 0 -2
BITMAP 
0000
0000
0000
0000
0700
0F80
18C0
0000
0000
07C0
1FC0
3860
3060
3000
3000
3000
3860
1FE0
0FC0
0000
0000
0000
0000
0000
ENDCHAR
STARTCHAR U+010A
ENCODING 266
SWIDTH 500 0
DWIDTH 12 0
BBX 12 24 0 -2
BITMAP 
0000
0600
0600
0000
0000
0F80
1FC0
38E0
3060
3000
3000
3000
3000
3000
3000
3060
38E0
1FC0
0F80
0000
0000
0000
0000
0000
ENDCHAR
STARTCHAR U+010B
ENCODING 267
SWIDTH 500 0
DWIDTH 12 0
BBX 12 24 0 -2
BITMAP 
0000
0000
0000
0000
0000
0300
0300
0000
0000
07C0
1FC0
3860
3060
3000
3000
3000
3860
1FE0
0FC0
0000
0000
0000
0000
0000
ENDCHAR
STARTCHAR U+010C
ENCODING 268
SWIDTH 500 0
DWIDTH 12 0
BBX 12 24 0 -2
BITMAP 
1980
0F00
0600
0000
0000
0F80
1FC0
38E0
3060
3000
3000
3000
3000
3000
3000
3000
3060
38E0
1FC0
0F80
0000
0000
0000
0000
ENDCHAR
STARTCHAR U+010D
ENCODING 269
SWIDTH 500 0
DWIDTH 12 0
BBX 12 24 0 -2
BITMAP 
0000
0000
0000
0000
0CC0
0780
0300
0000
0000
07C0
1FC0
3860
3060
3000
3000
3000
3860
1FE0
0FC0
0000
0000
0000
0000
0000
ENDCHAR
STARTCHAR U+010E
ENCODING 270
SWIDTH 500 0
DWIDTH 12 0
BBX 12 24 0 -2
BITMAP 
1980
0F00
0600
0000
0000
3F80
3FC0
30C0
3060
3060
3060
3060
3060
3060
3060
3060
30E0
3FC0
3F80
0000
0000
0000
0000
0000
ENDCHAR
STARTCHAR U+010F
ENCODING 271
SWIDTH 500 0
DWIDTH 12 0
BBX 12 24 0 -2
BITMAP 
0000
0000
00E0
00E0
0020
0360
03C0
0300
0300
1B00
3F00
7700
6300
6300
6300
6300
7700
3F00
1B00
0000
0000
0000
0000
0000
ENDCHAR
STARTCHAR U+0110
ENCODING 272
SWIDTH 500 0
DWIDTH 12 0
BBX 12 24 0 -2
BITMAP 
0000
0000
0000
0000
0000
3F80
3FC0
30E0
3060
3060
3060
7E60
7E60
3060
3060
3060
30E0
3FC0
3F80
0000
0000
0000
0000
0000
ENDCHAR
STARTCHAR U+0111
ENCODING 273
SWIDTH 500 0
DWIDTH 12 0
BBX 12 24 0 -2
BITMAP 
0000
0000
0000
00C0
00C0
07E0
07E0
00C0
00C0
1EC0
3FC0
71C0
60C0
60C0
60C0
61C0
63C0
3EC0
1CC0
0000
0000
0000
0000
0000
ENDCHAR
STARTCHAR U+0112
ENCODING 274
SWIDTH 500 0
DWIDTH 12 0
BBX 12 24 0 -2
BITMAP 
0000
1FC0
1FC0
0000
0000
3FE0
3FE0
3000
3000
3000
3000
3F80
3F80
3000
3000
3000
3000
3FE0
3FE0
0000
0000
0000
0000
0000
ENDCHAR
STARTCHAR U+0113
ENCODING 275
SWIDTH 500 0
DWIDTH 12 0
BBX 12 24 0 -2
BITMAP 
0000
0000
0000
0000
0000
1FC0
1FC0
0000
0000
0F80
1FC0
3860
3060
3FE0
3FE0
3000
3060
1FE0
0FC0
0000
0000
0000
0000
0000
ENDCHAR
STARTCHAR U+0114
ENCODING 276
SWIDTH 500 0
DWIDTH 12 0
BBX 12 24 0 -2
BITMAP 
18C0
18C0
0F80
0000
0000
3FE0
3FE0
3000
3000
3000
3000
3F80
3F80
3000
3000
3000
3000
3FE0
3FE0
0000
0000
0000
0000
0000
ENDCHAR
STARTCHAR U+0115
ENCODING 277
SWIDTH 500 0
DWIDTH 12 0
BBX 12 24 0 -2
BITMAP 
0000
0000
0000
0CC0
0CC0
0780
0000
0000
0000
0F80
1FC0
3860
3060
3FE0
3FE0
3000
3060
1FE0
0FC0
0000
0000
0000
0000
0000
ENDCHAR
STARTCHAR U+0116
ENCODING 278
SWIDTH 500 0
DWIDTH 12 0
BBX 12 24 0 -2
BITMAP 
0000
0600
0600
0000
0000
3FE0
3FE0
3000
3000
3000
3000
3F80
3F80
3000
3000
3000
3000
3FE0
3FE0
0000
0000
0000
0000
0000
ENDCHAR
STARTCHAR U+0117
ENCODING 279
SWIDTH 500 0
DWIDTH 12 0
BBX 12 24 0 -2
BITMAP 
0000
0000
0000
0000
0000
0600
0600
0000
0000
0F80
1FC0
3860
3060
3FE0
3FE0
3000
3060
1FE0
0FC0
0000
0000
0000
0000
0000
ENDCHAR
STARTCHAR U+0118
ENCODING 280
SWIDTH 500 0
DWIDTH 12 0
BBX 12 24 0 -2
BITMAP 
0000
0000
0000
0000
0000
3FE0
3FE0
3000
3000
3000
3000
3F80
3F80
3000
3000
3000
3000
3FE0
3FE0
00C0
01C0
0300
03C0
01E0
ENDCHAR
STARTCHAR U+0119
ENCODING 281
SWIDTH 500 0
DWIDTH 12 0
BBX 12 24 0 -2
BITMAP 
0000
0000
0000
0000
0000
0000
0000
0000
0000
0F80
1FC0
3860
3060
3FE0
3FE0
3000
3060
1FE0
0FC0
0300
0700
0C00
0F00
0780
ENDCHAR
STARTCHAR U+011A
ENCODING 282
SWIDTH 500 0
DWIDTH 12 0
BBX 12 24 0 -2
BITMAP 
1980
0F00
0600
0000
0000
3FE0
3FE0
3000
3000
3000
3000
3F80
3F80
3000
3000
3000
3000
3FE0
3FE0
0000
0000
0000
0000
0000
ENDCHAR
STARTCHAR U+011B
ENCODING 283
SWIDTH 500 0
DWIDTH 12 0
BBX 12 24 0 -2
BITMAP 
0000
0000
0000
0000
0CC0
0780
0300
0000
0000
0F80
1FC0
3860
3060
3FE0
3FE0
3000
3060
1FE0
0FC0
0000
0000
0000
0000
0000
ENDCHAR
STARTCHAR U+011C
ENCODING 284
SWIDTH 500 0
DWIDTH 12 0
BBX 12 24 0 -2
BITMAP 
0700
0F80
18C0
0000
0000
0F80
1FC0
38E0
3060
3000
3000
3000
33E0
33E0
3060
3060
38E0
1FC0
0F80
0000
0000
0000
0000
0000
ENDCHAR
STARTCHAR U+011D
ENCODING 285
SWIDTH 500 0
DWIDTH 12 0
BBX 12 24 0 -2
BITMAP 
0000
0000
0000
0000
0700
0F80
18C0
0000
0000
0E60
1F60
39E0
30E0
3060
3060
3060
38E0
1FE0
0F60
0060
0060
0060
0FC0
0780
ENDCHAR
STARTCHAR U+011E
ENCODING 286
SWIDTH 500 0
DWIDTH 12 0
BBX 12 24 0 -2
BITMAP 
18C0
18C0
0F80
0000
0000
0F80
1FC0
38E0
3060
3000
3000
3000
31E0
31E0
3060
3060
38E0
1FC0
0F80
0000
0000
0000
0000
0000
ENDCHAR
STARTCHAR U+011F
ENCODING 287
SWIDTH 500 0
DWIDTH 12 0
BBX 12 24 0 -2
BITMAP 
0000
0000
0000
0000
1980
1980
0F00
0000
0000
0E60
1F60
39E0
30E0
3060
3060
3060
38E0
1FE0
0F60
0060
0060
0060
0FC0
0780
ENDCHAR
STARTCHAR U+0120
ENCODING 288
SWIDTH 500 0
DWIDTH 12 0
BBX 12 24 0 -2
BITMAP 
0000
0600
0600
0000
0000
0F80
1FC0
38E0
3060
3000
3000
3000
31E0
31E0
3060
3060
38E0
1FC0
0F80
0000
0000
0000
0000
0000
ENDCHAR
STARTCHAR U+0121
ENCODING 289
SWIDTH 500 0
DWIDTH 12 0
BBX 12 24 0 -2
BITMAP 
0000
0000
0000
0000
0000
0600
0600
0000
0000
0E60
1F60
39E0
30E0
3060
3060
3060
38E0
1FE0
0F60
0060
0060
0060
0FC0
0780
ENDCHAR
STARTCHAR U+0122
ENCODING 290
SWIDTH 500 0
DWIDTH 12 0
BBX 12 24 0 -2
BITMAP 
0000
0000
0000
0000
0000
0F80
1FC0
38E0
3060
3000
3000
3000
31E0
31E0
3060
3060
38E0
1FC0
0F80
0600
0700
0180
0F80
0F00
ENDCHAR
STARTCHAR U+0123
ENCODING 291
SWIDTH 500 0
DWIDTH 12 0
BBX 12 24 0 -2
BITMAP 
0000
0000
0780
0F80
0C00
0700
0300
0000
0000
0E60
1F60
39E0
30E0
3060
3060
3060
38E0
1FE0
0F60
0060
0060
0060
0FC0
0780
ENDCHAR
STARTCHAR U+0124
ENCODING 292
SWIDTH 500 0
DWIDTH 12 0
BBX 12 24 0 -2
BITMAP 
0700
0F80
18C0
0000
0000
3060
3060
3060
3060
3060
3060
3FE0
3FE0
3060
3060
3060
3060
3060
3060
0000
0000
0000
0000
0000
ENDCHAR
STARTCHAR U+0125
ENCODING 293
SWIDTH 500 0
DWIDTH 12 0
BBX 12 24 0 -2
BITMAP 
0E00
1F00
3180
0000
0000
3000
3000
3000
3000
3380
37C0
3CE0
3860
3060
3060
3060
3060
3060
3060
0000
0000
0000
0000
0000
ENDCHAR
STARTCHAR U+0126
ENCODING 294
SWIDTH 500 0
DWIDTH 12 0
BBX 12 24 0 -2
BITMAP 
0000
0000
0000
0000
0000
30C0
30C0
7FE0
7FE0
30C0
30C0
3FC0
3FC0
30C0
30C0
30C0
30C0
30C0
30C0
0000
0000
0000
0000
0000
ENDCHAR
STARTCHAR U+0127
ENCODING 295
SWIDTH 500 0
DWIDTH 12 0
BBX 12 24 0 -2
BITMAP 
0000
0000
0000
0000
3000
3000
7F00
7F00
3000
3380
37C0
3CE0
3860
3060
3060
3060
3060
3060
3060
0000
0000
0000
0000
0000
ENDCHAR
STARTCHAR U+0128
ENCODING 296
SWIDTH 500 0
DWIDTH 12 0
BBX 12 24 0 -2
BITMAP 
1C40
36C0
2380
0000
0000
1F80
1F80
0600
0600
0600
0600
0600
0600
0600
0600
0600
0600
1F80
1F80
0000
0000
0000
0000
0000
ENDCHAR
STARTCHAR U+0129
ENCODING 297
SWIDTH 500 0
DWIDTH 12 0
BBX 12 24 0 -2
BITMAP 
0000
0000
0000
0000
1C40
36C0
2380
0000
0000
0600
0600
0600
0600
0600
0600
0600
0600
0600
0600
0000
0000
0000
0000
0000
ENDCHAR
STARTCHAR U+012A
ENCODING 298
SWIDTH 500 0
DWIDTH 12 0
BBX 12 24 0 -2
BITMAP 
0000
3FC0
3FC0
0000
0000
1F80
1F80
0600
0600
0600
0600
0600
0600
0600
0600
0600
0600
1F80
1F80
0000
0000
0000
0000
0000
ENDCHAR
STARTCHAR U+012B
ENCODING 299
SWIDTH 500 0
DWIDTH 12 0
BBX 12 24 0 -2
BITMAP 
0000
0000
0000
0000
0000
1F80
1F80
0000
0000
0600
0600
0600
0600
0600
0600
0600
0600
0600
0600
0000
0000
0000
0000
0000
ENDCHAR
STARTCHAR U+012C
ENCODING 300
SWIDTH 500 0
DWIDTH 12 0
BBX 12 24 0 -2
BITMAP 
18C0
18C0
0F80
0000
0000
1F80
1F80
0600
0600
0600
0600
0600
0600
0600
0600
0600
0600
1F80
1F80
0000
0000
0000
0000
0000
ENDCHAR
STARTCHAR U+012D
ENCODING 301
SWIDTH 500 0
DWIDTH 12 0
BBX 12 24 0 -2
BITMAP 
0000
0000
0000
0000
1980
1980
0F00
0000
0000
0600
0600
0600
0600
0600
0600
0600
0600
0600
0600
0000
0000
0000
0000
0000
ENDCHAR
STARTCHAR U+012E
ENCODING 302
SWIDTH 500 0
DWIDTH 12 0
BBX 12 24 0 -2
BITMAP 
0000
0000
0000
0000
0000
1F80
1F80
0600
0600
0600
0600
0600
0600
0600
0600
0600
0600
1F80
1F80
0600
0E00
1800
1E00
0F00
ENDCHAR
STARTCHAR U+012F
ENCODING 303
SWIDTH 500 0
DWIDTH 12 0
BBX 12 24 0 -2
BITMAP 
0000
0000
0000
0000
0000
0600
0600
0000
0000
0600
0600
0600
0600
0600
0600
0600
0600
0600
0600
0600
0E00
1800
1E00
0F00
ENDCHAR
STARTCHAR U+0130
ENCODING 304
SWIDTH 500 0
DWIDTH 12 0
BBX 12 24 0 -2
BITMAP 
0000
0600
0600
0000
0000
1F80
1F80
0600
0600
0600
0600
0600
0600
0600
0600
0600
0600
1F80
1F80
0000
0000
0000
0000
0000
ENDCHAR
STARTCHAR U+0131
ENCODING 305
SWIDTH 500 0
DWIDTH 12 0
BBX 12 24 0 -2
BITMAP 
0000
0000
0000
0000
0000
0000
0000
0000
0000
0600
0600
0600
0600
0600
0600
0600
0600
0600
0600
0000
0000
0000
0000
0000
ENDCHAR
STARTCHAR U+0132
ENCODING 306
SWIDTH 500 0
DWIDTH 12 0
BBX 12 24 0 -2
BITMAP 
0000
0000
0000
0000
0000
7860
7860
3060
3060
3060
3060
3060
3060
3060
3060
3660
3660
7BC0
7BC0
0000
0000
0000
0000
0000
ENDCHAR
STARTCHAR U+0133
ENCODING 307
SWIDTH 500 0
DWIDTH 12 0
BBX 12 24 0 -2
BITMAP 
0000
0000
0000
0000
0000
3180
3180
0000
0000
3180
3180
3180
3180
3180
3180
3180
3180
3180
3180
0180
0180
0F80
0E00
0000
ENDCHAR
STARTCHAR U+0134
ENCODING 308
SWIDTH 500 0
DWIDTH 12 0
BBX 12 24 0 -2
BITMAP 
0380
07C0
0C60
0000
0000
0060
0060
0060
0060
0060
0060
0060
0060
0060
0060
3060
30E0
1FC0
0F80
0000
0000
0000
0000
0000
ENDCHAR
STARTCHAR U+0135
ENCODING 309
SWIDTH 500 0
DWIDTH 12 0
BBX 12 24 0 -2
BITMAP 
0000
0000
0000
0000
0E00
1F00
3180
0000
0000
0600
0600
0600
0600
0600
0600
0600
0600
0600
0600
0600
0600
3E00
3800
0000
ENDCHAR
STARTCHAR U+0136
ENCODING 310
SWIDTH 500 0
DWIDTH 12 0
BBX 12 24 0 -2
BITMAP 
0000
0000
0000
0000
0000
3060
30C0
3180
3300
3600
3C00
3800
3C00
3600
3300
3180
30C0
3060
3020
1800
1C00
0600
3E00
3C00
ENDCHAR
STARTCHAR U+0137
ENCODING 311
SWIDTH 500 0
DWIDTH 12 0
BBX 12 24 0 -2
BITMAP 
0000
0000
0000
0000
0000
3000
3000
3000
30C0
31C0
3380
3700
3E00
3C00
3E00
3700
3380
31C0
30C0
1800
1C00
0600
3E00
3C00
ENDCHAR
STARTCHAR U+0138
ENCODING 312
SWIDTH 500 0
DWIDTH 12 0
BBX 12 24 0 -2
BITMAP 
0000
0000
0000
0000
0000
0000
0000
0000
3060
30C0
3180
3300
3E00
3C00
3E00
3300
3180
30C0
3060
0000
0000
0000
0000
0000
ENDCHAR
STARTCHAR U+0139
ENCODING 313
SWIDTH 500 0
DWIDTH 12 0
BBX 12 24 0 -2
BITMAP 
0C00
1C00
3000
0000
0000
3000
3000
3000
3000
3000
3000
3000
3000
3000
3000
3000
3000
3FE0
3FE0
0000
0000
0000
0000
0000
ENDCHAR
STARTCHAR U+013A
ENCODING 314
SWIDTH 500 0
DWIDTH 12 0
BBX 12 24 0 -2
BITMAP 
0300
0700
0C00
0000
0000
0600
0600
0600
0600
0600
0600
0600
0600
0600
0600
0600
0600
0780
0380
0000
0000
0000
0000
0000
ENDCHAR
STARTCHAR U+013B
ENCODING 315
SWIDTH 500 0
DWIDTH 12 0
BBX 12 24 0 -2
BITMAP 
0000
0000
0000
0000
0000
3000
3000
3000
3000
3000
3000
3000
3000
3000
3000
3000
3000
3FE0
3FE0
0600
0700
0180
0F80
0F00
ENDCHAR
STARTCHAR U+013C
ENCODING 316
SWIDTH 500 0
DWIDTH 12 0
BBX 12 24 0 -2
BITMAP 
0000
0000
0000
0000
0000
0600
0600
0600
0600
0600
0600
0600
0600
0600
0600
0600
0600
0780
0380
0600
0700
0180
0F80
0F00
ENDCHAR
STARTCHAR U+013D
ENCODING 317
SWIDTH 500 0
DWIDTH 12 0
BBX 12 24 0 -2
BITMAP 
0000
0000
0000
0000
0380
3380
3080
3180
3300
3000
3000
3000
3000
3000
3000
3000
3000
3FE0
3FE0
0000
0000
0000
0000
0000
ENDCHAR
STARTCHAR U+013E
ENCODING 318
SWIDTH 500 0
DWIDTH 12 0
BBX 12 24 0 -2
BITMAP 
0000
0000
0000
0000
01C0
19C0
1840
18C0
1980
1800
1800
1800
1800
1800
1800
1800
1800
1E00
0E00
0000
0000
0000
0000
0000
ENDCHAR
STARTCHAR U+013F
ENCODING 319
SWIDTH 500 0
DWIDTH 12 0
BBX 12 24 0 -2
BITMAP 
0000
0000
0000
0000
0000
3000
3000
3000
3000
3000
3080
31C0
3080
3000
3000
3000
3000
3FE0
3FE0
0000
0000
0000
0000
0000
ENDCHAR
STARTCHAR U+0140
ENCODING 320
SWIDTH 500 0
DWIDTH 12 0
BBX 12 24 0 -2
BITMAP 
0000
0000
0000
0000
0000
3000
3000
3000
3000
3000
3080
31C0
3080
3000
3000
3000
3000
3C00
1C00
0000
0000
0000
0000
0000
ENDCHAR
STARTCHAR U+0141
ENCODING 321
SWIDTH 500 0
DWIDTH 12 0
BBX 12 24 0 -2
BITMAP 
0000
0000
0000
0000
0000
3000
3000
3180
3300
3600
3C00
3800
7000
7000
3000
3000
3000
3FE0
3FE0
0000
0000
0000
0000
0000
ENDCHAR
STARTCHAR U+0142
ENCODING 322
SWIDTH 500 0
DWIDTH 12 0
BBX 12 24 0 -2
BITMAP 
0000
0000
0000
0000
0000
0600
0600
0600
0600
06C0
0780
0700
0E00
1E00
3600
0600
0600
0780
0380
0000
0000
0000
0000
0000
ENDCHAR
STARTCHAR U+0143
ENCODING 323
SWIDTH 500 0
DWIDTH 12 0
BBX 12 24 0 -2
BITMAP 
0300
0700
0C00
0000
0000
3060
3860
3860
3C60
3C60
3660
3660
3360
3360
31E0
31E0
30E0
30E0
3060
0000
0000
0000
0000
0000
ENDCHAR
STARTCHAR U+0144
ENCODING 324
SWIDTH 500 0
DWIDTH 12 0
BBX 12 24 0 -2
BITMAP 
0000
0000
0000
0000
0300
0700
0C00
0000
0000
3380
37C0
3C60
3860
3060
3060
3060
3060
3060
3060
0000
0000
0000
0000
0000
ENDCHAR
STARTCHAR U+0145
ENCODING 325
SWIDTH 500 0
DWIDTH 12 0
BBX 12 24 0 -2
BITMAP 
0000
0000
0000
0000
0000
3060
3860
3860
3C60
3C60
3660
3660
3360
3360
31E0
31E0
30E0
30E0
3060
1800
1C00
0600
3E00
3C00
ENDCHAR
STARTCHAR U+0146
ENCODING 326
SWIDTH 500 0
DWIDTH 12 0
BBX 12 24 0 -2
BITMAP 
0000
0000
0000
0000
0000
0000
0000
0000
0000
3380
37C0
3C60
3860
3060
3060
3060
3060
3060
3060
1800
1C00
0600
3E00
3C00
ENDCHAR
STARTCHAR U+0147
ENCODING 327
SWIDTH 500 0
DWIDTH 12 0
BBX 12 24 0 -2
BITMAP 
1980
0F00
0600
0000
0000
3060
3860
3860
3C60
3C60
3660
3660
3360
3360
31E0
31E0
30E0
30E0
3060
0000
0000
0000
0000
0000
ENDCHAR
STARTCHAR U+0148
ENCODING 328
SWIDTH 500 0
DWIDTH 12 0
BBX 12 24 0 -2
BITMAP 
0000
0000
0000
0000
1980
0F00
0600
0000
0000
3380
37C0
3C60
3860
3060
3060
3060
3060
3060
3060
0000
0000
0000
0000
0000
ENDCHAR
STARTCHAR U+0149
ENCODING 329
SWIDTH 500 0
DWIDTH 12 0
BBX 12 24 0 -2
BITMAP 
0000
0000
0000
7000
7000
1000
3000
6000
0000
3380
37C0
3C60
3860
3060
3060
3060
3060
3060
3060
0000
0000
0000
0000
0000
ENDCHAR
STARTCHAR U+014A
ENCODING 330
SWIDTH 500 0
DWIDTH 12 0
BBX 12 24 0 -2
BITMAP 
0000
0000
0000
0000
0000
3380
37C0
3CE0
3860
3060
3060
3060
3060
3060
3060
3060
30E0
37C0
3380
0000
0000
0000
0000
0000
ENDCHAR
STARTCHAR U+014B
ENCODING 331
SWIDTH 500 0
DWIDTH 12 0
BBX 12 24 0 -2
BITMAP 
0000
0000
0000
0000
0000
0000
0000
0000
0000
3380
37C0
3C60
3860
3060
3060
3060
3060
3060
3060
0060
0060
0060
0FC0
0780
ENDCHAR
STARTCHAR U+014C
ENCODING 332
SWIDTH 500 0
DWIDTH 12 0
BBX 12 24 0 -2
BITMAP 
0000
1FC0
1FC0
0000
0000
0F80
1FC0
38E0
3060
3060
3060
3060
3060
3060
3060
3060
38E0
1FC0
0F80
0000
0000
0000
0000
0000
ENDCHAR
STARTCHAR U+014D
ENCODING 333
SWIDTH 500 0
DWIDTH 12 0
BBX 12 24 0 -2
BITMAP 
0000
0000
0000
0000
0000
1FC0
1FC0
0000
0000
0F80
1FC0
38E0
3060
3060
3060
3060
38E0
1FC0
0F80
0000
0000
0000
0000
0000
ENDCHAR
STARTCHAR U+014E
ENCODING 334
SWIDTH 500 0
DWIDTH 12 0
BBX 12 24 0 -2
BITMAP 
18C0
18C0
0F80
0000
0000
0F80
1FC0
38E0
3060
3060
3060
3060
3060
3060
3060
3060
38E0
1FC0
0F80
0000
0000
0000
0000
0000
ENDCHAR
STARTCHAR U+014F
ENCODING 335
SWIDTH 500 0
DWIDTH 12 0
BBX 12 24 0 -2
BITMAP 
0000
0000
0000
0000
18C0
18C0
0F80
0000
0000
0F80
1FC0
38E0
3060
3060
3060
3060
38E0
1FC0
0F80
0000
0000
0000
0000
0000
ENDCHAR
STARTCHAR U+0150
ENCODING 336
SWIDTH 500 0
DWIDTH 12 0
BBX 12 24 0 -2
BITMAP 
0C60
1CE0
3180
0000
0000
0F80
1FC0
38E0
3060
3060
3060
3060
3060
3060
3060
3060
38E0
1FC0
0F80
0000
0000
0000
0000
0000
ENDCHAR
STARTCHAR U+0151
ENCODING 337
SWIDTH 500 0
DWIDTH 12 0
BBX 12 24 0 -2
BITMAP 
0000
0000
0000
0000
0C60
1CE0
3180
0000
0000
0F80
1FC0
38E0
3060
3060
3060
3060
38E0
1FC0
0F80
0000
0000
0000
0000
0000
ENDCHAR
STARTCHAR U+0152
ENCODING 338
SWIDTH 500 0
DWIDTH 12 0
BBX 12 24 0 -2
BITMAP 
0000
0000
0000
0000
0000
1DE0
3FE0
7700
6300
6300
6300
63C0
63C0
6300
6300
6300
7700
3FE0
1DE0
0000
0000
0000
0000
0000
ENDCHAR
STARTCHAR U+0153
ENCODING 339
SWIDTH 500 0
DWIDTH 12 0
BBX 12 24 0 -2
BITMAP 
0000
0000
0000
0000
0000
0000
0000
0000
0000
1DC0
3FE0
7660
6660
67E0
67E0
6600
7660
3FE0
1DC0
0000
0000
0000
0000
0000
ENDCHAR
STARTCHAR U+0154
ENCODING 340
SWIDTH 500 0
DWIDTH 12 0
BBX 12 24 0 -2
BITMAP 
0300
0700
0C00
0000
0000
3F80
3FC0
30E0
3060
3060
30E0
3FC0
3F80
3180
3180
30C0
30C0
3060
3060
0000
0000
0000
0000
0000
ENDCHAR
STARTCHAR U+0155
ENCODING 341
SWIDTH 500 0
DWIDTH 12 0
BBX 12 24 0 -2
BITMAP 
0000
0000
0000
0000
0300
0700
0C00
0000
0000
3380
37C0
3C60
3860
3000
3000
3000
3000
3000
3000
0000
0000
0000
0000
0000
ENDCHAR
STARTCHAR U+0156
ENCODING 342
SWIDTH 500 0
DWIDTH 12 0
BBX 12 24 0 -2
BITMAP 
0000
0000
0000
0000
0000
3F80
3FC0
30E0
3060
3060
30E0
3FC0
3F80
3180
3180
30C0
30C0
3060
3060
1800
1C00
0600
3E00
3C00
ENDCHAR
STARTCHAR U+0157
ENCODING 343
SWIDTH 500 0
DWIDTH 12 0
BBX 12 24 0 -2
BITMAP 
0000
0000
0000
0000
0000
0000
0000
0000
0000
3380
37C0
3C60
3860
3000
3000
3000
3000
3000
3000
1800
1C00
0600
3E00
3C00
ENDCHAR
STARTCHAR U+0158
ENCODING 344
SWIDTH 500 0
DWIDTH 12 0
BBX 12 24 0 -2
BITMAP 
1980
0F00
0600
0000
0000
3F80
3FC0
30E0
3060
3060
30E0
3FC0
3F80
3180
3180
30C0
30C0
3060
3060
0000
0000
0000
0000
0000
ENDCHAR
STARTCHAR U+0159
ENCODING 345
SWIDTH 500 0
DWIDTH 12 0
BBX 12 24 0 -2
BITMAP 
0000
0000
0000
0000
1980
0F00
0600
0000
0000
3380
37C0
3C60
3860
3000
3000
3000
3000
3000
3000
0000
0000
0000
0000
0000
ENDCHAR
STARTCHAR U+015A
ENCODING 346
SWIDTH 500 0
DWIDTH 12 0
BBX 12 24 0 -2
BITMAP 
0300
0700
0C00
0000
0000
0F80
1FC0
30E0
3060
3000
3800
1F80
0FC0
00E0
0060
3060
30E0
3FC0
1F80
0000
0000
0000
0000
0000
ENDCHAR
STARTCHAR U+015B
ENCODING 347
SWIDTH 500 0
DWIDTH 12 0
BBX 12 24 0 -2
BITMAP 
0000
0000
0000
0000
0300
0700
0C00
0000
0000
1FC0
3FE0
3020
3000
1F80
0FC0
0060
3060
3FE0
1FC0
0000
0000
0000
0000
0000
ENDCHAR
STARTCHAR U+015C
ENCODING 348
SWIDTH 500 0
DWIDTH 12 0
BBX 12 24 0 -2
BITMAP 
0700
0F80
18C0
0000
0000
0F80
1FC0
30E0
3060
3000
3800
1F80
0FC0
00E0
0060
3060
30E0
3FC0
1F80
0000
0000
0000
0000
0000
ENDCHAR
STARTCHAR U+015D
ENCODING 349
SWIDTH 500 0
DWIDTH 12 0
BBX 12 24 0 -2
BITMAP 
0000
0000
0000
0000
0700
0F80
18C0
0000
0000
1FC0
3FE0
3020
3000
1F80
0FC0
0060
3060
3FE0
1FC0
0000
0000
0000
0000
0000
ENDCHAR
STARTCHAR U+015E
ENCODING 350
SWIDTH 500 0
DWIDTH 12 0
BBX 12 24 0 -2
BITMAP 
0000
0000
0000
0000
0000
0F80
1FC0
30E0
3060
3000
3800
1F80
0FC0
00E0
0060
3060
30E0
3FC0
1F80
0600
0700
0180
0F80
0F00
ENDCHAR
STARTCHAR U+015F
ENCODING 351
SWIDTH 500 0
DWIDTH 12 0
BBX 12 24 0 -2
BITMAP 
0000
0000
0000
0000
0000
0000
0000
0000
0000
1FC0
3FE0
3020
3000
1F80
0FC0
0060
3060
3FE0
1FC0
0600
0700
0180
0F80
0F00
ENDCHAR
STARTCHAR U+0160
ENCODING 352
SWIDTH 500 0
DWIDTH 12 0
BBX 12 24 0 -2
BITMAP 
1980
0F00
0600
0000
0000
0F80
1FC0
30E0
3060
3000
3800
1F80
0FC0
00E0
0060
3060
30E0
3FC0
1F80
0000
0000
0000
0000
0000
ENDCHAR
STARTCHAR U+0161
ENCODING 353
SWIDTH 500 0
DWIDTH 12 0
BBX 12 24 0 -2
BITMAP 
0000
0000
0000
0000
1980
0F00
0600
0000
0000
1FC0
3FE0
3020
3000
1F80
0FC0
0060
3060
3FE0
1FC0
0000
0000
0000
0000
0000
ENDCHAR
STARTCHAR U+0162
ENCODING 354
SWIDTH 500 0
DWIDTH 12 0
BBX 12 24 0 -2
BITMAP 
0000
0000
0000
0000
0000
7FE0
7FE0
0600
0600
0600
0600
0600
0600
0600
0600
0600
0600
0600
0600
0600
0700
0180
0F80
0F00
ENDCHAR
STARTCHAR U+0163
ENCODING 355
SWIDTH 500 0
DWIDTH 12 0
BBX 12 24 0 -2
BITMAP 
0000
0000
0000
0000
0000
0000
0600
0600
0600
1F80
1F80
0600
0600
0600
0600
0600
0600
0780
0780
0600
0700
0180
0F80
0F00
ENDCHAR
STARTCHAR U+0164
ENCODING 356
SWIDTH 500 0
DWIDTH 12 0
BBX 12 24 0 -2
BITMAP 
1980
0F00
0600
0000
0000
7FE0
7FE0
0600
0600
0600
0600
0600
0600
0600
0600
0600
0600
0600
0600
0000
0000
0000
0000
0000
ENDCHAR
STARTCHAR U+0165
ENCODING 357
SWIDTH 500 0
DWIDTH 12 0
BBX 12 24 0 -2
BITMAP 
0000
0000
0000
0000
00E0
00E0
1820
1860
18C0
7E00
7E00
1800
1800
1800
1800
1800
1800
1E00
0E00
0000
0000
0000
0000
0000
ENDCHAR
STARTCHAR U+0166
ENCODING 358
SWIDTH 500 0
DWIDTH 12 0
BBX 12 24 0 -2
BITMAP 
0000
0000
0000
0000
0000
7FE0
7FE0
0600
0600
0600
06C0
0780
0700
0E00
1E00
3600
0600
0600
0600
0000
0000
0000
0000
0000
ENDCHAR
STARTCHAR U+0167
ENCODING 359
SWIDTH 500 0
DWIDTH 12 0
BBX 12 24 0 -2
BITMAP 
0000
0000
0000
0000
0000
0000
0600
0600
0600
1F80
1F80
0600
06C0
0780
0F00
1E00
3600
0780
0380
0000
0000
0000
0000
0000
ENDCHAR
STARTCHAR U+0168
ENCODING 360
SWIDTH 500 0
DWIDTH 12 0
BBX 12 24 0 -2
BITMAP 
1C20
3660
23C0
0000
0000
3060
3060
3060
3060
3060
3060
3060
3060
3060
3060
3060
38E0
1FC0
0F80
0000
0000
0000
0000
0000
ENDCHAR
STARTCHAR U+0169
ENCODING 361
SWIDTH 500 0
DWIDTH 12 0
BBX 12 24 0 -2
BITMAP 
0000
0000
0000
0000
0E20
1B60
11C0
0000
0000
3060
3060
3060
3060
3060
3060
30E0
39E0
1F60
0E60
0000
0000
0000
0000
0000
ENDCHAR
STARTCHAR U+016A
ENCODING 362
SWIDTH 500 0
DWIDTH 12 0
BBX 12 24 0 -2
BITMAP 
0000
1FC0
1FC0
0000
0000
3060
3060
3060
3060
3060
3060
3060
3060
3060
3060
3060
38E0
1FC0
0F80
0000
0000
0000
0000
0000
ENDCHAR
STARTCHAR U+016B
ENCODING 363
SWIDTH 500 0
DWIDTH 12 0
BBX 12 24 0 -2
BITMAP 
0000
0000
0000
0000
0000
1FC0
1FC0
0000
0000
3060
3060
3060
3060
3060
3060
30E0
39E0
1F60
0E60
0000
0000
0000
0000
0000
ENDCHAR
STARTCHAR U+016C
ENCODING 364
SWIDTH 500 0
DWIDTH 12 0
BBX 12 24 0 -2
BITMAP 
18C0
18C0
0F80
0000
0000
3060
3060
3060
3060
3060
3060
3060
3060
3060
3060
3060
38E0
1FC0
0F80
0000
0000
0000
0000
0000
ENDCHAR
STARTCHAR U+016D
ENCODING 365
SWIDTH 500 0
DWIDTH 12 0
BBX 12 24 0 -2
BITMAP 
0000
0000
0000
0000
18C0
18C0
0F80
0000
0000
3060
3060
3060
3060
3060
3060
30E0
39E0
1F60
0E60
0000
0000
0000
0000
0000
ENDCHAR
STARTCHAR U+016E
ENCODING 366
SWIDTH 500 0
DWIDTH 12 0
BBX 12 24 0 -2
BITMAP 
0700
0D80
0D80
0700
0000
3060
3060
3060
3060
3060
3060
3060
3060
3060
3060
3060
38E0
1FC0
0F80
0000
0000
0000
0000
0000
ENDCHAR
STARTCHAR U+016F
ENCODING 367
SWIDTH 500 0
DWIDTH 12 0
BBX 12 24 0 -2
BITMAP 
0000
0000
0000
0700
0D80
0D80
0700
0000
0000
3060
3060
3060
3060
3060
3060
30E0
39E0
1F60
0E60
0000
0000
0000
0000
0000
ENDCHAR
STARTCHAR U+0170
ENCODING 368
SWIDTH 500 0
DWIDTH 12 0
BBX 12 24 0 -2
BITMAP 
0C60
1CE0
3180
0000
0000
3060
3060
3060
3060
3060
3060
3060
3060
3060
3060
3060
38E0
1FC0
0F80
0000
0000
0000
0000
0000
ENDCHAR
STARTCHAR U+0171
ENCODING 369
SWIDTH 500 0
DWIDTH 12 0
BBX 12 24 0 -2
BITMAP 
0000
0000
0000
0000
0C60
1CE0
3180
0000
0000
3060
3060
3060
3060
3060
3060
30E0
39E0
1F60
0E60
0000
0000
0000
0000
0000
ENDCHAR
STARTCHAR U+0172
ENCODING 370
SWIDTH 500 0
DWIDTH 12 0
BBX 12 24 0 -2
BITMAP 
0000
0000
0000
0000
0000
3060
3060
3060
3060
3060
3060
3060
3060
3060
3060
3060
38E0
1FC0
0F80
0600
0E00
1800
1F00
0F00
ENDCHAR
STARTCHAR U+0173
ENCODING 371
SWIDTH 500 0
DWIDTH 12 0
BBX 12 24 0 -2
BITMAP 
0000
0000
0000
0000
0000
0000
0000
0000
0000
3060
3060
3060
3060
3060
3060
30E0
39E0
1F60
0E60
00C0
01C0
0300
03E0
01E0
ENDCHAR
STARTCHAR U+0174
ENCODING 372
SWIDTH 500 0
DWIDTH 12 0
BBX 12 24 0 -2
BITMAP 
0700
0F80
18C0
0000
0000
3060
3060
3060
3060
3060
3060
3260
3760
3760
3DE0
3DE0
38E0
38E0
3060
0000
0000
0000
0000
0000
ENDCHAR
STARTCHAR U+0175
ENCODING 373
SWIDTH 500 0
DWIDTH 12 0
BBX 12 24 0 -2
BITMAP 
0000
0000
0000
0000
0700
0F80
18C0
0000
0000
3060
3060
3060
3060
3260
3760
3760
3DE0
38E0
3060
0000
0000
0000
0000
0000
ENDCHAR
STARTCHAR U+0176
ENCODING 374
SWIDTH 500 0
DWIDTH 12 0
BBX 12 24 0 -2
BITMAP 
0700
0F80
18C0
0000
0000
6060
6060
30C0
30C0
1980
1F80
0F00
0600
0600
0600
0600
0600
0600
0600
0000
0000
0000
0000
0000
ENDCHAR
STARTCHAR U+0177
ENCODING 375
SWIDTH 500 0
DWIDTH 12 0
BBX 12 24 0 -2
BITMAP 
0000
0000
0000
0000
0700
0F80
18C0
0000
0000
3060
3060
3060
3060
3060
3060
3060
30E0
1FE0
0F60
0060
0060
0060
1FC0
0F80
ENDCHAR
STARTCHAR U+0178
ENCODING 376
SWIDTH 500 0
DWIDTH 12 0
BBX 12 24 0 -2
BITMAP 
0000
18C0
18C0
0000
0000
6060
6060
30C0
30C0
1980
1F80
0F00
0600
0600
0600
0600
0600
0600
0600
0000
0000
0000
0000
0000
ENDCHAR
STARTCHAR U+0179
ENCODING 377
SWIDTH 500 0
DWIDTH 12 0
BBX 12 24 0 -2
BITMAP 
0300
0700
0C00
0000
0000
7FE0
7FE0
0060
00E0
01C0
0380
0700
0E00
1C00
3800
7000
6000
7FE0
7FE0
0000
0000
0000
0000
0000
ENDCHAR
STARTCHAR U+017A
ENCODING 378
SWIDTH 500 0
DWIDTH 12 0
BBX 12 24 0 -2
BITMAP 
0000
0000
0000
0000
0300
0700
0C00
0000
0000
3FE0
3FE0
00C0
0180
0300
0600
0C00
1800
3FE0
3FE0
0000
0000
0000
0000
0000
ENDCHAR
STARTCHAR U+017B
ENCODING 379
SWIDTH 500 0
DWIDTH 12 0
BBX 12 24 0 -2
BITMAP 
0000
0600
0600
0000
0000
7FE0
7FE0
0060
00E0
01C0
0380
0700
0E00
1C00
3800
7000
6000
7FE0
7FE0
0000
0000
0000
0000
0000
ENDCHAR
STARTCHAR U+017C
ENCODING 380
SWIDTH 500 0
DWIDTH 12 0
BBX 12 24 0 -2
BITMAP 
0000
0000
0000
0000
0000
0600
0600
0000
0000
3FE0
3FE0
00C0
0180
0300
0600
0C00
1800
3FE0
3FE0
0000
0000
0000
0000
0000
ENDCHAR
STARTCHAR U+017D
ENCODING 381
SWIDTH 500 0
DWIDTH 12 0
BBX 12 24 0 -2
BITMAP 
1980
0F00
0600
0000
0000
7FE0
7FE0
0060
00E0
01C0
0380
0700
0E00
1C00
3800
7000
6000
7FE0
7FE0
0000
0000
0000
0000
0000
ENDCHAR
STARTCHAR U+017E
ENCODING 382
SWIDTH 500 0
DWIDTH 12 0
BBX 12 24 0 -2
BITMAP 
0000
0000
0000
0000
1980
0F00
0600
0000
0000
3FE0
3FE0
00C0
0180
0300
0600
0C00
1800
3FE0
3FE0
0000
0000
0000
0000
0000
ENDCHAR
STARTCHAR U+017F
ENCODING 383
SWIDTH 500 0
DWIDTH 12 0
BBX 12 24 0 -2
BITMAP 
0000
0000
0000
0000
0000
0380
0780
0600
0600
0600
0E00
0E00
0600
0600
0600
0600
0600
0600
0600
0000
0000
0000
0000
0000
ENDCHAR
STARTCHAR U+0180
ENCODING 384
SWIDTH 500 0
DWIDTH 12 0
BBX 12 24 0 -2
BITMAP 
0000
0000
0000
0000
3000
3000
7E00
7E00
3000
3380
37C0
3CE0
3860
3060
3060
3860
3CE0
37C0
3380
0000
0000
0000
0000
0000
ENDCHAR
STARTCHAR U+0181
ENCODING 385
SWIDTH 500 0
DWIDTH 12 0
BBX 12 24 0 -2
BITMAP 
0000
0000
0000
0000
0000
3F00
7F80
6DC0
6CC0
6CC0
0D80
0F80
0FC0
0CC0
0C60
0C60
0CE0
0FC0
0F80
0000
0000
0000
0000
0000
ENDCHAR
STARTCHAR U+0182
ENCODING 386
SWIDTH 500 0
DWIDTH 12 0
BBX 12 24 0 -2
BITMAP 
0000
0000
0000
0000
0000
3F80
3F80
3000
3000
3000
3000
3F80
3FC0
30C0
3060
3060
30E0
3FC0
3F80
0000
0000
0000
0000
0000
ENDCHAR
STARTCHAR U+0183
ENCODING 387
SWIDTH 500 0
DWIDTH 12 0
BBX 12 24 0 -2
BITMAP 
0000
0000
0000
0000
0000
3FC0
3FC0
3000
3000
3380
37C0
3CE0
3860
3060
3060
3860
3CE0
37C0
3380
0000
0000
0000
0000
0000
ENDCHAR
STARTCHAR U+0184
ENCODING 388
SWIDTH 500 0
DWIDTH 12 0
BBX 12 24 0 -2
BITMAP 
0000
0000
0000
0000
0000
7000
7000
3000
3000
3000
3000
3F80
3FC0
30C0
3060
3060
30E0
3FC0
3F80
0000
0000
0000
0000
0000
ENDCHAR
STARTCHAR U+0185
ENCODING 389
SWIDTH 500 0
DWIDTH 12 0
BBX 12 24 0 -2
BITMAP 
0000
0000
0000
0000
0000
7800
7800
1800
1800
1980
1BC0
1EE0
1C60
1860
1860
1C60
1EE0
1BC0
1980
0000
0000
0000
0000
0000
ENDCHAR
STARTCHAR U+0186
ENCODING 390
SWIDTH 500 0
DWIDTH 12 0
BBX 12 24 0 -2
BITMAP 
0000
0000
0000
0000
0000
0F80
1FC0
38E0
3060
0060
0060
0060
0060
0060
0060
3060
38E0
1FC0
0F80
0000
0000
0000
0000
0000
ENDCHAR
STARTCHAR U+0187
ENCODING 391
SWIDTH 500 0
DWIDTH 12 0
BBX 12 24 0 -2
BITMAP 
0000
0000
0000
0060
00E0
1F80
3F00
7380
6180
6000
6000
6000
6000
6000
6000
6180
7380
3F00
1E00
0000
0000
0000
0000
0000
ENDCHAR
STARTCHAR U+0188
ENCODING 392
SWIDTH 500 0
DWIDTH 12 0
BBX 12 24 0 -2
BITMAP 
0000
0000
0000
0000
0000
0000
0000
0060
00E0
1F80
3F00
7180
6180
6000
6000
6000
7180
3F80
1F00
0000
0000
0000
0000
0000
ENDCHAR
STARTCHAR U+0189
ENCODING 393
SWIDTH 500 0
DWIDTH 12 0
BBX 12 24 0 -2
BITMAP 
0000
0000
0000
0000
0000
3F80
3FC0
30E0
3060
3060
3060
7E60
7E60
3060
3060
3060
30E0
3FC0
3F80
0000
0000
0000
0000
0000
ENDCHAR
STARTCHAR U+018A
ENCODING 394
SWIDTH 500 0
DWIDTH 12 0
BBX 12 24 0 -2
BITMAP 
0000
0000
0000
0000
0000
3F80
7FC0
6CC0
6C60
6C60
0C60
0C60
0C60
0C60
0C60
0C60
0CE0
0FC0
0F80
0000
0000
0000
0000
0000
ENDCHAR
STARTCHAR U+018B
ENCODING 395
SWIDTH 500 0
DWIDTH 12 0
BBX 12 24 0 -2
BITMAP 
0000
0000
0000
0000
0000
0FE0
0FE0
0060
0060
0060
0060
0FE0
1FE0
1860
3060
3060
3860
1FE0
0FE0
0000
0000
0000
0000
0000
ENDCHAR
STARTCHAR U+018C
ENCODING 396
SWIDTH 500 0
DWIDTH 12 0
BBX 12 24 0 -2
BITMAP 
0000
0000
0000
0000
0000
0FE0
0FE0
0060
0060
0F60
1FE0
38E0
3060
3060
3060
30E0
31E0
1F60
0E60
0000
0000
0000
0000
0000
ENDCHAR
STARTCHAR U+018D
ENCODING 397
SWIDTH 500 0
DWIDTH 12 0
BBX 12 24 0 -2
BITMAP 
0000
0000
0000
0000
0000
0000
0F80
1FC0
38E0
3060
3060
3060
38E0
1FC0
0F80
0180
00C0
0FC0
0F80
0000
0000
0000
0000
0000
ENDCHAR
STARTCHAR U+018E
ENCODING 398
SWIDTH 500 0
DWIDTH 12 0
BBX 12 24 0 -2
BITMAP 
0000
0000
0000
0000
0000
3FE0
3FE0
0060
0060
0060
0060
0FE0
0FE0
0060
0060
0060
0060
3FE0
3FE0
0000
0000
0000
0000
0000
ENDCHAR
STARTCHAR U+018F
ENCODING 399
SWIDTH 500 0
DWIDTH 12 0
BBX 12 24 0 -2
BITMAP 
0000
0000
0000
0000
0000
1F80
3FC0
70E0
6060
0060
0060
0060
7FE0
7FE0
6060
6060
70E0
3FC0
1F80
0000
0000
0000
0000
0000
ENDCHAR
STARTCHAR U+0190
ENCODING 400
SWIDTH 500 0
DWIDTH 12 0
BBX 12 24 0 -2
BITMAP 
0000
0000
0000
0000
0000
0F80
1FC0
3060
3060
3000
3000
1F00
1F00
3000
3000
3060
3060
1FC0
0F80
0000
0000
0000
0000
0000
ENDCHAR
STARTCHAR U+0191
ENCODING 401
SWIDTH 500 0
DWIDTH 12 0
BBX 12 24 0 -2
BITMAP 
0000
0000
0000
0000
0000
1FE0
1FE0
1800
1800
1800
1800
1F80
1F80
1800
1800
1800
1800
1800
1800
1800
1800
7800
7000
0000
ENDCHAR
STARTCHAR U+0192
ENCODING 402
SWIDTH 500 0
DWIDTH 12 0
BBX 12 24 0 -2
BITMAP 
0000
0000
0000
0000
0000
0380
0780
0600
0600
0600
1F80
1F80
0600
0600
0600
0600
0600
0600
0600
0600
0600
1E00
1C00
0000
ENDCHAR
STARTCHAR U+0193
ENCODING 403
SWIDTH 500 0
DWIDTH 12 0
BBX 12 24 0 -2
BITMAP 
0000
0000
0000
0060
00E0
1F80
3F00
7380
6180
6000
6000
6000
6780
6780
6180
6180
7380
3F00
1E00
0000
0000
0000
0000
0000
ENDCHAR
STARTCHAR U+0194
ENCODING 404
SWIDTH 500 0
DWIDTH 12 0
BBX 12 24 0 -2
BITMAP 
0000
0000
0000
0000
0000
3060
3060
38E0
18C0
0D80
0D80
0700
0700
0F80
18C0
18C0
18C0
18C0
0F80
0700
0000
0000
0000
0000
ENDCHAR
STARTCHAR U+0195
ENCODING 405
SWIDTH 500 0
DWIDTH 12 0
BBX 12 24 0 -2
BITMAP 
0000
0000
0000
0000
6000
6000
6000
6000
6000
6C60
7E60
7660
6660
6660
6660
6660
6660
63C0
6180
0000
0000
0000
0000
0000
ENDCHAR
STARTCHAR U+0196
ENCODING 406
SWIDTH 500 0
DWIDTH 12 0
BBX 12 24 0 -2
BITMAP 
0000
0000
0000
0000
0000
1E00
1E00
0600
0600
0600
0600
0600
0600
0600
0600
0600
0600
0780
0380
0000
0000
0000
0000
0000
ENDCHAR
STARTCHAR U+0197
ENCODING 407
SWIDTH 500 0
DWIDTH 12 0
BBX 12 24 0 -2
BITMAP 
0000
0000
0000
0000
0000
1F80
1F80
0600
0600
0600
0600
1F80
1F80
0600
0600
0600
0600
1F80
1F80
0000
0000
0000
0000
0000
ENDCHAR
STARTCHAR U+0198
ENCODING 408
SWIDTH 500 0
DWIDTH 12 0
BBX 12 24 0 -2
BITMAP 
0000
0000
0000
0000
0000
30C0
31E0
3320
3600
3400
3C00
3800
3C00
3600
3300
3180
30C0
3060
3020
0000
0000
0000
0000
0000
ENDCHAR
STARTCHAR U+0199
ENCODING 409
SWIDTH 500 0
DWIDTH 12 0
BBX 12 24 0 -2
BITMAP 
0000
0000
0000
0000
1C00
3C00
3000
3000
30C0
31C0
3380
3700
3E00
3C00
3E00
3700
3380
31C0
30C0
0000
0000
0000
0000
0000
ENDCHAR
STARTCHAR U+019A
ENCODING 410
SWIDTH 500 0
DWIDTH 12 0
BBX 12 24 0 -2
BITMAP 
0000
0000
0000
0000
0000
0600
0600
0600
0600
0600
0600
1F80
1F80
0600
0600
0600
0600
0780
0380
0000
0000
0000
0000
0000
ENDCHAR
STARTCHAR U+019B
ENCODING 411
SWIDTH 500 0
DWIDTH 12 0
BBX 12 24 0 -2
BITMAP 
0000
0000
0000
0000
0040
1CC0
1D80
0700
0E00
1B00
3300
2780
0780
0D80
0CC0
18C0
18C0
3060
3060
0000
0000
0000
0000
0000
ENDCHAR
STARTCHAR U+019C
ENCODING 412
SWIDTH 500 0
DWIDTH 12 0
BBX 12 24 0 -2
BITMAP 
0000
0000
0000
0000
0000
6660
6660
6660
6660
6660
6660
6660
6660
6660
6660
6660
6660
7FE0
3B60
0000
0000
0000
0000
0000
ENDCHAR
STARTCHAR U+019D
ENCODING 413
SWIDTH 500 0
DWIDTH 12 0
BBX 12 24 0 -2
BITMAP 
0000
0000
0000
0000
0000
1860
1860
1C60
1C60
1E60
1A60
1B60
1960
19E0
18E0
18E0
1860
1860
1860
1800
7800
7000
0000
0000
ENDCHAR
STARTCHAR U+019E
ENCODING 414
SWIDTH 500 0
DWIDTH 12 0
BBX 12 24 0 -2
BITMAP 
0000
0000
0000
0000
0000
0000
0000
0000
0000
3380
37C0
3C60
3860
3060
3060
3060
3060
3060
3060
0060
0060
0060
0000
0000
ENDCHAR
STARTCHAR U+019F
ENCODING 415
SWIDTH 500 0
DWIDTH 12 0
BBX 12 24 0 -2
BITMAP 
0000
0000
0000
0000
0000
0F80
1FC0
38E0
3060
3060
36E0
3FE0
3B60
3060
3060
3060
38E0
1FC0
0F80
0000
0000
0000
0000
0000
ENDCHAR
STARTCHAR U+01A0
ENCODING 416
SWIDTH 500 0
DWIDTH 12 0
BBX 12 24 0 -2
BITMAP 
0000
0000
0060
0060
00E0
1FC0
3F80
71C0
60C0
60C0
60C0
60C0
60C0
60C0
60C0
60C0
71C0
3F80
1F00
0000
0000
0000
0000
0000
ENDCHAR
STARTCHAR U+01A1
ENCODING 417
SWIDTH 500 0
DWIDTH 12 0
BBX 12 24 0 -2
BITMAP 
0000
0000
0000
0000
0000
0000
0060
0060
00E0
1FC0
3F80
71C0
60C0
60C0
60C0
60C0
71C0
3F80
1F00
0000
0000
0000
0000
0000
ENDCHAR
STARTCHAR U+01A2
ENCODING 418
SWIDTH 500 0
DWIDTH 12 0
BBX 12 24 0 -2
BITMAP 
0000
0000
0000
0000
0000
1CC0
3FE0
7760
6360
6360
6360
6360
6360
6360
6360
6360
7760
3E60
1C60
0060
0060
0060
0000
0000
ENDCHAR
STARTCHAR U+01A3
ENCODING 419
SWIDTH 500 0
DWIDTH 12 0
BBX 12 24 0 -2
BITMAP 
0000
0000
0000
0000
0000
0000
0000
0000
0000
1DC0
3FE0
7760
6360
6360
6360
6360
7760
3E60
1C60
0060
0060
0060
0000
0000
ENDCHAR
STARTCHAR U+01A4
ENCODING 420
SWIDTH 500 0
DWIDTH 12 0
BBX 12 24 0 -2
BITMAP 
0000
0000
0000
0000
0000
3F80
7FC0
6CE0
6C60
6C60
0CE0
0FC0
0F80
0C00
0C00
0C00
0C00
0C00
0C00
0000
0000
0000
0000
0000
ENDCHAR
STARTCHAR U+01A5
ENCODING 421
SWIDTH 500 0
DWIDTH 12 0
BBX 12 24 0 -2
BITMAP 
0000
0000
0000
0000
0000
0000
0000
0000
0060
66E0
6F80
7B80
7180
6180
6180
7180
7B80
6F00
6600
6000
6000
6000
6000
0000
ENDCHAR
STARTCHAR U+01A6
ENCODING 422
SWIDTH 500 0
DWIDTH 12 0
BBX 12 24 0 -2
BITMAP 
0000
0000
0000
0000
7E00
7E00
1800
1800
1F80
1FC0
18C0
18C0
1F80
1F00
1F00
1B80
19C0
18E0
1860
0000
0000
0000
0000
0000
ENDCHAR
STARTCHAR U+01A7
ENCODING 423
SWIDTH 500 0
DWIDTH 12 0
BBX 12 24 0 -2
BITMAP 
0000
0000
0000
0000
0000
0F80
1FC0
3860
3060
0060
00E0
0FC0
1F80
3800
3000
3060
3860
1FE0
0FC0
0000
0000
0000
0000
0000
ENDCHAR
STARTCHAR U+01A8
ENCODING 424
SWIDTH 500 0
DWIDTH 12 0
BBX 12 24 0 -2
BITMAP 
0000
0000
0000
0000
0000
0000
0000
0000
0000
1FC0
3FE0
2060
0060
0FC0
1F80
3000
3060
3FE0
1FC0
0000
0000
0000
0000
0000
ENDCHAR
STARTCHAR U+01A9
ENCODING 425
SWIDTH 500 0
DWIDTH 12 0
BBX 12 24 0 -2
BITMAP 
0000
0000
0000
0000
0000
3FE0
3FE0
3800
1C00
0E00
0700
0380
0380
0700
0E00
1C00
3800
3FE0
3FE0
0000
0000
0000
0000
0000
ENDCHAR
STARTCHAR U+01AA
ENCODING 426
SWIDTH 500 0
DWIDTH 12 0
BBX 12 24 0 -2
BITMAP 
0000
0000
0000
0000
0000
3C00
7E00
6600
6600
7E00
3E00
0600
0600
0600
0600
0600
0600
0600
0600
0600
0700
03C0
01C0
0000
ENDCHAR
STARTCHAR U+01AB
ENCODING 427
SWIDTH 500 0
DWIDTH 12 0
BBX 12 24 0 -2
BITMAP 
0000
0000
0000
0000
0000
0000
0600
0600
0600
1F80
1F80
0600
0600
0600
0600
0600
0600
0780
0380
0180
0180
0780
0700
0000
ENDCHAR
STARTCHAR U+01AC
ENCODING 428
SWIDTH 500 0
DWIDTH 12 0
BBX 12 24 0 -2
BITMAP 
0000
0000
0000
0000
0000
3FE0
7FE0
6600
6600
0600
0600
0600
0600
0600
0600
0600
0600
0600
0600
0000
0000
0000
0000
0000
ENDCHAR
STARTCHAR U+01AD
ENCODING 429
SWIDTH 500 0
DWIDTH 12 0
BBX 12 24 0 -2
BITMAP 
0000
0000
0000
0000
0000
0380
0780
0600
0600
1F80
1F80
0600
0600
0600
0600
0600
0600
0780
0380
0000
0000
0000
0000
0000
ENDCHAR
STARTCHAR U+01AE
ENCODING 430
SWIDTH 500 0
DWIDTH 12 0
BBX 12 24 0 -2
BITMAP 
0000
0000
0000
0000
0000
7FE0
7FE0
0600
0600
0600
0600
0600
0600
0600
0600
0600
0600
0600
0600
0780
0380
0000
0000
0000
ENDCHAR
STARTCHAR U+01AF
ENCODING 431
SWIDTH 500 0
DWIDTH 12 0
BBX 12 24 0 -2
BITMAP 
0000
0000
0000
0060
0060
63E0
63C0
6300
6300
6300
6300
6300
6300
6300
6300
6300
6300
3E00
1C00
0000
0000
0000
0000
0000
ENDCHAR
STARTCHAR U+01B0
ENCODING 432
SWIDTH 500 0
DWIDTH 12 0
BBX 12 24 0 -2
BITMAP 
0000
0000
0000
0000
0000
0000
0000
0060
0060
63E0
63C0
6300
6300
6300
6300
6300
6700
3F00
1B00
0000
0000
0000
0000
0000
ENDCHAR
STARTCHAR U+01B1
ENCODING 433
SWIDTH 500 0
DWIDTH 12 0
BBX 12 24 0 -2
BITMAP 
0000
0000
0000
0000
0000
3DE0
3DE0
0D80
0D80
18C0
3060
3060
3060
3060
3060
3060
38E0
1FC0
0F80
0000
0000
0000
0000
0000
ENDCHAR
STARTCHAR U+01B2
ENCODING 434
SWIDTH 500 0
DWIDTH 12 0
BBX 12 24 0 -2
BITMAP 
0000
0000
0000
0000
0000
3380
33C0
30C0
30C0
30C0
30C0
30C0
31C0
3180
3380
3700
3E00
3C00
3800
0000
0000
0000
0000
0000
ENDCHAR
STARTCHAR U+01B3
ENCODING 435
SWIDTH 500 0
DWIDTH 12 0
BBX 12 24 0 -2
BITMAP 
0000
0000
0000
0000
0000
3020
7860
1860
0CC0
0CC0
0780
0780
0300
0300
0300
0300
0300
0300
0300
0000
0000
0000
0000
0000
ENDCHAR
STARTCHAR U+01B4
ENCODING 436
SWIDTH 500 0
DWIDTH 12 0
BBX 12 24 0 -2
BITMAP 
0000
0000
0000
0000
0000
0000
0000
0060
00E0
6380
6300
6300
6300
6300
6300
6300
6700
3F00
1B00
0300
0300
0300
7E00
3C00
ENDCHAR
STARTCHAR U+01B5
ENCODING 437
SWIDTH 500 0
DWIDTH 12 0
BBX 12 24 0 -2
BITMAP 
0000
0000
0000
0000
0000
7FE0
7FE0
0060
00E0
01C0
0380
3FC0
3FC0
1C00
3800
7000
6000
7FE0
7FE0
0000
0000
0000
0000
0000
ENDCHAR
STARTCHAR U+01B6
ENCODING 438
SWIDTH 500 0
DWIDTH 12 0
BBX 12 24 0 -2
BITMAP 
0000
0000
0000
0000
0000
0000
0000
0000
0000
3FE0
3FE0
00C0
0180
1FC0
1FC0
0C00
1800
3FE0
3FE0
0000
0000
0000
0000
0000
ENDCHAR
STARTCHAR U+01B7
ENCODING 439
SWIDTH 500 0
DWIDTH 12 0
BBX 12 24 0 -2
BITMAP 
0000
0000
0000
0000
0000
3FC0
3FC0
0180
0300
0600
0F80
0FC0
00E0
0060
0060
0060
30E0
3FC0
1F80
0000
0000
0000
0000
0000
ENDCHAR
STARTCHAR U+01B8
ENCODING 440
SWIDTH 500 0
DWIDTH 12 0
BBX 12 24 0 -2
BITMAP 
0000
0000
0000
0000
0000
1FE0
1FE0
0C00
0600
0300
0F80
1F80
3800
3000
3000
3000
3860
1FE0
0FC0
0000
0000
0000
0000
0000
ENDCHAR
STARTCHAR U+01B9
ENCODING 441
SWIDTH 500 0
DWIDTH 12 0
BBX 12 24 0 -2
BITMAP 
0000
0000
0000
0000
0000
0000
0000
0000
0000
1F80
1F80
1800
0C00
0600
0F00
1F00
3800
3000
3000
3000
38C0
1FC0
0F80
0000
ENDCHAR
STARTCHAR U+01BA
ENCODING 442
SWIDTH 500 0
DWIDTH 12 0
BBX 12 24 0 -2
BITMAP 
0000
0000
0000
0000
0000
0000
0000
0000
0000
1F80
1F80
0180
0300
0600
0F00
0F80
01C0
00C0
1FC0
3F80
7000
7060
3FE0
1FC0
ENDCHAR
STARTCHAR U+01BB
ENCODING 443
SWIDTH 500 0
DWIDTH 12 0
BBX 12 24 0 -2
BITMAP 
0000
0000
0000
0000
0000
0F80
1FC0
30E0
3060
0060
00C0
1FC0
1FC0
0600
0C00
1800
3000
3FE0
3FE0
0000
0000
0000
0000
0000
ENDCHAR
STARTCHAR U+01BC
ENCODING 444
SWIDTH 500 0
DWIDTH 12 0
BBX 12 24 0 -2
BITMAP 
0000
0000
0000
0000
0000
3FC0
3FC0
0C00
0C00
0C00
0F80
0FC0
00E0
0060
0060
3060
30E0
1FC0
0F80
0000
0000
0000
0000
0000
ENDCHAR
STARTCHAR U+01BD
ENCODING 445
SWIDTH 500 0
DWIDTH 12 0
BBX 12 24 0 -2
BITMAP 
0000
0000
0000
0000
0000
0000
0000
0000
0000
3FC0
3FC0
0C00
0F80
0FC0
00E0
3060
30E0
1FC0
0F80
0000
0000
0000
0000
0000
ENDCHAR
STARTCHAR U+01BE
ENCODING 446
SWIDTH 500 0
DWIDTH 12 0
BBX 12 24 0 -2
BITMAP 
0000
0000
0000
0000
0000
0600
0600
3FC0
3FC0
0600
0700
0380
0180
0180
0180
0180
1980
1F00
0E00
0000
0000
0000
0000
0000
ENDCHAR
STARTCHAR U+01BF
ENCODING 447
SWIDTH 500 0
DWIDTH 12 0
BBX 12 24 0 -2
BITMAP 
0000
0000
0000
0000
0000
0000
0000
0000
0000
3380
37C0
3CE0
3860
3060
30E0
31C0
3380
3700
3E00
3C00
3000
3000
3000
0000
ENDCHAR
STARTCHAR U+01C0
ENCODING 448
SWIDTH 500 0
DWIDTH 12 0
BBX 12 24 0 -2
BITMAP 
0000
0000
0000
0000
0000
0600
0600
0600
0600
0600
0600
0600
0600
0600
0600
0600
0600
0600
0600
0000
0000
0000
0000
0000
ENDCHAR
STARTCHAR U+01C1
ENCODING 449
SWIDTH 500 0
DWIDTH 12 0
BBX 12 24 0 -2
BITMAP 
0000
0000
0000
0000
0000
1980
1980
1980
1980
1980
1980
1980
1980
1980
1980
1980
1980
1980
1980
0000
0000
0000
0000
0000
ENDCHAR
STARTCHAR U+01C2
ENCODING 450
SWIDTH 500 0
DWIDTH 12 0
BBX 12 24 0 -2
BITMAP 
0000
0000
0000
0000
0000
0600
0600
0600
0600
3FC0
3FC0
0600
0600
3FC0
3FC0
0600
0600
0600
0600
0000
0000
0000
0000
0000
ENDCHAR
STARTCHAR U+01C3
ENCODING 451
SWIDTH 500 0
DWIDTH 12 0
BBX 12 24 0 -2
BITMAP 
0000
0000
0000
0000
0000
0600
0600
0600
0600
0600
0600
0600
0600
0600
0600
0000
0000
0600
0600
0000
0000
0000
0000
0000
ENDCHAR
STARTCHAR U+01C4
ENCODING 452
SWIDTH 500 0
DWIDTH 12 0
BBX 12 24 0 -2
BITMAP 
0660
03C0
0180
0000
0000
73E0
7BE0
7C60
6C60
6CE0
6CC0
6CC0
6CC0
6DC0
6D80
6D80
7D80
7BE0
73E0
0000
0000
0000
0000
0000
ENDCHAR
STARTCHAR U+01C5
ENCODING 453
SWIDTH 500 0
DWIDTH 12 0
BBX 12 24 0 -2
BITMAP 
0000
0000
0000
0000
0330
71E0
78C0
7C00
6C00
6DE0
6DE0
6C60
6C60
6CC0
6CC0
6D80
7D80
79E0
71E0
0000
0000
0000
0000
0000
ENDCHAR
STARTCHAR U+01C6
ENCODING 454
SWIDTH 500 0
DWIDTH 12 0
BBX 12 24 0 -2
BITMAP 
0000
0000
0000
0000
0330
0DE0
0CC0
0C00
0C00
3DE0
7DE0
6C60
6C60
6CC0
6CC0
6D80
6D80
7DE0
35E0
0000
0000
0000
0000
0000
ENDCHAR
STARTCHAR U+01C7
ENCODING 455
SWIDTH 500 0
DWIDTH 12 0
BBX 12 24 0 -2
BITMAP 
0000
0000
0000
0000
0000
6060
6060
6060
6060
6060
6060
6060
6060
6060
6060
6660
6660
7BE0
7BC0
0000
0000
0000
0000
0000
ENDCHAR
STARTCHAR U+01C8
ENCODING 456
SWIDTH 500 0
DWIDTH 12 0
BBX 12 24 0 -2
BITMAP 
0000
0000
0000
0000
0000
6060
6060
6000
6000
6060
6060
6060
6060
6060
6060
6060
6060
7E60
7E60
0060
0060
03E0
0380
0000
ENDCHAR
STARTCHAR U+01C9
ENCODING 457
SWIDTH 500 0
DWIDTH 12 0
BBX 12 24 0 -2
BITMAP 
0000
0000
0000
0000
0000
30C0
30C0
3000
3000
30C0
30C0
30C0
30C0
30C0
30C0
30C0
30C0
3CC0
1CC0
00C0
00C0
07C0
0700
0000
ENDCHAR
STARTCHAR U+01CA
ENCODING 458
SWIDTH 500 0
DWIDTH 12 0
BBX 12 24 0 -2
BITMAP 
0000
0000
0000
0000
0000
6660
6660
6660
7660
7660
7660
7E60
7E60
6E60
6E60
6E60
6760
67E0
65C0
0000
0000
0000
0000
0000
ENDCHAR
STARTCHAR U+01CB
ENCODING 459
SWIDTH 500 0
DWIDTH 12 0
BBX 12 24 0 -2
BITMAP 
0000
0000
0000
0000
0000
6660
6660
6600
7600
7660
7660
7E60
7E60
6E60
6E60
6E60
6660
6660
6660
0060
0060
03E0
0380
0000
ENDCHAR
STARTCHAR U+01CC
ENCODING 460
SWIDTH 500 0
DWIDTH 12 0
BBX 12 24 0 -2
BITMAP 
0000
0000
0000
0000
0000
0060
0060
0000
0000
6660
6F60
7B60
7360
6360
6360
6360
6360
6360
6360
0060
0060
03E0
0380
0000
ENDCHAR
STARTCHAR U+01CD
ENCODING 461
SWIDTH 500 0
DWIDTH 12 0
BBX 12 24 0 -2
BITMAP 
0CC0
0780
0300
0000
0000
0F80
1FC0
38E0
3060
3060
3060
3FE0
3FE0
3060
3060
3060
3060
3060
3060
0000
0000
0000
0000
0000
ENDCHAR
STARTCHAR U+01CE
ENCODING 462
SWIDTH 500 0
DWIDTH 12 0
BBX 12 24 0 -2
BITMAP 
0000
0000
0000
0CC0
0780
0300
0000
0000
0780
0FC0
1860
0060
07E0
1FE0
3060
30E0
31E0
3F60
1E60
0000
0000
0000
0000
0000
ENDCHAR
STARTCHAR U+01CF
ENCODING 463
SWIDTH 500 0
DWIDTH 12 0
BBX 12 24 0 -2
BITMAP 
1980
0F00
0600
0000
0000
1F80
1F80
0600
0600
0600
0600
0600
0600
0600
0600
0600
0600
1F80
1F80
0000
0000
0000
0000
0000
ENDCHAR
STARTCHAR U+01D0
ENCODING 464
SWIDTH 500 0
DWIDTH 12 0
BBX 12 24 0 -2
BITMAP 
0000
0000
0000
0000
1980
0F00
0600
0000
0000
0600
0600
0600
0600
0600
0600
0600
0600
0600
0600
0000
0000
0000
0000
0000
ENDCHAR
STARTCHAR U+01D1
ENCODING 465
SWIDTH 500 0
DWIDTH 12 0
BBX 12 24 0 -2
BITMAP 
1980
0F00
0600
0000
0000
0F80
1FC0
38E0
3060
3060
3060
3060
3060
3060
3060
3060
38E0
1FC0
0F80
0000
0000
0000
0000
0000
ENDCHAR
STARTCHAR U+01D2
ENCODING 466
SWIDTH 500 0
DWIDTH 12 0
BBX 12 24 0 -2
BITMAP 
0000
0000
0000
0000
1980
0F00
0600
0000
0000
0F80
1FC0
38E0
3060
3060
3060
3060
38E0
1FC0
0F80
0000
0000
0000
0000
0000
ENDCHAR
STARTCHAR U+01D3
ENCODING 467
SWIDTH 500 0
DWIDTH 12 0
BBX 12 24 0 -2
BITMAP 
1980
0F00
0600
0000
0000
3060
3060
3060
3060
3060
3060
3060
3060
3060
3060
3060
38E0
1FC0
0F80
0000
0000
0000
0000
0000
ENDCHAR
STARTCHAR U+01D4
ENCODING 468
SWIDTH 500 0
DWIDTH 12 0
BBX 12 24 0 -2
BITMAP 
0000
0000
0000
0000
0CC0
0780
0300
0000
0000
3060
3060
3060
3060
3060
3060
30E0
39E0
1F60
0E60
0000
0000
0000
0000
0000
ENDCHAR
STARTCHAR U+01D5
ENCODING 469
SWIDTH 500 0
DWIDTH 12 0
BBX 12 24 0 -2
BITMAP 
1FC0
1FC0
0000
18C0
18C0
0000
3060
3060
3060
3060
3060
3060
3060
3060
3060
3060
38E0
1FC0
0F80
0000
0000
0000
0000
0000
ENDCHAR
STARTCHAR U+01D6
ENCODING 470
SWIDTH 500 0
DWIDTH 12 0
BBX 12 24 0 -2
BITMAP 
0000
0000
0000
1FC0
1FC0
0000
18C0
18C0
0000
3060
3060
3060
3060
3060
3060
30E0
39E0
1F60
0E60
0000
0000
0000
0000
0000
ENDCHAR
STARTCHAR U+01D7
ENCODING 471
SWIDTH 500 0
DWIDTH 12 0
BBX 12 24 0 -2
BITMAP 
0180
0380
0600
0000
18C0
18C0
0000
3060
3060
3060
3060
3060
3060
3060
3060
3060
38E0
1FC0
0F80
0000
0000
0000
0000
0000
ENDCHAR
STARTCHAR U+01D8
ENCODING 472
SWIDTH 500 0
DWIDTH 12 0
BBX 12 24 0 -2
BITMAP 
0000
0000
0180
0380
0600
0000
18C0
18C0
0000
3060
3060
3060
3060
3060
3060
30E0
39E0
1F60
0E60
0000
0000
0000
0000
0000
ENDCHAR
STARTCHAR U+01D9
ENCODING 473
SWIDTH 500 0
DWIDTH 12 0
BBX 12 24 0 -2
BITMAP 
1980
0F00
0600
0000
18C0
18C0
0000
3060
3060
3060
3060
3060
3060
3060
3060
3060
38E0
1FC0
0F80
0000
0000
0000
0000
0000
ENDCHAR
STARTCHAR U+01DA
ENCODING 474
SWIDTH 500 0
DWIDTH 12 0
BBX 12 24 0 -2
BITMAP 
0000
0000
1980
0F00
0600
0000
18C0
18C0
0000
3060
3060
3060
3060
3060
3060
30E0
39E0
1F60
0E60
0000
0000
0000
0000
0000
ENDCHAR
STARTCHAR U+01DB
ENCODING 475
SWIDTH 500 0
DWIDTH 12 0
BBX 12 24 0 -2
BITMAP 
0C00
0E00
0300
0000
18C0
18C0
0000
3060
3060
3060
3060
3060
3060
3060
3060
3060
38E0
1FC0
0F80
0000
0000
0000
0000
0000
ENDCHAR
STARTCHAR U+01DC
ENCODING 476
SWIDTH 500 0
DWIDTH 12 0
BBX 12 24 0 -2
BITMAP 
0000
0000
0C00
0E00
0300
0000
18C0
18C0
0000
3060
3060
3060
3060
3060
3060
30E0
39E0
1F60
0E60
0000
0000
0000
0000
0000
ENDCHAR
STARTCHAR U+01DD
ENCODING 477
SWIDTH 500 0
DWIDTH 12 0
BBX 12 24 0 -2
BITMAP 
0000
0000
0000
0000
0000
0000
0000
0000
0000
1F80
3FC0
3060
0060
3FE0
3FE0
3060
30E0
1FC0
0F80
0000
0000
0000
0000
0000
ENDCHAR
STARTCHAR U+01DE
ENCODING 478
SWIDTH 500 0
DWIDTH 12 0
BBX 12 24 0 -2
BITMAP 
1FC0
1FC0
0000
18C0
18C0
0000
0F80
1FC0
38E0
3060
3060
3060
3FE0
3FE0
3060
3060
3060
3060
3060
0000
0000
0000
0000
0000
ENDCHAR
STARTCHAR U+01DF
ENCODING 479
SWIDTH 500 0
DWIDTH 12 0
BBX 12 24 0 -2
BITMAP 
0000
0000
1FC0
1FC0
0000
18C0
18C0
0000
0780
0FC0
1860
0060
07E0
1FE0
3060
30E0
31E0
3F60
1E60
0000
0000
0000
0000
0000
ENDCHAR
STARTCHAR U+01E0
ENCODING 480
SWIDTH 500 0
DWIDTH 12 0
BBX 12 24 0 -2
BITMAP 
1F80
1F80
0000
0600
0600
0000
0F80
1FC0
38E0
3060
3060
3060
3FE0
3FE0
3060
3060
3060
3060
3060
0000
0000
0000
0000
0000
ENDCHAR
STARTCHAR U+01E1
ENCODING 481
SWIDTH 500 0
DWIDTH 12 0
BBX 12 24 0 -2
BITMAP 
0000
0000
0FC0
0FC0
0000
0300
0300
0000
0780
0FC0
1860
0060
07E0
1FE0
3060
30E0
31E0
3F60
1E60
0000
0000
0000
0000
0000
ENDCHAR
STARTCHAR U+01E2
ENCODING 482
SWIDTH 500 0
DWIDTH 12 0
BBX 12 24 0 -2
BITMAP 
0000
1FC0
1FC0
0000
0000
1FE0
1FE0
3300
3300
6300
63E0
7FE0
7F00
6300
6300
6300
6300
63E0
63E0
0000
0000
0000
0000
0000
ENDCHAR
STARTCHAR U+01E3
ENCODING 483
SWIDTH 500 0
DWIDTH 12 0
BBX 12 24 0 -2
BITMAP 
0000
0000
0000
0000
1FC0
1FC0
0000
0000
39C0
7FE0
4660
0660
1FE0
3FC0
6600
6600
6660
7FE0
3FC0
0000
0000
0000
0000
0000
ENDCHAR
STARTCHAR U+01E4
ENCODING 484
SWIDTH 500 0
DWIDTH 12 0
BBX 12 24 0 -2
BITMAP 
0000
0000
0000
0000
0000
1F00
3F80
71C0
60C0
6000
6000
63C0
63C0
60C0
67E0
67E0
71C0
3F80
1F00
0000
0000
0000
0000
0000
ENDCHAR
STARTCHAR U+01E5
ENCODING 485
SWIDTH 500 0
DWIDTH 12 0
BBX 12 24 0 -2
BITMAP 
0000
0000
0000
0000
0000
0000
0000
0000
0000
1CC0
3EC0
73C0
61C0
60C0
60C0
71C0
3FC0
1EC0
00C0
07E0
07E0
00C0
1F80
0F00
ENDCHAR
STARTCHAR U+01E6
ENCODING 486
SWIDTH 500 0
DWIDTH 12 0
BBX 12 24 0 -2
BITMAP 
1980
0F00
0600
0000
0000
0F80
1FC0
38E0
3060
3000
3000
3000
31E0
31E0
3060
3060
38E0
1FC0
0F80
0000
0000
0000
0000
0000
ENDCHAR
STARTCHAR U+01E7
ENCODING 487
SWIDTH 500 0
DWIDTH 12 0
BBX 12 24 0 -2
BITMAP 
0000
0000
0000
0000
1980
0F00
0600
0000
0000
0E60
1F60
39E0
30E0
3060
3060
3060
38E0
1FE0
0F60
0060
0060
0060
0FC0
0780
ENDCHAR
STARTCHAR U+01E8
ENCODING 488
SWIDTH 500 0
DWIDTH 12 0
BBX 12 24 0 -2
BITMAP 
1980
0F00
0600
0000
0000
3060
30C0
3180
3300
3600
3C00
3800
3C00
3600
3300
3180
30C0
3060
3020
0000
0000
0000
0000
0000
ENDCHAR
STARTCHAR U+01E9
ENCODING 489
SWIDTH 500 0
DWIDTH 12 0
BBX 12 24 0 -2
BITMAP 
0000
3300
1E00
0C00
0000
0000
3000
3000
30C0
31C0
3380
3700
3E00
3C00
3E00
3700
3380
31C0
30C0
0000
0000
0000
0000
0000
ENDCHAR
STARTCHAR U+01EA
ENCODING 490
SWIDTH 500 0
DWIDTH 12 0
BBX 12 24 0 -2
BITMAP 
0000
0000
0000
0000
0000
0F80
1FC0
38E0
3060
3060
3060
3060
3060
3060
3060
3060
38E0
1FC0
0F80
0300
0700
0C00
0F80
0700
ENDCHAR
STARTCHAR U+01EB
ENCODING 491
SWIDTH 500 0
DWIDTH 12 0
BBX 12 24 0 -2
BITMAP 
0000
0000
0000
0000
0000
0000
0000
0000
0000
0F80
1FC0
38E0
3060
3060
3060
3060
38E0
1FC0
0F80
0300
0700
0C00
0F80
0700
ENDCHAR
STARTCHAR U+01EC
ENCODING 492
SWIDTH 500 0
DWIDTH 12 0
BBX 12 24 0 -2
BITMAP 
0000
1FC0
1FC0
0000
0000
0F80
1FC0
38E0
3060
3060
3060
3060
3060
3060
3060
3060
38E0
1FC0
0F80
0300
0700
0C00
0F80
0700
ENDCHAR
STARTCHAR U+01ED
ENCODING 493
SWIDTH 500 0
DWIDTH 12 0
BBX 12 24 0 -2
BITMAP 
0000
0000
0000
0000
0000
1FC0
1FC0
0000
0000
0F80
1FC0
38E0
3060
3060
3060
3060
38E0
1FC0
0F80
0300
0700
0C00
0F80
0700
ENDCHAR
STARTCHAR U+01EE
ENCODING 494
SWIDTH 500 0
DWIDTH 12 0
BBX 12 24 0 -2
BITMAP 
1980
0F00
0600
0000
0000
3FC0
3FC0
0180
0300
0600
0F80
0FC0
00E0
0060
0060
0060
30E0
3FC0
1F80
0000
0000
0000
0000
0000
ENDCHAR
STARTCHAR U+01EF
ENCODING 495
SWIDTH 500 0
DWIDTH 12 0
BBX 12 24 0 -2
BITMAP 
0000
0000
0000
0000
1980
0F00
0600
0000
0000
1F80
1F80
0180
0300
0600
0F00
0F80
01C0
00C0
00C0
00C0
31C0
3F80
1F00
0000
ENDCHAR
STARTCHAR U+01F0
ENCODING 496
SWIDTH 500 0
DWIDTH 12 0
BBX 12 24 0 -2
BITMAP 
0000
0000
0000
0000
1980
0F00
0600
0000
0000
0600
0600
0600
0600
0600
0600
0600
0600
0600
0600
0600
0600
3E00
3800
0000
ENDCHAR
STARTCHAR U+01F1
ENCODING 497
SWIDTH 500 0
DWIDTH 12 0
BBX 12 24 0 -2
BITMAP 
0000
0000
0000
0000
0000
73E0
7BE0
6C60
6C60
6CE0
6CC0
6CC0
6CC0
6DC0
6D80
6D80
6D80
7BE0
73E0
0000
0000
0000
0000
0000
ENDCHAR
STARTCHAR U+01F2
ENCODING 498
SWIDTH 500 0
DWIDTH 12 0
BBX 12 24 0 -2
BITMAP 
0000
0000
0000
0000
0000
7000
7800
7C00
6C00
6DE0
6DE0
6C60
6C60
6CC0
6CC0
6D80
7D80
79E0
71E0
0000
0000
0000
0000
0000
ENDCHAR
STARTCHAR U+01F3
ENCODING 499
SWIDTH 500 0
DWIDTH 12 0
BBX 12 24 0 -2
BITMAP 
0000
0000
0000
0000
0000
0C00
0C00
0C00
0C00
3DE0
7DE0
6C60
6C60
6CC0
6CC0
6D80
6D80
7DE0
35E0
0000
0000
0000
0000
0000
ENDCHAR
STARTCHAR U+01F4
ENCODING 500
SWIDTH 500 0
DWIDTH 12 0
BBX 12 24 0 -2
BITMAP 
0180
0380
0600
0000
0000
0F80
1FC0
38E0
3060
3000
3000
3000
31E0
31E0
3060
3060
38E0
1FC0
0F80
0000
0000
0000
0000
0000
ENDCHAR
STARTCHAR U+01F5
ENCODING 501
SWIDTH 500 0
DWIDTH 12 0
BBX 12 24 0 -2
BITMAP 
0000
0000
0000
0000
0180
0380
0600
0000
0000
0E60
1F60
39E0
30E0
3060
3060
3060
38E0
1FE0
0F60
0060
0060
0060
0FC0
0780
ENDCHAR
STARTCHAR U+01FA
ENCODING 506
SWIDTH 500 0
DWIDTH 12 0
BBX 12 24 0 -2
BITMAP 
0380
0600
0000
0700
0D80
0700
0000
0F80
1FC0
38E0
3060
3060
3FE0
3FE0
3060
3060
3060
3060
3060
0000
0000
0000
0000
0000
ENDCHAR
STARTCHAR U+01FB
ENCODING 507
SWIDTH 500 0
DWIDTH 12 0
BBX 12 24 0 -2
BITMAP 
0180
0380
0600
0000
0700
0D80
0700
0000
0780
0FC0
1860
0060
07E0
1FE0
3060
30E0
31E0
3F60
1E60
0000
0000
0000
0000
0000
ENDCHAR
STARTCHAR U+01FC
ENCODING 508
SWIDTH 500 0
DWIDTH 12 0
BBX 12 24 0 -2
BITMAP 
0300
0700
0C00
0000
0000
1FE0
1FE0
3300
3300
6300
63E0
7FE0
7F00
6300
6300
6300
6300
63E0
63E0
0000
0000
0000
0000
0000
ENDCHAR
STARTCHAR U+01FD
ENCODING 509
SWIDTH 500 0
DWIDTH 12 0
BBX 12 24 0 -2
BITMAP 
0000
0000
0000
0300
0700
0C00
0000
0000
39C0
7FE0
4660
0660
1FE0
3FC0
6600
6600
6660
7FE0
3FC0
0000
0000
0000
0000
0000
ENDCHAR
STARTCHAR U+01FE
ENCODING 510
SWIDTH 500 0
DWIDTH 12 0
BBX 12 24 0 -2
BITMAP 
0180
0380
0600
0000
0000
0FA0
1FE0
38E0
30E0
31E0
3160
3360
3660
3460
3C60
3860
38E0
3FC0
2F80
0000
0000
0000
0000
0000
ENDCHAR
STARTCHAR U+01FF
ENCODING 511
SWIDTH 500 0
DWIDTH 12 0
BBX 12 24 0 -2
BITMAP 
0000
0000
0000
0000
0180
0380
0600
0000
0000
0F60
1FE0
39C0
33E0
3360
3760
3E60
1CE0
3FC0
3780
0000
0000
0000
0000
0000
ENDCHAR
STARTCHAR U+0200
ENCODING 512
SWIDTH 500 0
DWIDTH 12 0
BBX 12 24 0 -2
BITMAP 
3180
39C0
0C60
0000
0000
0F80
1FC0
38E0
3060
3060
3060
3FE0
3FE0
3060
3060
3060
3060
3060
3060
0000
0000
0000
0000
0000
ENDCHAR
STARTCHAR U+0201
ENCODING 513
SWIDTH 500 0
DWIDTH 12 0
BBX 12 24 0 -2
BITMAP 
0000
0000
0000
3180
39C0
0C60
0000
0000
0780
0FC0
1860
0060
07E0
1FE0
3060
30E0
31E0
3F60
1E60
0000
0000
0000
0000
0000
ENDCHAR
STARTCHAR U+0202
ENCODING 514
SWIDTH 500 0
DWIDTH 12 0
BBX 12 24 0 -2
BITMAP 
0F80
18C0
18C0
0000
0000
0F80
1FC0
38E0
3060
3060
3060
3FE0
3FE0
3060
3060
3060
3060
3060
3060
0000
0000
0000
0000
0000
ENDCHAR
STARTCHAR U+0203
ENCODING 515
SWIDTH 500 0
DWIDTH 12 0
BBX 12 24 0 -2
BITMAP 
0000
0000
0000
0F80
18C0
18C0
0000
0000
0780
0FC0
1860
0060
07E0
1FE0
3060
30E0
31E0
3F60
1E60
0000
0000
0000
0000
0000
ENDCHAR
STARTCHAR U+0204
ENCODING 516
SWIDTH 500 0
DWIDTH 12 0
BBX 12 24 0 -2
BITMAP 
3180
39C0
0C60
0000
0000
3FE0
3FE0
3000
3000
3000
3000
3F80
3F80
3000
3000
3000
3000
3FE0
3FE0
0000
0000
0000
0000
0000
ENDCHAR
STARTCHAR U+0205
ENCODING 517
SWIDTH 500 0
DWIDTH 12 0
BBX 12 24 0 -2
BITMAP 
0000
0000
0000
0000
3180
39C0
0C60
0000
0000
0F80
1FC0
3860
3060
3FE0
3FE0
3000
3060
1FE0
0FC0
0000
0000
0000
0000
0000
ENDCHAR
STARTCHAR U+0206
ENCODING 518
SWIDTH 500 0
DWIDTH 12 0
BBX 12 24 0 -2
BITMAP 
0F80
18C0
18C0
0000
0000
3FE0
3FE0
3000
3000
3000
3000
3F80
3F80
3000
3000
3000
3000
3FE0
3FE0
0000
0000
0000
0000
0000
ENDCHAR
STARTCHAR U+0207
ENCODING 519
SWIDTH 500 0
DWIDTH 12 0
BBX 12 24 0 -2
BITMAP 
0000
0000
0000
0000
0F80
18C0
18C0
0000
0000
0F80
1FC0
3860
3060
3FE0
3FE0
3000
3060
1FE0
0FC0
0000
0000
0000
0000
0000
ENDCHAR
STARTCHAR U+0208
ENCODING 520
SWIDTH 500 0
DWIDTH 12 0
BBX 12 24 0 -2
BITMAP 
6300
7380
18C0
0000
0000
1F80
1F80
0600
0600
0600
0600
0600
0600
0600
0600
0600
0600
1F80
1F80
0000
0000
0000
0000
0000
ENDCHAR
STARTCHAR U+0209
ENCODING 521
SWIDTH 500 0
DWIDTH 12 0
BBX 12 24 0 -2
BITMAP 
0000
0000
0000
0000
6300
7380
18C0
0000
0000
0600
0600
0600
0600
0600
0600
0600
0600
0600
0600
0000
0000
0000
0000
0000
ENDCHAR
STARTCHAR U+020A
ENCODING 522
SWIDTH 500 0
DWIDTH 12 0
BBX 12 24 0 -2
BITMAP 
0F00
1980
1980
0000
0000
1F80
1F80
0600
0600
0600
0600
0600
0600
0600
0600
0600
0600
1F80
1F80
0000
0000
0000
0000
0000
ENDCHAR
STARTCHAR U+020B
ENCODING 523
SWIDTH 500 0
DWIDTH 12 0
BBX 12 24 0 -2
BITMAP 
0000
0000
0000
0000
0F00
1980
1980
0000
0000
0600
0600
0600
0600
0600
0600
0600
0600
0600
0600
0000
0000
0000
0000
0000
ENDCHAR
STARTCHAR U+020C
ENCODING 524
SWIDTH 500 0
DWIDTH 12 0
BBX 12 24 0 -2
BITMAP 
3180
39C0
0C60
0000
0000
0F80
1FC0
38E0
3060
3060
3060
3060
3060
3060
3060
3060
38E0
1FC0
0F80
0000
0000
0000
0000
0000
ENDCHAR
STARTCHAR U+020D
ENCODING 525
SWIDTH 500 0
DWIDTH 12 0
BBX 12 24 0 -2
BITMAP 
0000
0000
0000
0000
3180
39C0
0C60
0000
0000
0F80
1FC0
38E0
3060
3060
3060
3060
38E0
1FC0
0F80
0000
0000
0000
0000
0000
ENDCHAR
STARTCHAR U+020E
ENCODING 526
SWIDTH 500 0
DWIDTH 12 0
BBX 12 24 0 -2
BITMAP 
0F80
18C0
18C0
0000
0000
0F80
1FC0
38E0
3060
3060
3060
3060
3060
3060
3060
3060
38E0
1FC0
0F80
0000
0000
0000
0000
0000
ENDCHAR
STARTCHAR U+020F
ENCODING 527
SWIDTH 500 0
DWIDTH 12 0
BBX 12 24 0 -2
BITMAP 
0000
0000
0000
0000
0F80
18C0
18C0
0000
0000
0F80
1FC0
38E0
3060
3060
3060
3060
38E0
1FC0
0F80
0000
0000
0000
0000
0000
ENDCHAR
STARTCHAR U+0210
ENCODING 528
SWIDTH 500 0
DWIDTH 12 0
BBX 12 24 0 -2
BITMAP 
3180
39C0
0C60
0000
0000
3F80
3FC0
30E0
3060
3060
30E0
3FC0
3F80
3180
3180
30C0
30C0
3060
3060
0000
0000
0000
0000
0000
ENDCHAR
STARTCHAR U+0211
ENCODING 529
SWIDTH 500 0
DWIDTH 12 0
BBX 12 24 0 -2
BITMAP 
0000
0000
0000
0000
3180
39C0
0C60
0000
0000
3380
37C0
3C60
3860
3000
3000
3000
3000
3000
3000
0000
0000
0000
0000
0000
ENDCHAR
STARTCHAR U+0212
ENCODING 530
SWIDTH 500 0
DWIDTH 12 0
BBX 12 24 0 -2
BITMAP 
0F80
18C0
18C0
0000
0000
3F80
3FC0
30E0
3060
3060
30E0
3FC0
3F80
3180
3180
30C0
30C0
3060
3060
0000
0000
0000
0000
0000
ENDCHAR
STARTCHAR U+0213
ENCODING 531
SWIDTH 500 0
DWIDTH 12 0
BBX 12 24 0 -2
BITMAP 
0000
0000
0000
0000
0F80
18C0
18C0
0000
0000
3380
37C0
3C60
3860
3000
3000
3000
3000
3000
3000
0000
0000
0000
0000
0000
ENDCHAR
STARTCHAR U+0214
ENCODING 532
SWIDTH 500 0
DWIDTH 12 0
BBX 12 24 0 -2
BITMAP 
3180
39C0
0C60
0000
0000
3060
3060
3060
3060
3060
3060
3060
3060
3060
3060
3060
38E0
1FC0
0F80
0000
0000
0000
0000
0000
ENDCHAR
STARTCHAR U+0215
ENCODING 533
SWIDTH 500 0
DWIDTH 12 0
BBX 12 24 0 -2
BITMAP 
0000
0000
0000
0000
3180
39C0
0C60
0000
0000
3060
3060
3060
3060
3060
3060
30E0
39E0
1F60
0E60
0000
0000
0000
0000
0000
ENDCHAR
STARTCHAR U+0216
ENCODING 534
SWIDTH 500 0
DWIDTH 12 0
BBX 12 24 0 -2
BITMAP 
0F80
18C0
18C0
0000
0000
3060
3060
3060
3060
3060
3060
3060
3060
3060
3060
3060
38E0
1FC0
0F80
0000
0000
0000
0000
0000
ENDCHAR
STARTCHAR U+0217
ENCODING 535
SWIDTH 500 0
DWIDTH 12 0
BBX 12 24 0 -2
BITMAP 
0000
0000
0000
0000
0F80
18C0
18C0
0000
0000
3060
3060
3060
3060
3060
3060
30E0
39E0
1F60
0E60
0000
0000
0000
0000
0000
ENDCHAR
STARTCHAR U+0250
ENCODING 592
SWIDTH 500 0
DWIDTH 12 0
BBX 12 24 0 -2
BITMAP 
0000
0000
0000
0000
0000
0000
0000
0000
0000
37C0
3FE0
3860
3060
3FC0
3F80
3000
3060
1FC0
0F80
0000
0000
0000
0000
0000
ENDCHAR
STARTCHAR U+0251
ENCODING 593
SWIDTH 500 0
DWIDTH 12 0
BBX 12 24 0 -2
BITMAP 
0000
0000
0000
0000
0000
0000
0000
0000
0000
0F60
1FE0
30E0
3060
3060
3060
30E0
31E0
1F60
0E60
0000
0000
0000
0000
0000
ENDCHAR
STARTCHAR U+0252
ENCODING 594
SWIDTH 500 0
DWIDTH 12 0
BBX 12 24 0 -2
BITMAP 
0000
0000
0000
0000
0000
0000
0000
0000
0000
3380
37C0
3C60
3860
3060
3060
3060
3860
3FC0
3780
0000
0000
0000
0000
0000
ENDCHAR
STARTCHAR U+0253
ENCODING 595
SWIDTH 500 0
DWIDTH 12 0
BBX 12 24 0 -2
BITMAP 
0000
0000
0000
0000
1C00
3C00
3000
3000
3000
3380
37C0
3CE0
3860
3060
3060
3860
3CE0
37C0
3380
0000
0000
0000
0000
0000
ENDCHAR
STARTCHAR U+0254
ENCODING 596
SWIDTH 500 0
DWIDTH 12 0
BBX 12 24 0 -2
BITMAP 
0000
0000
0000
0000
0000
0000
0000
0000
0000
1F80
3FC0
30E0
0060
0060
0060
3060
30E0
1FC0
1F80
0000
0000
0000
0000
0000
ENDCHAR
STARTCHAR U+0255
ENCODING 597
SWIDTH 500 0
DWIDTH 12 0
BBX 12 24 0 -2
BITMAP 
0000
0000
0000
0000
0000
0000
0000
0000
0000
0FC0
1FC0
3860
3060
3000
31C0
33E0
3E60
1FE0
0FC0
1800
0000
0000
0000
0000
ENDCHAR
STARTCHAR U+0256
ENCODING 598
SWIDTH 500 0
DWIDTH 12 0
BBX 12 24 0 -2
BITMAP 
0000
0000
0000
0000
0000
0180
0180
0180
0180
1D80
3F80
7380
6180
6180
6180
6380
6780
3D80
19E0
00E0
0000
0000
0000
0000
ENDCHAR
STARTCHAR U+0257
ENCODING 599
SWIDTH 500 0
DWIDTH 12 0
BBX 12 24 0 -2
BITMAP 
0000
0000
0000
0000
00E0
01E0
0180
0180
0180
1D80
3F80
7380
6180
6180
6180
6380
6780
3D80
1980
0000
0000
0000
0000
0000
ENDCHAR
STARTCHAR U+0258
ENCODING 600
SWIDTH 500 0
DWIDTH 12 0
BBX 12 24 0 -2
BITMAP 
0000
0000
0000
0000
0000
0000
0000
0000
0000
0F80
1FC0
30E0
3060
3FE0
3FE0
0060
3060
3FC0
1F80
0000
0000
0000
0000
0000
ENDCHAR
STARTCHAR U+0259
ENCODING 601
SWIDTH 500 0
DWIDTH 12 0
BBX 12 24 0 -2
BITMAP 
0000
0000
0000
0000
0000
0000
0000
0000
0000
1F80
3FC0
3060
0060
3FE0
3FE0
3060
30E0
1FC0
0F80
0000
0000
0000
0000
0000
ENDCHAR
STARTCHAR U+025A
ENCODING 602
SWIDTH 500 0
DWIDTH 12 0
BBX 12 24 0 -2
BITMAP 
0000
0000
0000
0000
0000
0000
0000
0000
0060
3EE0
7F80
6180
0180
7F80
7F80
6180
6380
3F00
1E00
0000
0000
0000
0000
0000
ENDCHAR
STARTCHAR U+025B
ENCODING 603
SWIDTH 500 0
DWIDTH 12 0
BBX 12 24 0 -2
BITMAP 
0000
0000
0000
0000
0000
0000
0000
0000
0000
0F80
1FC0
3060
3000
1F00
1F00
3000
3060
1FC0
0F80
0000
0000
0000
0000
0000
ENDCHAR
STARTCHAR U+025C
ENCODING 604
SWIDTH 500 0
DWIDTH 12 0
BBX 12 24 0 -2
BITMAP 
0000
0000
0000
0000
0000
0000
0000
0000
0000
0F80
1FC0
3060
0060
07C0
07C0
0060
3060
1FC0
0F80
0000
0000
0000
0000
0000
ENDCHAR
STARTCHAR U+025D
ENCODING 605
SWIDTH 500 0
DWIDTH 12 0
BBX 12 24 0 -2
BITMAP 
0000
0000
0000
0000
0000
0000
0000
0000
0060
1EE0
3F80
6180
0180
0F00
0F00
0180
6180
3F00
1E00
0000
0000
0000
0000
0000
ENDCHAR
STARTCHAR U+025E
ENCODING 606
SWIDTH 500 0
DWIDTH 12 0
BBX 12 24 0 -2
BITMAP 
0000
0000
0000
0000
0000
0000
0000
0000
0000
0F80
1FC0
3060
3060
37C0
37C0
3060
3060
1FC0
0F80
0000
0000
0000
0000
0000
ENDCHAR
STARTCHAR U+025F
ENCODING 607
SWIDTH 500 0
DWIDTH 12 0
BBX 12 24 0 -2
BITMAP 
0000
0000
0000
0000
0000
0000
0000
0000
0000
0600
0600
0600
0600
0600
0600
0600
3FC0
3FC0
0600
0600
0600
3E00
3800
0000
ENDCHAR
STARTCHAR U+0260
ENCODING 608
SWIDTH 500 0
DWIDTH 12 0
BBX 12 24 0 -2
BITMAP 
0000
0000
0000
0000
0000
0000
0000
0060
00E0
1980
3D80
7780
6380
6180
6180
6180
7380
3F80
1D80
0180
0180
0180
7F00
3E00
ENDCHAR
STARTCHAR U+0261
ENCODING 609
SWIDTH 500 0
DWIDTH 12 0
BBX 12 24 0 -2
BITMAP 
0000
0000
0000
0000
0000
0000
0000
0000
0000
0E60
1F60
39E0
30E0
3060
3060
3060
38E0
1FE0
0F60
0060
0060
0060
1FC0
0F80
ENDCHAR
STARTCHAR U+0262
ENCODING 610
SWIDTH 500 0
DWIDTH 12 0
BBX 12 24 0 -2
BITMAP 
0000
0000
0000
0000
0000
0000
0000
0000
0000
0F80
1FC0
38E0
3000
3000
31E0
31E0
3860
1FE0
0FC0
0000
0000
0000
0000
0000
ENDCHAR
STARTCHAR U+0263
ENCODING 611
SWIDTH 500 0
DWIDTH 12 0
BBX 12 24 0 -2
BITMAP 
0000
0000
0000
0000
0000
0000
0000
0000
0000
3060
38E0
0D80
0700
0F80
18C0
18C0
18C0
18C0
0F80
0700
0000
0000
0000
0000
ENDCHAR
STARTCHAR U+0264
ENCODING 612
SWIDTH 500 0
DWIDTH 12 0
BBX 12 24 0 -2
BITMAP 
0000
0000
0000
0000
0000
0000
0000
0000
0000
3060
38E0
18C0
0D80
0D80
0700
0F80
0D80
0F80
0700
0000
0000
0000
0000
0000
ENDCHAR
STARTCHAR U+0265
ENCODING 613
SWIDTH 500 0
DWIDTH 12 0
BBX 12 24 0 -2
BITMAP 
0000
0000
0000
0000
0000
0000
0000
0000
0000
3060
3060
3060
3060
3060
3060
30E0
39E0
1F60
0E60
0060
0060
0060
0060
0060
ENDCHAR
STARTCHAR U+0266
ENCODING 614
SWIDTH 500 0
DWIDTH 12 0
BBX 12 24 0 -2
BITMAP 
0000
0000
0000
0000
0E00
1E00
3000
3000
3000
3380
37C0
3CE0
3860
3060
3060
3060
3060
3060
3060
0000
0000
0000
0000
0000
ENDCHAR
STARTCHAR U+0267
ENCODING 615
SWIDTH 500 0
DWIDTH 12 0
BBX 12 24 0 -2
BITMAP 
0000
0000
0000
0000
0E00
1E00
3000
3000
3000
3380
37C0
3CE0
3860
3060
3060
3060
3060
3060
3060
0060
0060
0060
07C0
0380
ENDCHAR
STARTCHAR U+0268
ENCODING 616
SWIDTH 500 0
DWIDTH 12 0
BBX 12 24 0 -2
BITMAP 
0000
0000
0000
0000
0000
0600
0600
0000
0000
0600
0600
0600
0600
1F80
1F80
0600
0600
0600
0600
0000
0000
0000
0000
0000
ENDCHAR
STARTCHAR U+0269
ENCODING 617
SWIDTH 500 0
DWIDTH 12 0
BBX 12 24 0 -2
BITMAP 
0000
0000
0000
0000
0000
0000
0000
0000
0000
0600
0600
0600
0600
0600
0600
0600
0600
0780
0380
0000
0000
0000
0000
0000
ENDCHAR
STARTCHAR U+026A
ENCODING 618
SWIDTH 500 0
DWIDTH 12 0
BBX 12 24 0 -2
BITMAP 
0000
0000
0000
0000
0000
0000
0000
0000
0000
1F80
1F80
0600
0600
0600
0600
0600
0600
1F80
1F80
0000
0000
0000
0000
0000
ENDCHAR
STARTCHAR U+026B
ENCODING 619
SWIDTH 500 0
DWIDTH 12 0
BBX 12 24 0 -2
BITMAP 
0000
0000
0000
0000
0000
0600
0600
0600
0600
0600
1E40
36C0
2780
0600
0600
0600
0600
0780
0380
0000
0000
0000
0000
0000
ENDCHAR
STARTCHAR U+026C
ENCODING 620
SWIDTH 500 0
DWIDTH 12 0
BBX 12 24 0 -2
BITMAP 
0000
0000
0000
0000
0000
0600
0600
0600
0600
3600
7E00
6600
7FC0
3FC0
0600
0600
0600
0780
0380
0000
0000
0000
0000
0000
ENDCHAR
STARTCHAR U+026D
ENCODING 621
SWIDTH 500 0
DWIDTH 12 0
BBX 12 24 0 -2
BITMAP 
0000
0000
0000
0000
0000
0600
0600
0600
0600
0600
0600
0600
0600
0600
0600
0600
0600
0600
0600
0600
03C0
01C0
0000
0000
ENDCHAR
STARTCHAR U+026E
ENCODING 622
SWIDTH 500 0
DWIDTH 12 0
BBX 12 24 0 -2
BITMAP 
0000
0000
0000
0000
0000
3000
3000
3000
3000
3FC0
3FC0
30C0
3180
3300
3780
37C0
30E0
3C60
1C60
0060
00E0
0FC0
0780
0000
ENDCHAR
STARTCHAR U+026F
ENCODING 623
SWIDTH 500 0
DWIDTH 12 0
BBX 12 24 0 -2
BITMAP 
0000
0000
0000
0000
0000
0000
0000
0000
0000
6660
6660
6660
6660
6660
6660
6660
6660
7FE0
3B60
0000
0000
0000
0000
0000
ENDCHAR
STARTCHAR U+0270
ENCODING 624
SWIDTH 500 0
DWIDTH 12 0
BBX 12 24 0 -2
BITMAP 
0000
0000
0000
0000
0000
0000
0000
0000
0000
6660
6660
6660
6660
6660
6660
6660
6660
7FE0
3B60
0060
0060
0060
0060
0000
ENDCHAR
STARTCHAR U+0271
ENCODING 625
SWIDTH 500 0
DWIDTH 12 0
BBX 12 24 0 -2
BITMAP 
0000
0000
0000
0000
0000
0000
0000
0000
0000
6DC0
7FE0
6660
6660
6660
6660
6660
6660
6660
6660
0060
01E0
01C0
0000
0000
ENDCHAR
STARTCHAR U+0272
ENCODING 626
SWIDTH 500 0
DWIDTH 12 0
BBX 12 24 0 -2
BITMAP 
0000
0000
0000
0000
0000
0000
0000
0000
0000
1980
1BC0
1EE0
1C60
1860
1860
1860
1860
1860
1860
1800
1800
7800
7000
0000
ENDCHAR
STARTCHAR U+0273
ENCODING 627
SWIDTH 500 0
DWIDTH 12 0
BBX 12 24 0 -2
BITMAP 
0000
0000
0000
0000
0000
0000
0000
0000
0000
6600
6F00
7B80
7180
6180
6180
6180
6180
6180
6180
0180
0180
01E0
00E0
0000
ENDCHAR
STARTCHAR U+0274
ENCODING 628
SWIDTH 500 0
DWIDTH 12 0
BBX 12 24 0 -2
BITMAP 
0000
0000
0000
0000
0000
0000
0000
0000
0000
3060
3060
3860
3C60
3660
3360
31E0
30E0
3060
3060
0000
0000
0000
0000
0000
ENDCHAR
STARTCHAR U+0275
ENCODING 629
SWIDTH 500 0
DWIDTH 12 0
BBX 12 24 0 -2
BITMAP 
0000
0000
0000
0000
0000
0000
0000
0000
0000
0F80
1FC0
38E0
3060
3FE0
3FE0
3060
38E0
1FC0
0F80
0000
0000
0000
0000
0000
ENDCHAR
STARTCHAR U+0276
ENCODING 630
SWIDTH 500 0
DWIDTH 12 0
BBX 12 24 0 -2
BITMAP 
0000
0000
0000
0000
0000
0000
0000
0000
0000
3FE0
7FE0
6600
6600
67C0
67C0
6600
6600
7FE0
3FE0
0000
0000
0000
0000
0000
ENDCHAR
STARTCHAR U+0277
ENCODING 631
SWIDTH 500 0
DWIDTH 12 0
BBX 12 24 0 -2
BITMAP 
0000
0000
0000
0000
0000
0000
0000
0000
0000
1F80
3FC0
6060
6060
6660
6660
6660
6660
3FC0
1980
0000
0000
0000
0000
0000
ENDCHAR
STARTCHAR U+0278
ENCODING 632
SWIDTH 500 0
DWIDTH 12 0
BBX 12 24 0 -2
BITMAP 
0000
0000
0000
0000
0000
0600
0600
0600
0600
1F80
3FC0
76E0
6660
6660
6660
6660
76E0
3FC0
1F80
0600
0600
0600
0600
0000
ENDCHAR
STARTCHAR U+0279
ENCODING 633
SWIDTH 500 0
DWIDTH 12 0
BBX 12 24 0 -2
BITMAP 
0000
0000
0000
0000
0000
0000
0000
0000
0000
0060
0060
0060
0060
0060
0060
30E0
31E0
1F60
0E60
0000
0000
0000
0000
0000
ENDCHAR
STARTCHAR U+027A
ENCODING 634
SWIDTH 500 0
DWIDTH 12 0
BBX 12 24 0 -2
BITMAP 
0000
0000
0000
0000
0000
0060
0060
0060
0060
0060
0060
0060
0060
0060
0060
30E0
31E0
1F60
0E60
0000
0000
0000
0000
0000
ENDCHAR
STARTCHAR U+027B
ENCODING 635
SWIDTH 500 0
DWIDTH 12 0
BBX 12 24 0 -2
BITMAP 
0000
0000
0000
0000
0000
0000
0000
0000
0000
0180
0180
0180
0180
0180
0180
6380
6780
3D80
18E0
0060
0000
0000
0000
0000
ENDCHAR
STARTCHAR U+027C
ENCODING 636
SWIDTH 500 0
DWIDTH 12 0
BBX 12 24 0 -2
BITMAP 
0000
0000
0000
0000
0000
3380
37C0
3C60
3860
3000
3000
3000
3000
3000
3000
3000
3000
3000
3000
0000
0000
0000
0000
0000
ENDCHAR
STARTCHAR U+027D
ENCODING 637
SWIDTH 500 0
DWIDTH 12 0
BBX 12 24 0 -2
BITMAP 
0000
0000
0000
0000
0000
0000
0000
0000
0000
3380
37C0
3C60
3860
3000
3000
3000
3000
3000
3000
3000
1E00
0E00
0000
0000
ENDCHAR
STARTCHAR U+027E
ENCODING 638
SWIDTH 500 0
DWIDTH 12 0
BBX 12 24 0 -2
BITMAP 
0000
0000
0000
0000
0000
0000
0000
0000
0000
0F00
1F80
30C0
30C0
3000
3000
3000
3000
3000
3000
0000
0000
0000
0000
0000
ENDCHAR
STARTCHAR U+027F
ENCODING 639
SWIDTH 500 0
DWIDTH 12 0
BBX 12 24 0 -2
BITMAP 
0000
0000
0000
0000
0000
0000
0000
0000
0000
0F00
1F80
30C0
30C0
00C0
00C0
00C0
00C0
00C0
00C0
0000
0000
0000
0000
0000
ENDCHAR
STARTCHAR U+0280
ENCODING 640
SWIDTH 500 0
DWIDTH 12 0
BBX 12 24 0 -2
BITMAP 
0000
0000
0000
0000
0000
0000
0000
0000
0000
3FC0
3FE0
3060
3060
3FE0
3FC0
3180
31C0
30E0
3060
0000
0000
0000
0000
0000
ENDCHAR
STARTCHAR U+0281
ENCODING 641
SWIDTH 500 0
DWIDTH 12 0
BBX 12 24 0 -2
BITMAP 
0000
0000
0000
0000
0000
0000
0000
0000
0000
3060
30E0
31C0
3180
3FC0
3FE0
3060
3060
3FE0
3FC0
0000
0000
0000
0000
0000
ENDCHAR
STARTCHAR U+0282
ENCODING 642
SWIDTH 500 0
DWIDTH 12 0
BBX 12 24 0 -2
BITMAP 
0000
0000
0000
0000
0000
0000
0000
0000
0000
1FC0
3FE0
3020
3000
1F80
0FC0
0060
0060
3FE0
3FC0
3000
3000
1E00
0E00
0000
ENDCHAR
STARTCHAR U+0283
ENCODING 643
SWIDTH 500 0
DWIDTH 12 0
BBX 12 24 0 -2
BITMAP 
0000
0000
0000
0000
0000
01C0
03C0
0700
0600
0600
0600
0600
0600
0600
0600
0600
0600
0600
0600
0600
0E00
3C00
3800
0000
ENDCHAR
STARTCHAR U+0284
ENCODING 644
SWIDTH 500 0
DWIDTH 12 0
BBX 12 24 0 -2
BITMAP 
0000
0000
0000
0000
0000
01C0
03C0
0700
0600
0600
3FC0
3FC0
0600
0600
0600
0600
3FC0
3FC0
0600
0600
0E00
3C00
3800
0000
ENDCHAR
STARTCHAR U+0285
ENCODING 645
SWIDTH 500 0
DWIDTH 12 0
BBX 12 24 0 -2
BITMAP 
0000
0000
0000
0000
0000
0000
0000
0000
0000
3800
3C00
0E00
0600
0600
0600
0600
0600
0600
0600
0600
0700
03C0
01C0
0000
ENDCHAR
STARTCHAR U+0286
ENCODING 646
SWIDTH 500 0
DWIDTH 12 0
BBX 12 24 0 -2
BITMAP 
0000
0000
0000
0000
0000
00E0
01E0
0380
0300
0300
0300
0300
0300
0300
0300
0300
0300
1B00
3F00
3700
3380
3FE0
1C60
0000
ENDCHAR
STARTCHAR U+0287
ENCODING 647
SWIDTH 500 0
DWIDTH 12 0
BBX 12 24 0 -2
BITMAP 
0000
0000
0000
0000
0000
0000
1C00
1E00
0600
0600
0600
0600
0600
0600
1F80
1F80
0600
0600
0600
0000
0000
0000
0000
0000
ENDCHAR
STARTCHAR U+0288
ENCODING 648
SWIDTH 500 0
DWIDTH 12 0
BBX 12 24 0 -2
BITMAP 
0000
0000
0000
0000
0000
0000
0600
0600
0600
1F80
1F80
0600
0600
0600
0600
0600
0600
0600
0600
0600
03C0
01C0
0000
0000
ENDCHAR
STARTCHAR U+0289
ENCODING 649
SWIDTH 500 0
DWIDTH 12 0
BBX 12 24 0 -2
BITMAP 
0000
0000
0000
0000
0000
0000
0000
0000
0000
30C0
30C0
30C0
7FE0
7FE0
30C0
30C0
39C0
1FC0
0EC0
0000
0000
0000
0000
0000
ENDCHAR
STARTCHAR U+028A
ENCODING 650
SWIDTH 500 0
DWIDTH 12 0
BBX 12 24 0 -2
BITMAP 
0000
0000
0000
0000
0000
0000
0000
0000
0000
3DE0
3DE0
0D80
0D80
18C0
3060
3060
38E0
1FC0
0F80
0000
0000
0000
0000
0000
ENDCHAR
STARTCHAR U+028B
ENCODING 651
SWIDTH 500 0
DWIDTH 12 0
BBX 12 24 0 -2
BITMAP 
0000
0000
0000
0000
0000
0000
0000
0000
0000
38C0
38E0
1860
1860
1860
18C0
18C0
1980
1F80
0E00
0000
0000
0000
0000
0000
ENDCHAR
STARTCHAR U+028C
ENCODING 652
SWIDTH 500 0
DWIDTH 12 0
BBX 12 24 0 -2
BITMAP 
0000
0000
0000
0000
0000
0000
0000
0000
0000
0700
0700
0D80
0D80
18C0
18C0
18C0
3060
3060
3060
0000
0000
0000
0000
0000
ENDCHAR
STARTCHAR U+028D
ENCODING 653
SWIDTH 500 0
DWIDTH 12 0
BBX 12 24 0 -2
BITMAP 
0000
0000
0000
0000
0000
0000
0000
0000
0000
18C0
18C0
18C0
1DC0
3760
3760
3760
3260
3060
3060
0000
0000
0000
0000
0000
ENDCHAR
STARTCHAR U+028E
ENCODING 654
SWIDTH 500 0
DWIDTH 12 0
BBX 12 24 0 -2
BITMAP 
0000
0000
0000
0000
0000
00C0
01C0
0180
0380
0300
0700
0700
0F80
0D80
1DC0
18C0
38E0
3060
3060
0000
0000
0000
0000
0000
ENDCHAR
STARTCHAR U+028F
ENCODING 655
SWIDTH 500 0
DWIDTH 12 0
BBX 12 24 0 -2
BITMAP 
0000
0000
0000
0000
0000
0000
0000
0000
0000
6060
70E0
39C0
1F80
0F00
0600
0600
0600
0600
0600
0000
0000
0000
0000
0000
ENDCHAR
STARTCHAR U+0290
ENCODING 656
SWIDTH 500 0
DWIDTH 12 0
BBX 12 24 0 -2
BITMAP 
0000
0000
0000
0000
0000
0000
0000
0000
0000
3F80
3F80
0180
0300
0600
0C00
1800
3000
3F80
3F80
0180
00E0
0060
0000
0000
ENDCHAR
STARTCHAR U+0291
ENCODING 657
SWIDTH 500 0
DWIDTH 12 0
BBX 12 24 0 -2
BITMAP 
0000
0000
0000
0000
0000
0000
0000
0000
0000
3FC0
3FC0
0180
0300
0600
0C00
19C0
3360
3F60
3FC0
0600
0C00
0000
0000
0000
ENDCHAR
STARTCHAR U+0292
ENCODING 658
SWIDTH 500 0
DWIDTH 12 0
BBX 12 24 0 -2
BITMAP 
0000
0000
0000
0000
0000
0000
0000
0000
0000
1F80
1F80
0180
0300
0600
0F00
0F80
01C0
00C0
00C0
00C0
31C0
3F80
1F00
0000
ENDCHAR
STARTCHAR U+0293
ENCODING 659
SWIDTH 500 0
DWIDTH 12 0
BBX 12 24 0 -2
BITMAP 
0000
0000
0000
0000
0000
0000
0000
0000
0000
1F80
1F80
0180
0300
0600
0F00
0F80
01C0
00C0
1CC0
3EC0
3380
3FC0
1F40
0000
ENDCHAR
STARTCHAR U+0294
ENCODING 660
SWIDTH 500 0
DWIDTH 12 0
BBX 12 24 0 -2
BITMAP 
0000
0000
0000
0000
0000
0E00
1F00
1980
0180
0180
0180
0180
0380
0700
0600
0600
0600
0600
0600
0000
0000
0000
0000
0000
ENDCHAR
STARTCHAR U+0295
ENCODING 661
SWIDTH 500 0
DWIDTH 12 0
BBX 12 24 0 -2
BITMAP 
0000
0000
0000
0000
0000
0700
0F80
1980
1800
1800
1800
1800
1C00
0E00
0600
0600
0600
0600
0600
0000
0000
0000
0000
0000
ENDCHAR
STARTCHAR U+0296
ENCODING 662
SWIDTH 500 0
DWIDTH 12 0
BBX 12 24 0 -2
BITMAP 
0000
0000
0000
0000
0000
0600
0600
0600
0600
0600
0700
0380
0180
0180
0180
0180
1980
1F00
0E00
0000
0000
0000
0000
0000
ENDCHAR
STARTCHAR U+0297
ENCODING 663
SWIDTH 500 0
DWIDTH 12 0
BBX 12 24 0 -2
BITMAP 
0000
0000
0000
0000
0000
0F00
1F80
39C0
30C0
3000
3000
3000
3000
3000
3000
30C0
39C0
1F80
0F00
0000
0000
0000
0000
0000
ENDCHAR
STARTCHAR U+0298
ENCODING 664
SWIDTH 500 0
DWIDTH 12 0
BBX 12 24 0 -2
BITMAP 
0000
0000
0000
0000
0000
0000
0000
0000
0000
0F80
1FC0
38E0
3060
3760
3760
3060
38E0
1FC0
0F80
0000
0000
0000
0000
0000
ENDCHAR
STARTCHAR U+0299
ENCODING 665
SWIDTH 500 0
DWIDTH 12 0
BBX 12 24 0 -2
BITMAP 
0000
0000
0000
0000
0000
0000
0000
0000
0000
3F00
3F80
30C0
30C0
3F80
3FC0
30E0
3060
3FC0
3F80
0000
0000
0000
0000
0000
ENDCHAR
STARTCHAR U+029A
ENCODING 666
SWIDTH 500 0
DWIDTH 12 0
BBX 12 24 0 -2
BITMAP 
0000
0000
0000
0000
0000
0000
0000
0000
0000
0F80
1FC0
3060
3060
1F60
1F60
3060
3060
1FC0
0F80
0000
0000
0000
0000
0000
ENDCHAR
STARTCHAR U+029B
ENCODING 667
SWIDTH 500 0
DWIDTH 12 0
BBX 12 24 0 -2
BITMAP 
0000
0000
0000
0000
0000
0000
00E0
01E0
0180
1F80
3F80
7000
6000
6000
63C0
63C0
70C0
3FC0
1F80
0000
0000
0000
0000
0000
ENDCHAR
STARTCHAR U+029C
ENCODING 668
SWIDTH 500 0
DWIDTH 12 0
BBX 12 24 0 -2
BITMAP 
0000
0000
0000
0000
0000
0000
0000
0000
0000
3060
3060
3060
3060
3FE0
3FE0
3060
3060
3060
3060
0000
0000
0000
0000
0000
ENDCHAR
STARTCHAR U+029D
ENCODING 669
SWIDTH 500 0
DWIDTH 12 0
BBX 12 24 0 -2
BITMAP 
0000
0000
0000
0000
0000
0300
0300
0000
0000
0300
0300
0300
0300
0300
0300
0300
0300
0FC0
1FC0
3300
3300
1E00
0C00
0000
ENDCHAR
STARTCHAR U+029E
ENCODING 670
SWIDTH 500 0
DWIDTH 12 0
BBX 12 24 0 -2
BITMAP 
0000
0000
0000
0000
0000
0000
0000
0000
30C0
38C0
1CC0
0EC0
07C0
03C0
07C0
0EC0
1CC0
38C0
30C0
00C0
00C0
0000
0000
0000
ENDCHAR
STARTCHAR U+029F
ENCODING 671
SWIDTH 500 0
DWIDTH 12 0
BBX 12 24 0 -2
BITMAP 
0000
0000
0000
0000
0000
0000
0000
0000
0000
3000
3000
3000
3000
3000
3000
3000
3000
3FE0
3FE0
0000
0000
0000
0000
0000
ENDCHAR
STARTCHAR U+02A0
ENCODING 672
SWIDTH 500 0
DWIDTH 12 0
BBX 12 24 0 -2
BITMAP 
0000
0000
0000
0000
0000
0000
0000
0060
00E0
1980
3D80
7780
6380
6180
6180
6380
7780
3D80
1980
0180
0180
0180
0180
0000
ENDCHAR
STARTCHAR U+02A1
ENCODING 673
SWIDTH 500 0
DWIDTH 12 0
BBX 12 24 0 -2
BITMAP 
0000
0000
0000
0000
0000
0E00
1F00
1980
0180
0180
0180
0180
0380
0700
0600
3FC0
3FC0
0600
0600
0000
0000
0000
0000
0000
ENDCHAR
STARTCHAR U+02A2
ENCODING 674
SWIDTH 500 0
DWIDTH 12 0
BBX 12 24 0 -2
BITMAP 
0000
0000
0000
0000
0000
0700
0F80
1980
1800
1800
1800
1800
1C00
0E00
0600
3FC0
3FC0
0600
0600
0000
0000
0000
0000
0000
ENDCHAR
STARTCHAR U+02A3
ENCODING 675
SWIDTH 500 0
DWIDTH 12 0
BBX 12 24 0 -2
BITMAP 
0000
0000
0000
0000
0000
0C00
0C00
0C00
0C00
3FE0
7FE0
6C60
6C60
6CC0
6CC0
6D80
6D80
7FE0
37E0
0000
0000
0000
0000
0000
ENDCHAR
STARTCHAR U+02A4
ENCODING 676
SWIDTH 500 0
DWIDTH 12 0
BBX 12 24 0 -2
BITMAP 
0000
0000
0000
0000
0000
0C00
0C00
0C00
0C00
3FC0
7FC0
6CC0
6D80
6F00
6FC0
6CE0
6C60
7E60
3660
0060
00E0
0FC0
0780
0000
ENDCHAR
STARTCHAR U+02A5
ENCODING 677
SWIDTH 500 0
DWIDTH 12 0
BBX 12 24 0 -2
BITMAP 
0000
0000
0000
0000
0000
0C00
0C00
0C00
0C00
3FE0
7FE0
6C60
6CC0
6D80
6F80
6FE0
6F60
7FE0
37C0
0300
0600
0000
0000
0000
ENDCHAR
STARTCHAR U+02A6
ENCODING 678
SWIDTH 500 0
DWIDTH 12 0
BBX 12 24 0 -2
BITMAP 
0000
0000
0000
0000
0000
0000
3000
3000
3000
7FC0
7FE0
3620
3600
3380
31C0
3060
3060
3FE0
1FC0
0000
0000
0000
0000
0000
ENDCHAR
STARTCHAR U+02A7
ENCODING 679
SWIDTH 500 0
DWIDTH 12 0
BBX 12 24 0 -2
BITMAP 
0000
0000
0000
0000
0060
00E0
1980
1980
1980
7F80
7F80
1980
1980
1980
1980
1980
1980
1F80
0F80
0180
0180
0700
0600
0000
ENDCHAR
STARTCHAR U+02A8
ENCODING 680
SWIDTH 500 0
DWIDTH 12 0
BBX 12 24 0 -2
BITMAP 
0000
0000
0000
0000
0000
0000
3000
3000
3000
7BC0
7FE0
3620
3600
3600
36C0
37E0
3760
3FE0
1FC0
0000
0000
0000
0000
0000
ENDCHAR
STARTCHAR U+02B0
ENCODING 688
SWIDTH 500 0
DWIDTH 12 0
BBX 12 24 0 -2
BITMAP 
1800
1800
1800
1B00
1F80
1D80
1980
1980
1980
1980
0000
0000
0000
0000
0000
0000
0000
0000
0000
0000
0000
0000
0000
0000
ENDCHAR
STARTCHAR U+02B1
ENCODING 689
SWIDTH 500 0
DWIDTH 12 0
BBX 12 24 0 -2
BITMAP 
0E00
1E00
1800
1B00
1F80
1D80
1980
1980
1980
1980
0000
0000
0000
0000
0000
0000
0000
0000
0000
0000
0000
0000
0000
0000
ENDCHAR
STARTCHAR U+02B2
ENCODING 690
SWIDTH 500 0
DWIDTH 12 0
BBX 12 24 0 -2
BITMAP 
0300
0300
0000
0300
0300
0300
0300
0300
0F00
0E00
0000
0000
0000
0000
0000
0000
0000
0000
0000
0000
0000
0000
0000
0000
ENDCHAR
STARTCHAR U+02B3
ENCODING 691
SWIDTH 500 0
DWIDTH 12 0
BBX 12 24 0 -2
BITMAP 
1B00
1F80
1D80
1800
1800
1800
1800
1800
0000
0000
0000
0000
0000
0000
0000
0000
0000
0000
0000
0000
0000
0000
0000
0000
ENDCHAR
STARTCHAR U+02B4
ENCODING 692
SWIDTH 500 0
DWIDTH 12 0
BBX 12 24 0 -2
BITMAP 
0180
0180
0180
0180
0180
1B80
1F80
0D80
0000
0000
0000
0000
0000
0000
0000
0000
0000
0000
0000
0000
0000
0000
0000
0000
ENDCHAR
STARTCHAR U+02B5
ENCODING 693
SWIDTH 500 0
DWIDTH 12 0
BBX 12 24 0 -2
BITMAP 
0180
0180
0180
0180
0180
1B80
1F80
0D80
0180
01C0
00C0
0000
0000
0000
0000
0000
0000
0000
0000
0000
0000
0000
0000
0000
ENDCHAR
STARTCHAR U+02B6
ENCODING 694
SWIDTH 500 0
DWIDTH 12 0
BBX 12 24 0 -2
BITMAP 
18C0
1980
1980
1B00
1F00
1F00
1980
1980
1F80
1F00
0000
0000
0000
0000
0000
0000
0000
0000
0000
0000
0000
0000
0000
0000
ENDCHAR
STARTCHAR U+02B7
ENCODING 695
SWIDTH 500 0
DWIDTH 12 0
BBX 12 24 0 -2
BITMAP 
3180
3180
3580
3580
1F00
1F00
1B00
1B00
0000
0000
0000
0000
0000
0000
0000
0000
0000
0000
0000
0000
0000
0000
0000
0000
ENDCHAR
STARTCHAR U+02B8
ENCODING 696
SWIDTH 500 0
DWIDTH 12 0
BBX 12 24 0 -2
BITMAP 
1980
1980
1980
1980
1B80
1F80
0D80
0180
1F80
0F00
0000
0000
0000
0000
0000
0000
0000
0000
0000
0000
0000
0000
0000
0000
ENDCHAR
STARTCHAR U+02B9
ENCODING 697
SWIDTH 500 0
DWIDTH 12 0
BBX 12 24 0 -2
BITMAP 
0000
0000
0300
0300
0700
0600
0C00
0C00
1800
1000
0000
0000
0000
0000
0000
0000
0000
0000
0000
0000
0000
0000
0000
0000
ENDCHAR
STARTCHAR U+02BA
ENCODING 698
SWIDTH 500 0
DWIDTH 12 0
BBX 12 24 0 -2
BITMAP 
0000
0000
0CC0
0CC0
1DC0
1980
3300
3300
6600
4400
0000
0000
0000
0000
0000
0000
0000
0000
0000
0000
0000
0000
0000
0000
ENDCHAR
STARTCHAR U+02BB
ENCODING 699
SWIDTH 500 0
DWIDTH 12 0
BBX 12 24 0 -2
BITMAP 
0000
0000
0000
0000
0300
0600
0C00
0C00
0F00
0F00
0600
0000
0000
0000
0000
0000
0000
0000
0000
0000
0000
0000
0000
0000
ENDCHAR
STARTCHAR U+02BC
ENCODING 700
SWIDTH 500 0
DWIDTH 12 0
BBX 12 24 0 -2
BITMAP 
0000
0000
0000
0000
0600
0F00
0F00
0300
0300
0600
0C00
0000
0000
0000
0000
0000
0000
0000
0000
0000
0000
0000
0000
0000
ENDCHAR
STARTCHAR U+02BD
ENCODING 701
SWIDTH 500 0
DWIDTH 12 0
BBX 12 24 0 -2
BITMAP 
0000
0000
0000
0000
0600
0F00
0F00
0C00
0C00
0600
0300
0000
0000
0000
0000
0000
0000
0000
0000
0000
0000
0000
0000
0000
ENDCHAR
STARTCHAR U+02BE
ENCODING 702
SWIDTH 500 0
DWIDTH 12 0
BBX 12 24 0 -2
BITMAP 
0000
0000
0300
0180
0180
0300
0000
0000
0000
0000
0000
0000
0000
0000
0000
0000
0000
0000
0000
0000
0000
0000
0000
0000
ENDCHAR
STARTCHAR U+02BF
ENCODING 703
SWIDTH 500 0
DWIDTH 12 0
BBX 12 24 0 -2
BITMAP 
0000
0000
0C00
1800
1800
0C00
0000
0000
0000
0000
0000
0000
0000
0000
0000
0000
0000
0000
0000
0000
0000
0000
0000
0000
ENDCHAR
STARTCHAR U+02C0
ENCODING 704
SWIDTH 500 0
DWIDTH 12 0
BBX 12 24 0 -2
BITMAP 
0000
0F00
0D80
0180
0180
0380
0600
0600
0000
0000
0000
0000
0000
0000
0000
0000
0000
0000
0000
0000
0000
0000
0000
0000
ENDCHAR
STARTCHAR U+02C1
ENCODING 705
SWIDTH 500 0
DWIDTH 12 0
BBX 12 24 0 -2
BITMAP 
0000
0780
0D80
0C00
0C00
0E00
0300
0300
0000
0000
0000
0000
0000
0000
0000
0000
0000
0000
0000
0000
0000
0000
0000
0000
ENDCHAR
STARTCHAR U+02C2
ENCODING 706
SWIDTH 500 0
DWIDTH 12 0
BBX 12 24 0 -2
BITMAP 
00C0
03C0
0F00
3C00
3C00
0F00
03C0
00C0
0000
0000
0000
0000
0000
0000
0000
0000
0000
0000
0000
0000
0000
0000
0000
0000
ENDCHAR
STARTCHAR U+02C3
ENCODING 707
SWIDTH 500 0
DWIDTH 12 0
BBX 12 24 0 -2
BITMAP 
3000
3C00
0F00
03C0
03C0
0F00
3C00
3000
0000
0000
0000
0000
0000
0000
0000
0000
0000
0000
0000
0000
0000
0000
0000
0000
ENDCHAR
STARTCHAR U+02C4
ENCODING 708
SWIDTH 500 0
DWIDTH 12 0
BBX 12 24 0 -2
BITMAP 
0600
0600
0F00
0F00
1980
1980
30C0
30C0
0000
0000
0000
0000
0000
0000
0000
0000
0000
0000
0000
0000
0000
0000
0000
0000
ENDCHAR
STARTCHAR U+02C5
ENCODING 709
SWIDTH 500 0
DWIDTH 12 0
BBX 12 24 0 -2
BITMAP 
30C0
30C0
1980
1980
0F00
0F00
0600
0600
0000
0000
0000
0000
0000
0000
0000
0000
0000
0000
0000
0000
0000
0000
0000
0000
ENDCHAR
STARTCHAR U+02C6
ENCODING 710
SWIDTH 500 0
DWIDTH 12 0
BBX 12 24 0 -2
BITMAP 
0700
0F80
18C0
0000
0000
0000
0000
0000
0000
0000
0000
0000
0000
0000
0000
0000
0000
0000
0000
0000
0000
0000
0000
0000
ENDCHAR
STARTCHAR U+02C7
ENCODING 711
SWIDTH 500 0
DWIDTH 12 0
BBX 12 24 0 -2
BITMAP 
1980
0F00
0600
0000
0000
0000
0000
0000
0000
0000
0000
0000
0000
0000
0000
0000
0000
0000
0000
0000
0000
0000
0000
0000
ENDCHAR
STARTCHAR U+02C8
ENCODING 712
SWIDTH 500 0
DWIDTH 12 0
BBX 12 24 0 -2
BITMAP 
0600
0600
0600
0600
0000
0000
0000
0000
0000
0000
0000
0000
0000
0000
0000
0000
0000
0000
0000
0000
0000
0000
0000
0000
ENDCHAR
STARTCHAR U+02C9
ENCODING 713
SWIDTH 500 0
DWIDTH 12 0
BBX 12 24 0 -2
BITMAP 
0000
1FC0
1FC0
0000
0000
0000
0000
0000
0000
0000
0000
0000
0000
0000
0000
0000
0000
0000
0000
0000
0000
0000
0000
0000
ENDCHAR
STARTCHAR U+02CA
ENCODING 714
SWIDTH 500 0
DWIDTH 12 0
BBX 12 24 0 -2
BITMAP 
0000
0300
0700
0C00
0000
0000
0000
0000
0000
0000
0000
0000
0000
0000
0000
0000
0000
0000
0000
0000
0000
0000
0000
0000
ENDCHAR
STARTCHAR U+02CB
ENCODING 715
SWIDTH 500 0
DWIDTH 12 0
BBX 12 24 0 -2
BITMAP 
0000
0C00
0E00
0300
0000
0000
0000
0000
0000
0000
0000
0000
0000
0000
0000
0000
0000
0000
0000
0000
0000
0000
0000
0000
ENDCHAR
STARTCHAR U+02CC
ENCODING 716
SWIDTH 500 0
DWIDTH 12 0
BBX 12 24 0 -2
BITMAP 
0000
0000
0000
0000
0000
0000
0000
0000
0000
0000
0000
0000
0000
0000
0000
0000
0000
0000
0000
0600
0600
0600
0600
0000
ENDCHAR
STARTCHAR U+02CD
ENCODING 717
SWIDTH 500 0
DWIDTH 12 0
BBX 12 24 0 -2
BITMAP 
0000
0000
0000
0000
0000
0000
0000
0000
0000
0000
0000
0000
0000
0000
0000
0000
0000
0000
0000
0000
0000
1FC0
1FC0
0000
ENDCHAR
STARTCHAR U+02CE
ENCODING 718
SWIDTH 500 0
DWIDTH 12 0
BBX 12 24 0 -2
BITMAP 
0000
0000
0000
0000
0000
0000
0000
0000
0000
0000
0000
0000
0000
0000
0000
0000
0000
0000
0000
0000
0C00
0E00
0300
0000
ENDCHAR
STARTCHAR U+02CF
ENCODING 719
SWIDTH 500 0
DWIDTH 12 0
BBX 12 24 0 -2
BITMAP 
0000
0000
0000
0000
0000
0000
0000
0000
0000
0000
0000
0000
0000
0000
0000
0000
0000
0000
0000
0000
0300
0700
0C00
0000
ENDCHAR
STARTCHAR U+02D0
ENCODING 720
SWIDTH 500 0
DWIDTH 12 0
BBX 12 24 0 -2
BITMAP 
0000
0000
0000
0000
0000
0000
0000
0000
0F80
0700
0700
0200
0000
0000
0000
0200
0700
0700
0F80
0000
0000
0000
0000
0000
ENDCHAR
STARTCHAR U+02D1
ENCODING 721
SWIDTH 500 0
DWIDTH 12 0
BBX 12 24 0 -2
BITMAP 
0000
0000
0000
0000
0000
0000
0000
0000
0000
0000
0F80
0700
0700
0200
0000
0000
0000
0000
0000
0000
0000
0000
0000
0000
ENDCHAR
STARTCHAR U+02D2
ENCODING 722
SWIDTH 500 0
DWIDTH 12 0
BBX 12 24 0 -2
BITMAP 
0000
0000
0000
0000
0000
0000
0000
0000
0000
0000
0000
0300
0180
0180
0300
0000
0000
0000
0000
0000
0000
0000
0000
0000
ENDCHAR
STARTCHAR U+02D3
ENCODING 723
SWIDTH 500 0
DWIDTH 12 0
BBX 12 24 0 -2
BITMAP 
0000
0000
0000
0000
0000
0000
0000
0000
0000
0000
0000
0C00
1800
1800
0C00
0000
0000
0000
0000
0000
0000
0000
0000
0000
ENDCHAR
STARTCHAR U+02D4
ENCODING 724
SWIDTH 500 0
DWIDTH 12 0
BBX 12 24 0 -2
BITMAP 
0000
0000
0000
0000
0000
0000
0000
0000
0000
0000
0000
0600
0600
1F80
1F80
0000
0000
0000
0000
0000
0000
0000
0000
0000
ENDCHAR
STARTCHAR U+02D5
ENCODING 725
SWIDTH 500 0
DWIDTH 12 0
BBX 12 24 0 -2
BITMAP 
0000
0000
0000
0000
0000
0000
0000
0000
0000
0000
0000
0000
0000
1F80
1F80
0600
0600
0000
0000
0000
0000
0000
0000
0000
ENDCHAR
STARTCHAR U+02D6
ENCODING 726
SWIDTH 500 0
DWIDTH 12 0
BBX 12 24 0 -2
BITMAP 
0000
0000
0000
0000
0000
0000
0000
0000
0000
0000
0000
0600
0600
1F80
1F80
0600
0600
0000
0000
0000
0000
0000
0000
0000
ENDCHAR
STARTCHAR U+02D7
ENCODING 727
SWIDTH 500 0
DWIDTH 12 0
BBX 12 24 0 -2
BITMAP 
0000
0000
0000
0000
0000
0000
0000
0000
0000
0000
0000
0000
0000
1F80
1F80
0000
0000
0000
0000
0000
0000
0000
0000
0000
ENDCHAR
STARTCHAR U+02D8
ENCODING 728
SWIDTH 500 0
DWIDTH 12 0
BBX 12 24 0 -2
BITMAP 
18C0
18C0
0F80
0000
0000
0000
0000
0000
0000
0000
0000
0000
0000
0000
0000
0000
0000
0000
0000
0000
0000
0000
0000
0000
ENDCHAR
STARTCHAR U+02D9
ENCODING 729
SWIDTH 500 0
DWIDTH 12 0
BBX 12 24 0 -2
BITMAP 
0000
0600
0600
0000
0000
0000
0000
0000
0000
0000
0000
0000
0000
0000
0000
0000
0000
0000
0000
0000
0000
0000
0000
0000
ENDCHAR
STARTCHAR U+02DA
ENCODING 730
SWIDTH 500 0
DWIDTH 12 0
BBX 12 24 0 -2
BITMAP 
0700
0D80
0D80
0700
0000
0000
0000
0000
0000
0000
0000
0000
0000
0000
0000
0000
0000
0000
0000
0000
0000
0000
0000
0000
ENDCHAR
STARTCHAR U+02DB
ENCODING 731
SWIDTH 500 0
DWIDTH 12 0
BBX 12 24 0 -2
BITMAP 
0000
0000
0000
0000
0000
0000
0000
0000
0000
0000
0000
0000
0000
0000
0000
0000
0000
0000
0000
00F0
01C0
0300
03E0
01E0
ENDCHAR
STARTCHAR U+02DC
ENCODING 732
SWIDTH 500 0
DWIDTH 12 0
BBX 12 24 0 -2
BITMAP 
1C40
36C0
2380
0000
0000
0000
0000
0000
0000
0000
0000
0000
0000
0000
0000
0000
0000
0000
0000
0000
0000
0000
0000
0000
ENDCHAR
STARTCHAR U+02DD
ENCODING 733
SWIDTH 500 0
DWIDTH 12 0
BBX 12 24 0 -2
BITMAP 
0C60
1CE0
3180
0000
0000
0000
0000
0000
0000
0000
0000
0000
0000
0000
0000
0000
0000
0000
0000
0000
0000
0000
0000
0000
ENDCHAR
STARTCHAR U+0300
ENCODING 768
SWIDTH 500 0
DWIDTH 12 0
BBX 12 24 0 -2
BITMAP 
0000
0C00
0E00
0300
0000
0000
0000
0000
0000
0000
0000
0000
0000
0000
0000
0000
0000
0000
0000
0000
0000
0000
0000
0000
ENDCHAR
STARTCHAR U+0301
ENCODING 769
SWIDTH 500 0
DWIDTH 12 0
BBX 12 24 0 -2
BITMAP 
0000
0300
0700
0C00
0000
0000
0000
0000
0000
0000
0000
0000
0000
0000
0000
0000
0000
0000
0000
0000
0000
0000
0000
0000
ENDCHAR
STARTCHAR U+0302
ENCODING 770
SWIDTH 500 0
DWIDTH 12 0
BBX 12 24 0 -2
BITMAP 
0000
0200
0700
0D80
18C0
3060
0000
0000
0000
0000
0000
0000
0000
0000
0000
0000
0000
0000
0000
0000
0000
0000
0000
0000
ENDCHAR
STARTCHAR U+0303
ENCODING 771
SWIDTH 500 0
DWIDTH 12 0
BBX 12 24 0 -2
BITMAP 
0000
1C40
36C0
2380
0000
0000
0000
0000
0000
0000
0000
0000
0000
0000
0000
0000
0000
0000
0000
0000
0000
0000
0000
0000
ENDCHAR
STARTCHAR U+0304
ENCODING 772
SWIDTH 500 0
DWIDTH 12 0
BBX 12 24 0 -2
BITMAP 
0000
3FC0
3FC0
0000
0000
0000
0000
0000
0000
0000
0000
0000
0000
0000
0000
0000
0000
0000
0000
0000
0000
0000
0000
0000
ENDCHAR
STARTCHAR U+0305
ENCODING 773
SWIDTH 500 0
DWIDTH 12 0
BBX 12 24 0 -2
BITMAP 
0000
FFF0
FFF0
0000
0000
0000
0000
0000
0000
0000
0000
0000
0000
0000
0000
0000
0000
0000
0000
0000
0000
0000
0000
0000
ENDCHAR
STARTCHAR U+0306
ENCODING 774
SWIDTH 500 0
DWIDTH 12 0
BBX 12 24 0 -2
BITMAP 
0000
18C0
18C0
0F80
0000
0000
0000
0000
0000
0000
0000
0000
0000
0000
0000
0000
0000
0000
0000
0000
0000
0000
0000
0000
ENDCHAR
STARTCHAR U+0307
ENCODING 775
SWIDTH 500 0
DWIDTH 12 0
BBX 12 24 0 -2
BITMAP 
0000
0600
0600
0000
0000
0000
0000
0000
0000
0000
0000
0000
0000
0000
0000
0000
0000
0000
0000
0000
0000
0000
0000
0000
ENDCHAR
STARTCHAR U+0308
ENCODING 776
SWIDTH 500 0
DWIDTH 12 0
BBX 12 24 0 -2
BITMAP 
0000
18C0
18C0
0000
0000
0000
0000
0000
0000
0000
0000
0000
0000
0000
0000
0000
0000
0000
0000
0000
0000
0000
0000
0000
ENDCHAR
STARTCHAR U+0309
ENCODING 777
SWIDTH 500 0
DWIDTH 12 0
BBX 12 24 0 -2
BITMAP 
0000
0E00
0B00
0300
0600
0600
0000
0000
0000
0000
0000
0000
0000
0000
0000
0000
0000
0000
0000
0000
0000
0000
0000
0000
ENDCHAR
STARTCHAR U+030A
ENCODING 778
SWIDTH 500 0
DWIDTH 12 0
BBX 12 24 0 -2
BITMAP 
0000
0700
0D80
0D80
0700
0000
0000
0000
0000
0000
0000
0000
0000
0000
0000
0000
0000
0000
0000
0000
0000
0000
0000
0000
ENDCHAR
STARTCHAR U+030B
ENCODING 779
SWIDTH 500 0
DWIDTH 12 0
BBX 12 24 0 -2
BITMAP 
0000
0C60
1CE0
3180
0000
0000
0000
0000
0000
0000
0000
0000
0000
0000
0000
0000
0000
0000
0000
0000
0000
0000
0000
0000
ENDCHAR
STARTCHAR U+030C
ENCODING 780
SWIDTH 500 0
DWIDTH 12 0
BBX 12 24 0 -2
BITMAP 
0000
3060
18C0
0D80
0700
0200
0000
0000
0000
0000
0000
0000
0000
0000
0000
0000
0000
0000
0000
0000
0000
0000
0000
0000
ENDCHAR
STARTCHAR U+030D
ENCODING 781
SWIDTH 500 0
DWIDTH 12 0
BBX 12 24 0 -2
BITMAP 
0400
0600
0600
0600
0600
0200
0000
0000
0000
0000
0000
0000
0000
0000
0000
0000
0000
0000
0000
0000
0000
0000
0000
0000
ENDCHAR
STARTCHAR U+030E
ENCODING 782
SWIDTH 500 0
DWIDTH 12 0
BBX 12 24 0 -2
BITMAP 
1100
1980
1980
1980
1980
0880
0000
0000
0000
0000
0000
0000
0000
0000
0000
0000
0000
0000
0000
0000
0000
0000
0000
0000
ENDCHAR
STARTCHAR U+030F
ENCODING 783
SWIDTH 500 0
DWIDTH 12 0
BBX 12 24 0 -2
BITMAP 
0000
3180
39C0
0C60
0000
0000
0000
0000
0000
0000
0000
0000
0000
0000
0000
0000
0000
0000
0000
0000
0000
0000
0000
0000
ENDCHAR
STARTCHAR U+0310
ENCODING 784
SWIDTH 500 0
DWIDTH 12 0
BBX 12 24 0 -2
BITMAP 
0000
0600
2640
30C0
1F80
0600
0000
0000
0000
0000
0000
0000
0000
0000
0000
0000
0000
0000
0000
0000
0000
0000
0000
0000
ENDCHAR
STARTCHAR U+0311
ENCODING 785
SWIDTH 500 0
DWIDTH 12 0
BBX 12 24 0 -2
BITMAP 
0000
0F80
18C0
18C0
0000
0000
0000
0000
0000
0000
0000
0000
0000
0000
0000
0000
0000
0000
0000
0000
0000
0000
0000
0000
ENDCHAR
STARTCHAR U+0312
ENCODING 786
SWIDTH 500 0
DWIDTH 12 0
BBX 12 24 0 -2
BITMAP 
0000
0000
0000
0000
0300
0600
0C00
0C00
0F00
0F00
0600
0000
0000
0000
0000
0000
0000
0000
0000
0000
0000
0000
0000
0000
ENDCHAR
STARTCHAR U+0313
ENCODING 787
SWIDTH 500 0
DWIDTH 12 0
BBX 12 24 0 -2
BITMAP 
0000
0000
0000
0E00
0E00
0200
0600
0C00
0000
0000
0000
0000
0000
0000
0000
0000
0000
0000
0000
0000
0000
0000
0000
0000
ENDCHAR
STARTCHAR U+0314
ENCODING 788
SWIDTH 500 0
DWIDTH 12 0
BBX 12 24 0 -2
BITMAP 
0000
0000
0000
0E00
0E00
0800
0C00
0600
0000
0000
0000
0000
0000
0000
0000
0000
0000
0000
0000
0000
0000
0000
0000
0000
ENDCHAR
STARTCHAR U+0315
ENCODING 789
SWIDTH 500 0
DWIDTH 12 0
BBX 12 24 0 -2
BITMAP 
0000
0000
0000
0000
0060
00F0
00F0
0030
0030
0060
00C0
0000
0000
0000
0000
0000
0000
0000
0000
0000
0000
0000
0000
0000
ENDCHAR
STARTCHAR U+0316
ENCODING 790
SWIDTH 500 0
DWIDTH 12 0
BBX 12 24 0 -2
BITMAP 
0000
0000
0000
0000
0000
0000
0000
0000
0000
0000
0000
0000
0000
0000
0000
0000
0000
0000
0000
0000
0C00
0E00
0300
0000
ENDCHAR
STARTCHAR U+0317
ENCODING 791
SWIDTH 500 0
DWIDTH 12 0
BBX 12 24 0 -2
BITMAP 
0000
0000
0000
0000
0000
0000
0000
0000
0000
0000
0000
0000
0000
0000
0000
0000
0000
0000
0000
0000
0300
0700
0C00
0000
ENDCHAR
STARTCHAR U+0318
ENCODING 792
SWIDTH 500 0
DWIDTH 12 0
BBX 12 24 0 -2
BITMAP 
0000
0000
0000
0000
0000
0000
0000
0000
0000
0000
0000
0000
0000
0000
0000
0000
0000
0180
0180
1F80
1F80
0180
0180
0000
ENDCHAR
STARTCHAR U+0319
ENCODING 793
SWIDTH 500 0
DWIDTH 12 0
BBX 12 24 0 -2
BITMAP 
0000
0000
0000
0000
0000
0000
0000
0000
0000
0000
0000
0000
0000
0000
0000
0000
0000
1800
1800
1F80
1F80
1800
1800
0000
ENDCHAR
STARTCHAR U+031A
ENCODING 794
SWIDTH 500 0
DWIDTH 12 0
BBX 12 24 0 -2
BITMAP 
0000
3FC0
3FC0
00C0
00C0
00C0
0000
0000
0000
0000
0000
0000
0000
0000
0000
0000
0000
0000
0000
0000
0000
0000
0000
0000
ENDCHAR
STARTCHAR U+031B
ENCODING 795
SWIDTH 500 0
DWIDTH 12 0
BBX 12 24 0 -2
BITMAP 
0000
0000
0000
0060
0060
01E0
00C0
0000
0000
0000
0000
0000
0000
0000
0000
0000
0000
0000
0000
0000
0000
0000
0000
0000
ENDCHAR
STARTCHAR U+031C
ENCODING 796
SWIDTH 500 0
DWIDTH 12 0
BBX 12 24 0 -2
BITMAP 
0000
0000
0000
0000
0000
0000
0000
0000
0000
0000
0000
0000
0000
0000
0000
0000
0000
0000
0000
0E00
1800
1800
0E00
0000
ENDCHAR
STARTCHAR U+031D
ENCODING 797
SWIDTH 500 0
DWIDTH 12 0
BBX 12 24 0 -2
BITMAP 
0000
0000
0000
0000
0000
0000
0000
0000
0000
0000
0000
0000
0000
0000
0000
0000
0000
0600
0600
0600
0600
1F80
1F80
0000
ENDCHAR
STARTCHAR U+031E
ENCODING 798
SWIDTH 500 0
DWIDTH 12 0
BBX 12 24 0 -2
BITMAP 
0000
0000
0000
0000
0000
0000
0000
0000
0000
0000
0000
0000
0000
0000
0000
0000
0000
1F80
1F80
0600
0600
0600
0600
0000
ENDCHAR
STARTCHAR U+031F
ENCODING 799
SWIDTH 500 0
DWIDTH 12 0
BBX 12 24 0 -2
BITMAP 
0000
0000
0000
0000
0000
0000
0000
0000
0000
0000
0000
0000
0000
0000
0000
0000
0000
0600
0600
1F80
1F80
0600
0600
0000
ENDCHAR
STARTCHAR U+0320
ENCODING 800
SWIDTH 500 0
DWIDTH 12 0
BBX 12 24 0 -2
BITMAP 
0000
0000
0000
0000
0000
0000
0000
0000
0000
0000
0000
0000
0000
0000
0000
0000
0000
0000
0000
0000
0000
1F80
1F80
0000
ENDCHAR
STARTCHAR U+0321
ENCODING 801
SWIDTH 500 0
DWIDTH 12 0
BBX 12 24 0 -2
BITMAP 
0000
0000
0000
0000
0000
0000
0000
0000
0000
0000
0000
0000
0000
0000
0000
0000
0060
0060
0060
0060
0360
01E0
00C0
0000
ENDCHAR
STARTCHAR U+0322
ENCODING 802
SWIDTH 500 0
DWIDTH 12 0
BBX 12 24 0 -2
BITMAP 
0000
0000
0000
0000
0000
0000
0000
0000
0000
0000
0000
0000
0000
0000
0000
0000
0180
0180
0180
0180
0180
01F0
00E0
0000
ENDCHAR
STARTCHAR U+0323
ENCODING 803
SWIDTH 500 0
DWIDTH 12 0
BBX 12 24 0 -2
BITMAP 
0000
0000
0000
0000
0000
0000
0000
0000
0000
0000
0000
0000
0000
0000
0000
0000
0000
0000
0000
0000
0000
0600
0600
0000
ENDCHAR
STARTCHAR U+0324
ENCODING 804
SWIDTH 500 0
DWIDTH 12 0
BBX 12 24 0 -2
BITMAP 
0000
0000
0000
0000
0000
0000
0000
0000
0000
0000
0000
0000
0000
0000
0000
0000
0000
0000
0000
0000
0000
18C0
18C0
0000
ENDCHAR
STARTCHAR U+0325
ENCODING 805
SWIDTH 500 0
DWIDTH 12 0
BBX 12 24 0 -2
BITMAP 
0000
0000
0000
0000
0000
0000
0000
0000
0000
0000
0000
0000
0000
0000
0000
0000
0000
0000
0000
0700
0D80
0D80
0700
0000
ENDCHAR
STARTCHAR U+0326
ENCODING 806
SWIDTH 500 0
DWIDTH 12 0
BBX 12 24 0 -2
BITMAP 
0000
0000
0000
0000
0000
0000
0000
0000
0000
0000
0000
0000
0000
0000
0000
0000
0000
0000
0E00
0E00
0200
0600
0C00
0000
ENDCHAR
STARTCHAR U+0327
ENCODING 807
SWIDTH 500 0
DWIDTH 12 0
BBX 12 24 0 -2
BITMAP 
0000
0000
0000
0000
0000
0000
0000
0000
0000
0000
0000
0000
0000
0000
0000
0000
0000
0000
0600
0600
0700
0180
0F80
0F00
ENDCHAR
STARTCHAR U+0328
ENCODING 808
SWIDTH 500 0
DWIDTH 12 0
BBX 12 24 0 -2
BITMAP 
0000
0000
0000
0000
0000
0000
0000
0000
0000
0000
0000
0000
0000
0000
0000
0000
0000
0000
0180
0300
0300
03E0
01C0
0000
ENDCHAR
STARTCHAR U+0329
ENCODING 809
SWIDTH 500 0
DWIDTH 12 0
BBX 12 24 0 -2
BITMAP 
0000
0000
0000
0000
0000
0000
0000
0000
0000
0000
0000
0000
0000
0000
0000
0000
0000
0000
0000
0600
0600
0600
0600
0000
ENDCHAR
STARTCHAR U+032A
ENCODING 810
SWIDTH 500 0
DWIDTH 12 0
BBX 12 24 0 -2
BITMAP 
0000
0000
0000
0000
0000
0000
0000
0000
0000
0000
0000
0000
0000
0000
0000
0000
0000
0000
0000
3FC0
3FC0
30C0
30C0
0000
ENDCHAR
STARTCHAR U+032B
ENCODING 811
SWIDTH 500 0
DWIDTH 12 0
BBX 12 24 0 -2
BITMAP 
0000
0000
0000
0000
0000
0000
0000
0000
0000
0000
0000
0000
0000
0000
0000
0000
0000
0000
6660
6660
6660
3FC0
1980
0000
ENDCHAR
STARTCHAR U+032C
ENCODING 812
SWIDTH 500 0
DWIDTH 12 0
BBX 12 24 0 -2
BITMAP 
0000
0000
0000
0000
0000
0000
0000
0000
0000
0000
0000
0000
0000
0000
0000
0000
0000
0000
3060
18C0
0D80
0700
0200
0000
ENDCHAR
STARTCHAR U+032D
ENCODING 813
SWIDTH 500 0
DWIDTH 12 0
BBX 12 24 0 -2
BITMAP 
0000
0000
0000
0000
0000
0000
0000
0000
0000
0000
0000
0000
0000
0000
0000
0000
0000
0000
0200
0700
0D80
18C0
3060
0000
ENDCHAR
STARTCHAR U+032E
ENCODING 814
SWIDTH 500 0
DWIDTH 12 0
BBX 12 24 0 -2
BITMAP 
0000
0000
0000
0000
0000
0000
0000
0000
0000
0000
0000
0000
0000
0000
0000
0000
0000
0000
0000
0000
18C0
18C0
0F80
0000
ENDCHAR
STARTCHAR U+032F
ENCODING 815
SWIDTH 500 0
DWIDTH 12 0
BBX 12 24 0 -2
BITMAP 
0000
0000
0000
0000
0000
0000
0000
0000
0000
0000
0000
0000
0000
0000
0000
0000
0000
0000
0000
0000
0F80
18C0
18C0
0000
ENDCHAR
STARTCHAR U+0330
ENCODING 816
SWIDTH 500 0
DWIDTH 12 0
BBX 12 24 0 -2
BITMAP 
0000
0000
0000
0000
0000
0000
0000
0000
0000
0000
0000
0000
0000
0000
0000
0000
0000
0000
0000
0000
0000
1C20
3660
23C0
ENDCHAR
STARTCHAR U+0331
ENCODING 817
SWIDTH 500 0
DWIDTH 12 0
BBX 12 24 0 -2
BITMAP 
0000
0000
0000
0000
0000
0000
0000
0000
0000
0000
0000
0000
0000
0000
0000
0000
0000
0000
0000
0000
0000
3FC0
3FC0
0000
ENDCHAR
STARTCHAR U+0332
ENCODING 818
SWIDTH 500 0
DWIDTH 12 0
BBX 12 24 0 -2
BITMAP 
0000
0000
0000
0000
0000
0000
0000
0000
0000
0000
0000
0000
0000
0000
0000
0000
0000
0000
0000
0000
FFF0
FFF0
0000
0000
ENDCHAR
STARTCHAR U+0333
ENCODING 819
SWIDTH 500 0
DWIDTH 12 0
BBX 12 24 0 -2
BITMAP 
0000
0000
0000
0000
0000
0000
0000
0000
0000
0000
0000
0000
0000
0000
0000
0000
0000
0000
3FE0
3FE0
0000
3FE0
3FE0
0000
ENDCHAR
STARTCHAR U+0334
ENCODING 820
SWIDTH 500 0
DWIDTH 12 0
BBX 12 24 0 -2
BITMAP 
0000
0000
0000
0000
0000
0000
0000
0000
0000
0000
3C20
6E20
4760
43C0
0000
0000
0000
0000
0000
0000
0000
0000
0000
0000
ENDCHAR
STARTCHAR U+0335
ENCODING 821
SWIDTH 500 0
DWIDTH 12 0
BBX 12 24 0 -2
BITMAP 
0000
0000
0000
0000
0000
0000
0000
0000
0000
0000
0000
3FC0
3FC0
0000
0000
0000
0000
0000
0000
0000
0000
0000
0000
0000
ENDCHAR
STARTCHAR U+0336
ENCODING 822
SWIDTH 500 0
DWIDTH 12 0
BBX 12 24 0 -2
BITMAP 
0000
0000
0000
0000
0000
0000
0000
0000
0000
0000
0000
FFF0
FFF0
0000
0000
0000
0000
0000
0000
0000
0000
0000
0000
0000
ENDCHAR
STARTCHAR U+0337
ENCODING 823
SWIDTH 500 0
DWIDTH 12 0
BBX 12 24 0 -2
BITMAP 
0000
0000
0000
0000
0000
0000
0000
0000
0040
00C0
0180
0300
0600
0C00
1800
3000
2000
0000
0000
0000
0000
0000
0000
0000
ENDCHAR
STARTCHAR U+0338
ENCODING 824
SWIDTH 500 0
DWIDTH 12 0
BBX 12 24 0 -2
BITMAP 
0000
0000
0000
0000
0040
0040
00C0
0080
0180
0100
0300
0200
0600
0400
0C00
0800
1800
1000
3000
2000
2000
0000
0000
0000
ENDCHAR
STARTCHAR U+0339
ENCODING 825
SWIDTH 500 0
DWIDTH 12 0
BBX 12 24 0 -2
BITMAP 
0000
0000
0000
0000
0000
0000
0000
0000
0000
0000
0000
0000
0000
0000
0000
0000
0000
0000
0000
0700
0180
0180
0700
0000
ENDCHAR
STARTCHAR U+033A
ENCODING 826
SWIDTH 500 0
DWIDTH 12 0
BBX 12 24 0 -2
BITMAP 
0000
0000
0000
0000
0000
0000
0000
0000
0000
0000
0000
0000
0000
0000
0000
0000
0000
0000
0000
30C0
30C0
3FC0
3FC0
0000
ENDCHAR
STARTCHAR U+033B
ENCODING 827
SWIDTH 500 0
DWIDTH 12 0
BBX 12 24 0 -2
BITMAP 
0000
0000
0000
0000
0000
0000
0000
0000
0000
0000
0000
0000
0000
0000
0000
0000
0000
0000
0000
0F00
0900
0900
0F00
0000
ENDCHAR
STARTCHAR U+033C
ENCODING 828
SWIDTH 500 0
DWIDTH 12 0
BBX 12 24 0 -2
BITMAP 
0000
0000
0000
0000
0000
0000
0000
0000
0000
0000
0000
0000
0000
0000
0000
0000
0000
0000
0000
1980
7FE0
4620
0600
0000
ENDCHAR
STARTCHAR U+033D
ENCODING 829
SWIDTH 500 0
DWIDTH 12 0
BBX 12 24 0 -2
BITMAP 
2040
1980
0600
1980
2040
0000
0000
0000
0000
0000
0000
0000
0000
0000
0000
0000
0000
0000
0000
0000
0000
0000
0000
0000
ENDCHAR
STARTCHAR U+033E
ENCODING 830
SWIDTH 500 0
DWIDTH 12 0
BBX 12 24 0 -2
BITMAP 
0600
0C00
0C00
0600
0600
0C00
0000
0000
0000
0000
0000
0000
0000
0000
0000
0000
0000
0000
0000
0000
0000
0000
0000
0000
ENDCHAR
STARTCHAR U+033F
ENCODING 831
SWIDTH 500 0
DWIDTH 12 0
BBX 12 24 0 -2
BITMAP 
0000
7FE0
7FE0
0000
7FE0
7FE0
0000
0000
0000
0000
0000
0000
0000
0000
0000
0000
0000
0000
0000
0000
0000
0000
0000
0000
ENDCHAR
STARTCHAR U+0340
ENCODING 832
SWIDTH 500 0
DWIDTH 12 0
BBX 12 24 0 -2
BITMAP 
0000
0C00
0E00
0300
0000
0000
0000
0000
0000
0000
0000
0000
0000
0000
0000
0000
0000
0000
0000
0000
0000
0000
0000
0000
ENDCHAR
STARTCHAR U+0341
ENCODING 833
SWIDTH 500 0
DWIDTH 12 0
BBX 12 24 0 -2
BITMAP 
0000
0300
0700
0C00
0000
0000
0000
0000
0000
0000
0000
0000
0000
0000
0000
0000
0000
0000
0000
0000
0000
0000
0000
0000
ENDCHAR
STARTCHAR U+0342
ENCODING 834
SWIDTH 500 0
DWIDTH 12 0
BBX 12 24 0 -2
BITMAP 
1C80
1380
0000
0000
0000
0000
0000
0000
0000
0000
0000
0000
0000
0000
0000
0000
0000
0000
0000
0000
0000
0000
0000
0000
ENDCHAR
STARTCHAR U+0343
ENCODING 835
SWIDTH 500 0
DWIDTH 12 0
BBX 12 24 0 -2
BITMAP 
0000
0000
0000
0E00
0E00
0200
0600
0C00
0000
0000
0000
0000
0000
0000
0000
0000
0000
0000
0000
0000
0000
0000
0000
0000
ENDCHAR
STARTCHAR U+0344
ENCODING 836
SWIDTH 500 0
DWIDTH 12 0
BBX 12 24 0 -2
BITMAP 
0000
0400
2480
75C0
2480
0400
0000
0000
0000
0000
0000
0000
0000
0000
0000
0000
0000
0000
0000
0000
0000
0000
0000
0000
ENDCHAR
STARTCHAR U+0345
ENCODING 837
SWIDTH 500 0
DWIDTH 12 0
BBX 12 24 0 -2
BITMAP 
0000
0000
0000
0000
0000
0000
0000
0000
0000
0000
0000
0000
0000
0000
0000
0000
0000
0000
0000
0000
0C00
0C00
0C00
0700
ENDCHAR
STARTCHAR U+0346
ENCODING 838
SWIDTH 500 0
DWIDTH 12 0
BBX 12 24 0 -2
BITMAP 
0000
1F80
1F80
1980
1980
0000
0000
0000
0000
0000
0000
0000
0000
0000
0000
0000
0000
0000
0000
0000
0000
0000
0000
0000
ENDCHAR
STARTCHAR U+0347
ENCODING 839
SWIDTH 500 0
DWIDTH 12 0
BBX 12 24 0 -2
BITMAP 
0000
0000
0000
0000
0000
0000
0000
0000
0000
0000
0000
0000
0000
0000
0000
0000
0000
0000
1F80
1F80
0000
1F80
1F80
0000
ENDCHAR
STARTCHAR U+0348
ENCODING 840
SWIDTH 500 0
DWIDTH 12 0
BBX 12 24 0 -2
BITMAP 
0000
0000
0000
0000
0000
0000
0000
0000
0000
0000
0000
0000
0000
0000
0000
0000
0000
0000
1980
1980
1980
1980
1980
0000
ENDCHAR
STARTCHAR U+0349
ENCODING 841
SWIDTH 500 0
DWIDTH 12 0
BBX 12 24 0 -2
BITMAP 
0000
0000
0000
0000
0000
0000
0000
0000
0000
0000
0000
0000
0000
0000
0000
0000
0000
0000
0000
1F80
1F80
0180
0180
0000
ENDCHAR
STARTCHAR U+034A
ENCODING 842
SWIDTH 500 0
DWIDTH 12 0
BBX 12 24 0 -2
BITMAP 
0000
0100
1E40
36C0
2780
0800
0000
0000
0000
0000
0000
0000
0000
0000
0000
0000
0000
0000
0000
0000
0000
0000
0000
0000
ENDCHAR
STARTCHAR U+034B
ENCODING 843
SWIDTH 500 0
DWIDTH 12 0
BBX 12 24 0 -2
BITMAP 
0300
0300
3C20
6660
43C0
0C00
0C00
0000
0000
0000
0000
0000
0000
0000
0000
0000
0000
0000
0000
0000
0000
0000
0000
0000
ENDCHAR
STARTCHAR U+034C
ENCODING 844
SWIDTH 500 0
DWIDTH 12 0
BBX 12 24 0 -2
BITMAP 
0000
1C00
2240
1D80
2240
0180
0000
0000
0000
0000
0000
0000
0000
0000
0000
0000
0000
0000
0000
0000
0000
0000
0000
0000
ENDCHAR
STARTCHAR U+034D
ENCODING 845
SWIDTH 500 0
DWIDTH 12 0
BBX 12 24 0 -2
BITMAP 
0000
0000
0000
0000
0000
0000
0000
0000
0000
0000
0000
0000
0000
0000
0000
0000
0000
1080
2040
7FE0
7FE0
2040
1080
0000
ENDCHAR
STARTCHAR U+034E
ENCODING 846
SWIDTH 500 0
DWIDTH 12 0
BBX 12 24 0 -2
BITMAP 
0000
0000
0000
0000
0000
0000
0000
0000
0000
0000
0000
0000
0000
0000
0000
0000
0000
0600
0F00
1F80
1680
0600
0600
0000
ENDCHAR
STARTCHAR U+0374
ENCODING 884
SWIDTH 500 0
DWIDTH 12 0
BBX 12 24 0 -2
BITMAP 
0000
0000
0000
0000
0000
0700
0700
0E00
0C00
1800
1000
0000
0000
0000
0000
0000
0000
0000
0000
0000
0000
0000
0000
0000
ENDCHAR
STARTCHAR U+0375
ENCODING 885
SWIDTH 500 0
DWIDTH 12 0
BBX 12 24 0 -2
BITMAP 
0000
0000
0000
0000
0000
0000
0000
0000
0000
0000
0000
0000
0000
0000
0000
0000
0000
0700
0700
0E00
0C00
1800
1000
0000
ENDCHAR
STARTCHAR U+037A
ENCODING 890
SWIDTH 500 0
DWIDTH 12 0
BBX 12 24 0 -2
BITMAP 
0000
0000
0000
0000
0000
0000
0000
0000
0000
0000
0000
0000
0000
0000
0000
0000
0000
0000
0000
0000
0C00
0C00
0C00
0700
ENDCHAR
STARTCHAR U+037E
ENCODING 894
SWIDTH 500 0
DWIDTH 12 0
BBX 12 24 0 -2
BITMAP 
0000
0000
0000
0000
0000
0000
0000
0000
0000
0000
0000
0600
0600
0000
0000
0000
0000
0000
0C00
0E00
0600
0200
0600
0400
ENDCHAR
STARTCHAR U+0384
ENCODING 900
SWIDTH 500 0
DWIDTH 12 0
BBX 12 24 0 -2
BITMAP 
0600
0600
0600
0600
0000
0000
0000
0000
0000
0000
0000
0000
0000
0000
0000
0000
0000
0000
0000
0000
0000
0000
0000
0000
ENDCHAR
STARTCHAR U+0385
ENCODING 901
SWIDTH 500 0
DWIDTH 12 0
BBX 12 24 0 -2
BITMAP 
0600
0600
0600
0600
0000
0000
1980
1980
0000
0000
0000
0000
0000
0000
0000
0000
0000
0000
0000
0000
0000
0000
0000
0000
ENDCHAR
STARTCHAR U+0386
ENCODING 902
SWIDTH 500 0
DWIDTH 12 0
BBX 12 24 0 -2
BITMAP 
6000
6000
6000
6000
0000
0700
0700
0700
0D80
0D80
0D80
18C0
18C0
1FC0
1FC0
3060
3060
3060
3060
0000
0000
0000
0000
0000
ENDCHAR
STARTCHAR U+0387
ENCODING 903
SWIDTH 500 0
DWIDTH 12 0
BBX 12 24 0 -2
BITMAP 
0000
0000
0000
0000
0000
0000
0000
0000
0000
0000
0000
0400
0E00
0400
0000
0000
0000
0000
0000
0000
0000
0000
0000
0000
ENDCHAR
STARTCHAR U+0388
ENCODING 904
SWIDTH 500 0
DWIDTH 12 0
BBX 12 24 0 -2
BITMAP 
6000
6000
6000
6000
0000
3FE0
3FE0
3000
3000
3000
3000
3F80
3F80
3000
3000
3000
3000
3FE0
3FE0
0000
0000
0000
0000
0000
ENDCHAR
STARTCHAR U+0389
ENCODING 905
SWIDTH 500 0
DWIDTH 12 0
BBX 12 24 0 -2
BITMAP 
6000
6000
6000
6000
0000
3060
3060
3060
3060
3060
3060
3FE0
3FE0
3060
3060
3060
3060
3060
3060
0000
0000
0000
0000
0000
ENDCHAR
STARTCHAR U+038A
ENCODING 906
SWIDTH 500 0
DWIDTH 12 0
BBX 12 24 0 -2
BITMAP 
6000
6000
6000
6000
0000
1F80
1F80
0600
0600
0600
0600
0600
0600
0600
0600
0600
0600
1F80
1F80
0000
0000
0000
0000
0000
ENDCHAR
STARTCHAR U+038C
ENCODING 908
SWIDTH 500 0
DWIDTH 12 0
BBX 12 24 0 -2
BITMAP 
6000
6000
6000
6000
0000
0F80
1FC0
38E0
3060
3060
3060
3060
3060
3060
3060
3060
38E0
1FC0
0F80
0000
0000
0000
0000
0000
ENDCHAR
STARTCHAR U+038E
ENCODING 910
SWIDTH 500 0
DWIDTH 12 0
BBX 12 24 0 -2
BITMAP 
6000
6000
6000
6000
0000
6060
6060
30C0
30C0
1980
1F80
0F00
0600
0600
0600
0600
0600
0600
0600
0000
0000
0000
0000
0000
ENDCHAR
STARTCHAR U+038F
ENCODING 911
SWIDTH 500 0
DWIDTH 12 0
BBX 12 24 0 -2
BITMAP 
6000
6000
6000
6000
0000
0F80
1FC0
38E0
3060
3060
3060
3060
3060
3060
38E0
18C0
0D80
0D80
3DE0
3DE0
0000
0000
0000
0000
ENDCHAR
STARTCHAR U+0390
ENCODING 912
SWIDTH 500 0
DWIDTH 12 0
BBX 12 24 0 -2
BITMAP 
0600
0600
0600
0600
0000
0000
1980
1980
0000
0600
0600
0600
0600
0600
0600
0600
0600
0780
0380
0000
0000
0000
0000
0000
ENDCHAR
STARTCHAR U+0391
ENCODING 913
SWIDTH 500 0
DWIDTH 12 0
BBX 12 24 0 -2
BITMAP 
0000
0000
0000
0000
0000
0700
0700
0700
0D80
0D80
0D80
18C0
18C0
1FC0
1FC0
3060
3060
3060
3060
0000
0000
0000
0000
0000
ENDCHAR
STARTCHAR U+0392
ENCODING 914
SWIDTH 500 0
DWIDTH 12 0
BBX 12 24 0 -2
BITMAP 
0000
0000
0000
0000
0000
3F00
3F80
31C0
30C0
30C0
3180
3F80
3FC0
30C0
3060
3060
30E0
3FC0
3F80
0000
0000
0000
0000
0000
ENDCHAR
STARTCHAR U+0393
ENCODING 915
SWIDTH 500 0
DWIDTH 12 0
BBX 12 24 0 -2
BITMAP 
0000
0000
0000
0000
0000
3FE0
3FE0
3000
3000
3000
3000
3000
3000
3000
3000
3000
3000
3000
3000
0000
0000
0000
0000
0000
ENDCHAR
STARTCHAR U+0394
ENCODING 916
SWIDTH 500 0
DWIDTH 12 0
BBX 12 24 0 -2
BITMAP 
0000
0000
0000
0000
0000
0700
0700
0700
0D80
0D80
0D80
18C0
18C0
18C0
3060
3060
3060
3FE0
3FE0
0000
0000
0000
0000
0000
ENDCHAR
STARTCHAR U+0395
ENCODING 917
SWIDTH 500 0
DWIDTH 12 0
BBX 12 24 0 -2
BITMAP 
0000
0000
0000
0000
0000
3FE0
3FE0
3000
3000
3000
3000
3F80
3F80
3000
3000
3000
3000
3FE0
3FE0
0000
0000
0000
0000
0000
ENDCHAR
STARTCHAR U+0396
ENCODING 918
SWIDTH 500 0
DWIDTH 12 0
BBX 12 24 0 -2
BITMAP 
0000
0000
0000
0000
0000
7FE0
7FE0
0060
00E0
01C0
0380
0700
0E00
1C00
3800
7000
6000
7FE0
7FE0
0000
0000
0000
0000
0000
ENDCHAR
STARTCHAR U+0397
ENCODING 919
SWIDTH 500 0
DWIDTH 12 0
BBX 12 24 0 -2
BITMAP 
0000
0000
0000
0000
0000
3060
3060
3060
3060
3060
3060
3FE0
3FE0
3060
3060
3060
3060
3060
3060
0000
0000
0000
0000
0000
ENDCHAR
STARTCHAR U+0398
ENCODING 920
SWIDTH 500 0
DWIDTH 12 0
BBX 12 24 0 -2
BITMAP 
0000
0000
0000
0000
0000
0F80
1FC0
38E0
3060
3060
3060
3760
3760
3060
3060
3060
38E0
1FC0
0F80
0000
0000
0000
0000
0000
ENDCHAR
STARTCHAR U+0399
ENCODING 921
SWIDTH 500 0
DWIDTH 12 0
BBX 12 24 0 -2
BITMAP 
0000
0000
0000
0000
0000
1F80
1F80
0600
0600
0600
0600
0600
0600
0600
0600
0600
0600
1F80
1F80
0000
0000
0000
0000
0000
ENDCHAR
STARTCHAR U+039A
ENCODING 922
SWIDTH 500 0
DWIDTH 12 0
BBX 12 24 0 -2
BITMAP 
0000
0000
0000
0000
0000
3060
30C0
3180
3300
3600
3C00
3800
3C00
3600
3300
3180
30C0
3060
3020
0000
0000
0000
0000
0000
ENDCHAR
STARTCHAR U+039B
ENCODING 923
SWIDTH 500 0
DWIDTH 12 0
BBX 12 24 0 -2
BITMAP 
0000
0000
0000
0000
0000
0700
0700
0700
0D80
0D80
0D80
18C0
18C0
18C0
18C0
3060
3060
3060
3060
0000
0000
0000
0000
0000
ENDCHAR
STARTCHAR U+039C
ENCODING 924
SWIDTH 500 0
DWIDTH 12 0
BBX 12 24 0 -2
BITMAP 
0000
0000
0000
0000
0000
3060
38E0
38E0
3DE0
3FE0
3760
3760
3260
3060
3060
3060
3060
3060
3060
0000
0000
0000
0000
0000
ENDCHAR
STARTCHAR U+039D
ENCODING 925
SWIDTH 500 0
DWIDTH 12 0
BBX 12 24 0 -2
BITMAP 
0000
0000
0000
0000
0000
3060
3860
3860
3C60
3C60
3660
3660
3360
3360
31E0
31E0
30E0
30E0
3060
0000
0000
0000
0000
0000
ENDCHAR
STARTCHAR U+039E
ENCODING 926
SWIDTH 500 0
DWIDTH 12 0
BBX 12 24 0 -2
BITMAP 
0000
0000
0000
0000
0000
3FE0
3FE0
0000
0000
0000
0000
1FC0
1FC0
0000
0000
0000
0000
3FE0
3FE0
0000
0000
0000
0000
0000
ENDCHAR
STARTCHAR U+039F
ENCODING 927
SWIDTH 500 0
DWIDTH 12 0
BBX 12 24 0 -2
BITMAP 
0000
0000
0000
0000
0000
0F80
1FC0
3860
3060
3060
3060
3060
3060
3060
3060
3060
38E0
1FC0
0F80
0000
0000
0000
0000
0000
ENDCHAR
STARTCHAR U+03A0
ENCODING 928
SWIDTH 500 0
DWIDTH 12 0
BBX 12 24 0 -2
BITMAP 
0000
0000
0000
0000
0000
7FE0
7FE0
30C0
30C0
30C0
30C0
30C0
30C0
30C0
30C0
30C0
30C0
30C0
30C0
0000
0000
0000
0000
0000
ENDCHAR
STARTCHAR U+03A1
ENCODING 929
SWIDTH 500 0
DWIDTH 12 0
BBX 12 24 0 -2
BITMAP 
0000
0000
0000
0000
0000
3F80
3FC0
30E0
3060
3060
30E0
3FC0
3F80
3000
3000
3000
3000
3000
3000
0000
0000
0000
0000
0000
ENDCHAR
STARTCHAR U+03A3
ENCODING 931
SWIDTH 500 0
DWIDTH 12 0
BBX 12 24 0 -2
BITMAP 
0000
0000
0000
0000
0000
3FE0
3FE0
3800
1C00
0E00
0700
0380
0380
0700
0E00
1C00
3800
3FE0
3FE0
0000
0000
0000
0000
0000
ENDCHAR
STARTCHAR U+03A4
ENCODING 932
SWIDTH 500 0
DWIDTH 12 0
BBX 12 24 0 -2
BITMAP 
0000
0000
0000
0000
0000
7FE0
7FE0
0600
0600
0600
0600
0600
0600
0600
0600
0600
0600
0600
0600
0000
0000
0000
0000
0000
ENDCHAR
STARTCHAR U+03A5
ENCODING 933
SWIDTH 500 0
DWIDTH 12 0
BBX 12 24 0 -2
BITMAP 
0000
0000
0000
0000
0000
6060
6060
30C0
30C0
1980
1F80
0F00
0600
0600
0600
0600
0600
0600
0600
0000
0000
0000
0000
0000
ENDCHAR
STARTCHAR U+03A6
ENCODING 934
SWIDTH 500 0
DWIDTH 12 0
BBX 12 24 0 -2
BITMAP 
0000
0000
0000
0000
0000
0600
0600
1F80
3FC0
6660
6660
6660
6660
6660
6660
3FC0
1F80
0600
0600
0000
0000
0000
0000
0000
ENDCHAR
STARTCHAR U+03A7
ENCODING 935
SWIDTH 500 0
DWIDTH 12 0
BBX 12 24 0 -2
BITMAP 
0000
0000
0000
0000
0000
3060
3060
18C0
18C0
0D80
0D80
0700
0700
0D80
0D80
18C0
18C0
3060
3060
0000
0000
0000
0000
0000
ENDCHAR
STARTCHAR U+03A8
ENCODING 936
SWIDTH 500 0
DWIDTH 12 0
BBX 12 24 0 -2
BITMAP 
0000
0000
0000
0000
0000
6660
6660
6660
6660
6660
6660
76E0
3FC0
1F80
0600
0600
0600
0600
0600
0000
0000
0000
0000
0000
ENDCHAR
STARTCHAR U+03A9
ENCODING 937
SWIDTH 500 0
DWIDTH 12 0
BBX 12 24 0 -2
BITMAP 
0000
0000
0000
0000
0000
0F80
1FC0
38E0
3060
3060
3060
3060
3060
38E0
18C0
0D80
0D80
3DE0
3DE0
0000
0000
0000
0000
0000
ENDCHAR
STARTCHAR U+03AA
ENCODING 938
SWIDTH 500 0
DWIDTH 12 0
BBX 12 24 0 -2
BITMAP 
0000
1980
1980
0000
0000
1F80
1F80
0600
0600
0600
0600
0600
0600
0600
0600
0600
0600
1F80
1F80
0000
0000
0000
0000
0000
ENDCHAR
STARTCHAR U+03AB
ENCODING 939
SWIDTH 500 0
DWIDTH 12 0
BBX 12 24 0 -2
BITMAP 
0000
1980
1980
0000
0000
6060
6060
30C0
30C0
1980
1F80
0F00
0600
0600
0600
0600
0600
0600
0600
0000
0000
0000
0000
0000
ENDCHAR
STARTCHAR U+03AC
ENCODING 940
SWIDTH 500 0
DWIDTH 12 0
BBX 12 24 0 -2
BITMAP 
0000
0000
0000
0600
0600
0600
0600
0000
0000
1C60
3E60
6340
61C0
6180
6180
61C0
6340
3E60
1C60
0000
0000
0000
0000
0000
ENDCHAR
STARTCHAR U+03AD
ENCODING 941
SWIDTH 500 0
DWIDTH 12 0
BBX 12 24 0 -2
BITMAP 
0000
0000
0000
0600
0600
0600
0600
0000
0000
0F80
1FC0
3000
3000
3F80
3F80
3000
3000
1FC0
0F80
0000
0000
0000
0000
0000
ENDCHAR
STARTCHAR U+03AE
ENCODING 942
SWIDTH 500 0
DWIDTH 12 0
BBX 12 24 0 -2
BITMAP 
0000
0000
0000
0600
0600
0600
0600
0000
0000
3380
37C0
3C60
3860
3060
3060
3060
3060
3060
3060
0060
0060
0060
0060
0060
ENDCHAR
STARTCHAR U+03AF
ENCODING 943
SWIDTH 500 0
DWIDTH 12 0
BBX 12 24 0 -2
BITMAP 
0000
0000
0000
0600
0600
0600
0600
0000
0000
0600
0600
0600
0600
0600
0600
0600
0600
0780
0380
0000
0000
0000
0000
0000
ENDCHAR
STARTCHAR U+03B0
ENCODING 944
SWIDTH 500 0
DWIDTH 12 0
BBX 12 24 0 -2
BITMAP 
0600
0600
0600
0600
0000
18C0
18C0
0000
0000
3060
3060
3060
3060
3060
3060
3060
38E0
1FC0
0F80
0000
0000
0000
0000
0000
ENDCHAR
STARTCHAR U+03B1
ENCODING 945
SWIDTH 500 0
DWIDTH 12 0
BBX 12 24 0 -2
BITMAP 
0000
0000
0000
0000
0000
0000
0000
0000
0000
1C60
3E60
6340
61C0
6180
6180
61C0
6340
3E60
1C60
0000
0000
0000
0000
0000
ENDCHAR
STARTCHAR U+03B2
ENCODING 946
SWIDTH 500 0
DWIDTH 12 0
BBX 12 24 0 -2
BITMAP 
0000
0000
0000
0000
0000
0E00
1F80
39C0
30C0
30C0
30C0
3F80
3FC0
3060
3060
3060
30E0
3FC0
3F80
3000
3000
3000
3000
0000
ENDCHAR
STARTCHAR U+03B3
ENCODING 947
SWIDTH 500 0
DWIDTH 12 0
BBX 12 24 0 -2
BITMAP 
0000
0000
0000
0000
0000
0000
0000
0000
0000
1C60
3C60
36C0
06C0
0380
0380
0300
0300
0600
0600
0C00
0C00
0000
0000
0000
ENDCHAR
STARTCHAR U+03B4
ENCODING 948
SWIDTH 500 0
DWIDTH 12 0
BBX 12 24 0 -2
BITMAP 
0000
0000
0000
0000
0000
0F80
1F80
1800
1800
0C00
0F80
1FC0
38E0
3060
3060
3060
38E0
1FC0
0F80
0000
0000
0000
0000
0000
ENDCHAR
STARTCHAR U+03B5
ENCODING 949
SWIDTH 500 0
DWIDTH 12 0
BBX 12 24 0 -2
BITMAP 
0000
0000
0000
0000
0000
0000
0000
0000
0000
0F80
1FC0
3800
3000
3F80
3F80
3000
3800
1FC0
0F80
0000
0000
0000
0000
0000
ENDCHAR
STARTCHAR U+03B6
ENCODING 950
SWIDTH 500 0
DWIDTH 12 0
BBX 12 24 0 -2
BITMAP 
0000
0000
0000
0000
0000
1F80
1F80
0700
0600
0E00
0C00
1C00
1800
1800
3000
3000
3000
3F80
1FC0
0060
0060
0060
07C0
0780
ENDCHAR
STARTCHAR U+03B7
ENCODING 951
SWIDTH 500 0
DWIDTH 12 0
BBX 12 24 0 -2
BITMAP 
0000
0000
0000
0000
0000
0000
0000
0000
0000
3380
37C0
3C60
3860
3060
3060
3060
3060
3060
3060
0060
0060
0060
0060
0060
ENDCHAR
STARTCHAR U+03B8
ENCODING 952
SWIDTH 500 0
DWIDTH 12 0
BBX 12 24 0 -2
BITMAP 
0000
0000
0000
0000
0000
0F00
1F80
1980
30C0
30C0
30C0
3FC0
3FC0
30C0
30C0
30C0
1980
1F80
0F00
0000
0000
0000
0000
0000
ENDCHAR
STARTCHAR U+03B9
ENCODING 953
SWIDTH 500 0
DWIDTH 12 0
BBX 12 24 0 -2
BITMAP 
0000
0000
0000
0000
0000
0000
0000
0000
0000
0600
0600
0600
0600
0600
0600
0600
0600
0780
0380
0000
0000
0000
0000
0000
ENDCHAR
STARTCHAR U+03BA
ENCODING 954
SWIDTH 500 0
DWIDTH 12 0
BBX 12 24 0 -2
BITMAP 
0000
0000
0000
0000
0000
0000
0000
0000
0000
30C0
31C0
3380
3700
3E00
3E00
3700
3380
31C0
30C0
0000
0000
0000
0000
0000
ENDCHAR
STARTCHAR U+03BB
ENCODING 955
SWIDTH 500 0
DWIDTH 12 0
BBX 12 24 0 -2
BITMAP 
0000
0000
0000
0000
0000
1C00
1C00
0600
0600
0300
0300
0780
0780
0D80
0CC0
18C0
18C0
3060
3060
0000
0000
0000
0000
0000
ENDCHAR
STARTCHAR U+03BC
ENCODING 956
SWIDTH 500 0
DWIDTH 12 0
BBX 12 24 0 -2
BITMAP 
0000
0000
0000
0000
0000
0000
0000
0000
0000
3060
3060
3060
3060
3060
38E0
3DE0
3FE0
3760
3060
3000
3000
3000
3000
3000
ENDCHAR
STARTCHAR U+03BD
ENCODING 957
SWIDTH 500 0
DWIDTH 12 0
BBX 12 24 0 -2
BITMAP 
0000
0000
0000
0000
0000
0000
0000
0000
0000
3060
3060
3060
3060
30E0
30C0
31C0
3780
3F00
3C00
0000
0000
0000
0000
0000
ENDCHAR
STARTCHAR U+03BE
ENCODING 958
SWIDTH 500 0
DWIDTH 12 0
BBX 12 24 0 -2
BITMAP 
0000
0000
0000
0000
0000
1800
1800
0FC0
1FC0
3000
3000
3000
1FE0
1FE0
3000
3000
3000
1F80
0FC0
0060
0060
0060
0FC0
0F80
ENDCHAR
STARTCHAR U+03BF
ENCODING 959
SWIDTH 500 0
DWIDTH 12 0
BBX 12 24 0 -2
BITMAP 
0000
0000
0000
0000
0000
0000
0000
0000
0000
0F80
1FC0
38E0
3060
3060
3060
3060
38E0
1FC0
0F80
0000
0000
0000
0000
0000
ENDCHAR
STARTCHAR U+03C0
ENCODING 960
SWIDTH 500 0
DWIDTH 12 0
BBX 12 24 0 -2
BITMAP 
0000
0000
0000
0000
0000
0000
0000
0000
0000
7FE0
7FE0
1980
1980
1980
1980
1980
1980
1980
1980
0000
0000
0000
0000
0000
ENDCHAR
STARTCHAR U+03C1
ENCODING 961
SWIDTH 500 0
DWIDTH 12 0
BBX 12 24 0 -2
BITMAP 
0000
0000
0000
0000
0000
0000
0000
0000
0000
0F80
1FC0
38E0
3060
3060
3060
3060
38E0
3FC0
3780
3000
3000
3000
3000
3000
ENDCHAR
STARTCHAR U+03C2
ENCODING 962
SWIDTH 500 0
DWIDTH 12 0
BBX 12 24 0 -2
BITMAP 
0000
0000
0000
0000
0000
0000
0000
0000
0000
0FC0
1FE0
3860
3000
3000
3000
3800
1C00
0FC0
07E0
0060
1FE0
1FC0
0000
0000
ENDCHAR
STARTCHAR U+03C3
ENCODING 963
SWIDTH 500 0
DWIDTH 12 0
BBX 12 24 0 -2
BITMAP 
0000
0000
0000
0000
0000
0000
0000
0000
0000
1FE0
3FE0
7300
6180
6180
6180
6180
7380
3F00
1E00
0000
0000
0000
0000
0000
ENDCHAR
STARTCHAR U+03C4
ENCODING 964
SWIDTH 500 0
DWIDTH 12 0
BBX 12 24 0 -2
BITMAP 
0000
0000
0000
0000
0000
0000
0000
0000
0000
3FC0
3FC0
0600
0600
0600
0600
0600
0600
0600
0600
0000
0000
0000
0000
0000
ENDCHAR
STARTCHAR U+03C5
ENCODING 965
SWIDTH 500 0
DWIDTH 12 0
BBX 12 24 0 -2
BITMAP 
0000
0000
0000
0000
0000
0000
0000
0000
0000
3060
3060
3060
3060
3060
3060
3060
38E0
1FC0
0F80
0000
0000
0000
0000
0000
ENDCHAR
STARTCHAR U+03C6
ENCODING 966
SWIDTH 500 0
DWIDTH 12 0
BBX 12 24 0 -2
BITMAP 
0000
0000
0000
0000
0000
0000
0000
0000
0000
1F80
3FC0
76E0
6660
6660
6660
6660
76E0
3FC0
1F80
0600
0600
0600
0600
0600
ENDCHAR
STARTCHAR U+03C7
ENCODING 967
SWIDTH 500 0
DWIDTH 12 0
BBX 12 24 0 -2
BITMAP 
0000
0000
0000
0000
0000
0000
0000
0000
0000
3060
3060
18C0
18C0
0D80
0D80
0700
0700
0700
0D80
0D80
18C0
18C0
3060
3060
ENDCHAR
STARTCHAR U+03C8
ENCODING 968
SWIDTH 500 0
DWIDTH 12 0
BBX 12 24 0 -2
BITMAP 
0000
0000
0000
0000
0000
0000
0600
0600
0600
6660
6660
6660
6660
6660
6660
6660
76E0
3FC0
1F80
0600
0600
0600
0600
0600
ENDCHAR
STARTCHAR U+03C9
ENCODING 969
SWIDTH 500 0
DWIDTH 12 0
BBX 12 24 0 -2
BITMAP 
0000
0000
0000
0000
0000
0000
0000
0000
0000
30C0
30C0
6060
6660
6660
6660
6660
6660
3FC0
1980
0000
0000
0000
0000
0000
ENDCHAR
STARTCHAR U+03CA
ENCODING 970
SWIDTH 500 0
DWIDTH 12 0
BBX 12 24 0 -2
BITMAP 
0000
0000
0000
0000
0000
1980
1980
0000
0000
0600
0600
0600
0600
0600
0600
0600
0600
0780
0380
0000
0000
0000
0000
0000
ENDCHAR
STARTCHAR U+03CB
ENCODING 971
SWIDTH 500 0
DWIDTH 12 0
BBX 12 24 0 -2
BITMAP 
0000
0000
0000
0000
0000
18C0
18C0
0000
0000
3060
3060
3060
3060
3060
3060
3060
38E0
1FC0
0F80
0000
0000
0000
0000
0000
ENDCHAR
STARTCHAR U+03CC
ENCODING 972
SWIDTH 500 0
DWIDTH 12 0
BBX 12 24 0 -2
BITMAP 
0000
0000
0000
0600
0600
0600
0600
0000
0000
0F80
1FC0
38E0
3060
3060
3060
3060
38E0
1FC0
0F80
0000
0000
0000
0000
0000
ENDCHAR
STARTCHAR U+03CD
ENCODING 973
SWIDTH 500 0
DWIDTH 12 0
BBX 12 24 0 -2
BITMAP 
0000
0000
0000
0600
0600
0600
0600
0000
0000
3060
3060
3060
3060
3060
3060
3060
38E0
1FC0
0F80
0000
0000
0000
0000
0000
ENDCHAR
STARTCHAR U+03CE
ENCODING 974
SWIDTH 500 0
DWIDTH 12 0
BBX 12 24 0 -2
BITMAP 
0000
0000
0000
0600
0600
0600
0600
0000
0000
30C0
30C0
6060
6060
6660
6660
6660
6660
3FC0
1980
0000
0000
0000
0000
0000
ENDCHAR
STARTCHAR U+0401
ENCODING 1025
SWIDTH 500 0
DWIDTH 12 0
BBX 12 24 0 -2
BITMAP 
0000
18C0
18C0
0000
0000
3FE0
3FE0
3000
3000
3000
3000
3F80
3F80
3000
3000
3000
3000
3FE0
3FE0
0000
0000
0000
0000
0000
ENDCHAR
STARTCHAR U+0402
ENCODING 1026
SWIDTH 500 0
DWIDTH 12 0
BBX 12 24 0 -2
BITMAP 
0000
0000
0000
0000
0000
7FC0
7FC0
0C00
0C00
0C00
0C00
0FC0
0FE0
0C60
0C60
0C60
0C60
0FE0
0FC0
0000
0000
0000
0000
0000
ENDCHAR
STARTCHAR U+0403
ENCODING 1027
SWIDTH 500 0
DWIDTH 12 0
BBX 12 24 0 -2
BITMAP 
0300
0700
0C00
0000
0000
3FE0
3FE0
3000
3000
3000
3000
3000
3000
3000
3000
3000
3000
3000
3000
0000
0000
0000
0000
0000
ENDCHAR
STARTCHAR U+0404
ENCODING 1028
SWIDTH 500 0
DWIDTH 12 0
BBX 12 24 0 -2
BITMAP 
0000
0000
0000
0000
0000
0F80
1FC0
38C0
3060
3000
3000
3F80
3F80
3000
3000
3060
38E0
1FC0
0F80
0000
0000
0000
0000
0000
ENDCHAR
STARTCHAR U+0405
ENCODING 1029
SWIDTH 500 0
DWIDTH 12 0
BBX 12 24 0 -2
BITMAP 
0000
0000
0000
0000
0000
0F80
1FC0
30E0
3060
3000
3800
1F80
0FC0
00E0
0060
3060
30E0
3FC0
1F80
0000
0000
0000
0000
0000
ENDCHAR
STARTCHAR U+0406
ENCODING 1030
SWIDTH 500 0
DWIDTH 12 0
BBX 12 24 0 -2
BITMAP 
0000
0000
0000
0000
0000
1F80
1F80
0600
0600
0600
0600
0600
0600
0600
0600
0600
0600
1F80
1F80
0000
0000
0000
0000
0000
ENDCHAR
STARTCHAR U+0407
ENCODING 1031
SWIDTH 500 0
DWIDTH 12 0
BBX 12 24 0 -2
BITMAP 
0000
1980
1980
0000
0000
1F80
1F80
0600
0600
0600
0600
0600
0600
0600
0600
0600
0600
1F80
1F80
0000
0000
0000
0000
0000
ENDCHAR
STARTCHAR U+0408
ENCODING 1032
SWIDTH 500 0
DWIDTH 12 0
BBX 12 24 0 -2
BITMAP 
0000
0000
0000
0000
0000
0060
0060
0060
0060
0060
0060
0060
0060
0060
0060
3060
30E0
1FC0
0F80
0000
0000
0000
0000
0000
ENDCHAR
STARTCHAR U+0409
ENCODING 1033
SWIDTH 500 0
DWIDTH 12 0
BBX 12 24 0 -2
BITMAP 
0000
0000
0000
0000
0000
1F00
1F00
1B00
1B00
1B00
1B00
1BC0
1BE0
1B60
1B60
1B60
1B60
7BE0
63C0
0000
0000
0000
0000
0000
ENDCHAR
STARTCHAR U+040A
ENCODING 1034
SWIDTH 500 0
DWIDTH 12 0
BBX 12 24 0 -2
BITMAP 
0000
0000
0000
0000
0000
6600
6600
6600
6600
6600
6600
7FC0
7FE0
6660
6660
6660
6660
67E0
67C0
0000
0000
0000
0000
0000
ENDCHAR
STARTCHAR U+040B
ENCODING 1035
SWIDTH 500 0
DWIDTH 12 0
BBX 12 24 0 -2
BITMAP 
0000
0000
0000
0000
0000
7FC0
7FC0
0C00
0C00
0C00
0C00
0DC0
0FE0
0E60
0C60
0C60
0C60
0C60
0C60
0000
0000
0000
0000
0000
ENDCHAR
STARTCHAR U+040C
ENCODING 1036
SWIDTH 500 0
DWIDTH 12 0
BBX 12 24 0 -2
BITMAP 
0300
0700
0C00
0000
0000
3060
30E0
3180
3180
3300
3300
3E00
3E00
3300
3180
3180
30C0
3060
3060
0000
0000
0000
0000
0000
ENDCHAR
STARTCHAR U+040E
ENCODING 1038
SWIDTH 500 0
DWIDTH 12 0
BBX 12 24 0 -2
BITMAP 
18C0
18C0
0F80
0000
0000
3060
3060
3060
38E0
18C0
1DC0
0D80
0F80
0700
0700
0600
0E00
3C00
3800
0000
0000
0000
0000
0000
ENDCHAR
STARTCHAR U+040F
ENCODING 1039
SWIDTH 500 0
DWIDTH 12 0
BBX 12 24 0 -2
BITMAP 
0000
0000
0000
0000
0000
30C0
30C0
30C0
30C0
30C0
30C0
30C0
30C0
3FC0
3FC0
0600
0600
0600
0600
0000
0000
0000
0000
0000
ENDCHAR
STARTCHAR U+0410
ENCODING 1040
SWIDTH 500 0
DWIDTH 12 0
BBX 12 24 0 -2
BITMAP 
0000
0000
0000
0000
0000
0F80
1FC0
38E0
3060
3060
3060
3FE0
3FE0
3060
3060
3060
3060
3060
3060
0000
0000
0000
0000
0000
ENDCHAR
STARTCHAR U+0411
ENCODING 1041
SWIDTH 500 0
DWIDTH 12 0
BBX 12 24 0 -2
BITMAP 
0000
0000
0000
0000
0000
3F80
3F80
3000
3000
3000
3000
3F80
3FC0
30E0
3060
3060
30E0
3FC0
3F80
0000
0000
0000
0000
0000
ENDCHAR
STARTCHAR U+0412
ENCODING 1042
SWIDTH 500 0
DWIDTH 12 0
BBX 12 24 0 -2
BITMAP 
0000
0000
0000
0000
0000
3F00
3F80
31C0
30C0
30C0
3180
3F80
3FC0
30C0
3060
3060
30E0
3FC0
3F80
0000
0000
0000
0000
0000
ENDCHAR
STARTCHAR U+0413
ENCODING 1043
SWIDTH 500 0
DWIDTH 12 0
BBX 12 24 0 -2
BITMAP 
0000
0000
0000
0000
0000
3FE0
3FE0
3000
3000
3000
3000
3000
3000
3000
3000
3000
3000
3000
3000
0000
0000
0000
0000
0000
ENDCHAR
STARTCHAR U+0414
ENCODING 1044
SWIDTH 500 0
DWIDTH 12 0
BBX 12 24 0 -2
BITMAP 
0000
0000
0000
0000
0000
07C0
0FC0
0CC0
0CC0
18C0
18C0
18C0
30C0
30C0
30C0
60C0
60C0
7FC0
7FC0
0060
0020
0000
0000
0000
ENDCHAR
STARTCHAR U+0415
ENCODING 1045
SWIDTH 500 0
DWIDTH 12 0
BBX 12 24 0 -2
BITMAP 
0000
0000
0000
0000
0000
3FE0
3FE0
3000
3000
3000
3000
3F80
3F80
3000
3000
3000
3000
3FE0
3FE0
0000
0000
0000
0000
0000
ENDCHAR
STARTCHAR U+0416
ENCODING 1046
SWIDTH 500 0
DWIDTH 12 0
BBX 12 24 0 -2
BITMAP 
0000
0000
0000
0000
0000
6660
6660
36C0
36C0
36C0
1F80
1F80
0F00
1F80
1F80
36C0
36C0
6660
6660
0000
0000
0000
0000
0000
ENDCHAR
STARTCHAR U+0417
ENCODING 1047
SWIDTH 500 0
DWIDTH 12 0
BBX 12 24 0 -2
BITMAP 
0000
0000
0000
0000
0000
0F80
1FC0
3060
3060
0060
00C0
0780
0780
00C0
0060
3060
3060
1FC0
0F80
0000
0000
0000
0000
0000
ENDCHAR
STARTCHAR U+0418
ENCODING 1048
SWIDTH 500 0
DWIDTH 12 0
BBX 12 24 0 -2
BITMAP 
0000
0000
0000
0000
0000
3060
30E0
30E0
31E0
31E0
3360
3360
3660
3660
3C60
3C60
3860
3860
3060
0000
0000
0000
0000
0000
ENDCHAR
STARTCHAR U+0419
ENCODING 1049
SWIDTH 500 0
DWIDTH 12 0
BBX 12 24 0 -2
BITMAP 
18C0
18C0
0F80
0000
0000
3060
30E0
30E0
31E0
31E0
3360
3360
3660
3660
3C60
3C60
3860
3860
3060
0000
0000
0000
0000
0000
ENDCHAR
STARTCHAR U+041A
ENCODING 1050
SWIDTH 500 0
DWIDTH 12 0
BBX 12 24 0 -2
BITMAP 
0000
0000
0000
0000
0000
3060
30E0
3180
3180
3300
3300
3E00
3E00
3300
3180
3180
30C0
3060
3060
0000
0000
0000
0000
0000
ENDCHAR
STARTCHAR U+041B
ENCODING 1051
SWIDTH 500 0
DWIDTH 12 0
BBX 12 24 0 -2
BITMAP 
0000
0000
0000
0000
0000
0FE0
0FE0
0C60
0C60
0C60
0C60
0C60
0C60
0C60
0C60
0C60
1860
3860
3060
0000
0000
0000
0000
0000
ENDCHAR
STARTCHAR U+041C
ENCODING 1052
SWIDTH 500 0
DWIDTH 12 0
BBX 12 24 0 -2
BITMAP 
0000
0000
0000
0000
0000
3060
38E0
38E0
3DE0
3FE0
3760
3760
3260
3060
3060
3060
3060
3060
3060
0000
0000
0000
0000
0000
ENDCHAR
STARTCHAR U+041D
ENCODING 1053
SWIDTH 500 0
DWIDTH 12 0
BBX 12 24 0 -2
BITMAP 
0000
0000
0000
0000
0000
3060
3060
3060
3060
3060
3060
3FE0
3FE0
3060
3060
3060
3060
3060
3060
0000
0000
0000
0000
0000
ENDCHAR
STARTCHAR U+041E
ENCODING 1054
SWIDTH 500 0
DWIDTH 12 0
BBX 12 24 0 -2
BITMAP 
0000
0000
0000
0000
0000
0F80
1FC0
38E0
3060
3060
3060
3060
3060
3060
3060
3060
38E0
1FC0
0F80
0000
0000
0000
0000
0000
ENDCHAR
STARTCHAR U+041F
ENCODING 1055
SWIDTH 500 0
DWIDTH 12 0
BBX 12 24 0 -2
BITMAP 
0000
0000
0000
0000
0000
3FE0
3FE0
3060
3060
3060
3060
3060
3060
3060
3060
3060
3060
3060
3060
0000
0000
0000
0000
0000
ENDCHAR
STARTCHAR U+0420
ENCODING 1056
SWIDTH 500 0
DWIDTH 12 0
BBX 12 24 0 -2
BITMAP 
0000
0000
0000
0000
0000
3F80
3FC0
30E0
3060
3060
30E0
3FC0
3F80
3000
3000
3000
3000
3000
3000
0000
0000
0000
0000
0000
ENDCHAR
STARTCHAR U+0421
ENCODING 1057
SWIDTH 500 0
DWIDTH 12 0
BBX 12 24 0 -2
BITMAP 
0000
0000
0000
0000
0000
0F80
1FC0
38E0
3060
3000
3000
3000
3000
3000
3000
3060
38E0
1FC0
0F80
0000
0000
0000
0000
0000
ENDCHAR
STARTCHAR U+0422
ENCODING 1058
SWIDTH 500 0
DWIDTH 12 0
BBX 12 24 0 -2
BITMAP 
0000
0000
0000
0000
0000
7FE0
7FE0
0600
0600
0600
0600
0600
0600
0600
0600
0600
0600
0600
0600
0000
0000
0000
0000
0000
ENDCHAR
STARTCHAR U+0423
ENCODING 1059
SWIDTH 500 0
DWIDTH 12 0
BBX 12 24 0 -2
BITMAP 
0000
0000
0000
0000
0000
3060
3060
3060
38E0
18C0
1DC0
0D80
0F80
0700
0700
0600
0E00
3C00
3800
0000
0000
0000
0000
0000
ENDCHAR
STARTCHAR U+0424
ENCODING 1060
SWIDTH 500 0
DWIDTH 12 0
BBX 12 24 0 -2
BITMAP 
0000
0000
0000
0000
0600
0600
0600
1F80
3FC0
6660
6660
6660
6660
6660
6660
3FC0
1F80
0600
0600
0600
0000
0000
0000
0000
ENDCHAR
STARTCHAR U+0425
ENCODING 1061
SWIDTH 500 0
DWIDTH 12 0
BBX 12 24 0 -2
BITMAP 
0000
0000
0000
0000
0000
3060
3060
18C0
18C0
0D80
0D80
0700
0700
0D80
0D80
18C0
18C0
3060
3060
0000
0000
0000
0000
0000
ENDCHAR
STARTCHAR U+0426
ENCODING 1062
SWIDTH 500 0
DWIDTH 12 0
BBX 12 24 0 -2
BITMAP 
0000
0000
0000
0000
0000
30C0
30C0
30C0
30C0
30C0
30C0
30C0
30C0
30C0
30C0
30C0
30C0
3FC0
3FC0
00C0
00C0
0060
0000
0000
ENDCHAR
STARTCHAR U+0427
ENCODING 1063
SWIDTH 500 0
DWIDTH 12 0
BBX 12 24 0 -2
BITMAP 
0000
0000
0000
0000
0000
3060
3060
3060
3060
3060
3060
30E0
39E0
1F60
0E60
0060
0060
0060
0060
0000
0000
0000
0000
0000
ENDCHAR
STARTCHAR U+0428
ENCODING 1064
SWIDTH 500 0
DWIDTH 12 0
BBX 12 24 0 -2
BITMAP 
0000
0000
0000
0000
0000
6660
6660
6660
6660
6660
6660
6660
6660
6660
6660
6660
6660
7FE0
7FE0
0000
0000
0000
0000
0000
ENDCHAR
STARTCHAR U+0429
ENCODING 1065
SWIDTH 500 0
DWIDTH 12 0
BBX 12 24 0 -2
BITMAP 
0000
0000
0000
0000
0000
6660
6660
6660
6660
6660
6660
6660
6660
6660
6660
6660
6660
7FE0
7FE0
0060
0060
0030
0000
0000
ENDCHAR
STARTCHAR U+042A
ENCODING 1066
SWIDTH 500 0
DWIDTH 12 0
BBX 12 24 0 -2
BITMAP 
0000
0000
0000
0000
0000
7800
7800
1800
1800
1800
1F80
1FC0
18E0
1860
1860
1860
18E0
1FC0
1F80
0000
0000
0000
0000
0000
ENDCHAR
STARTCHAR U+042B
ENCODING 1067
SWIDTH 500 0
DWIDTH 12 0
BBX 12 24 0 -2
BITMAP 
0000
0000
0000
0000
0000
3060
3060
3060
3060
3060
3E60
3F60
3360
3360
3360
3360
3360
3F60
3E60
0000
0000
0000
0000
0000
ENDCHAR
STARTCHAR U+042C
ENCODING 1068
SWIDTH 500 0
DWIDTH 12 0
BBX 12 24 0 -2
BITMAP 
0000
0000
0000
0000
0000
3000
3000
3000
3000
3000
3F00
3F80
31C0
30C0
30C0
30C0
31C0
3F80
3F00
0000
0000
0000
0000
0000
ENDCHAR
STARTCHAR U+042D
ENCODING 1069
SWIDTH 500 0
DWIDTH 12 0
BBX 12 24 0 -2
BITMAP 
0000
0000
0000
0000
0000
0F00
3FC0
30C0
0060
0060
0060
0FE0
0FE0
0060
0060
0060
30C0
3FC0
0F00
0000
0000
0000
0000
0000
ENDCHAR
STARTCHAR U+042E
ENCODING 1070
SWIDTH 500 0
DWIDTH 12 0
BBX 12 24 0 -2
BITMAP 
0000
0000
0000
0000
0000
6380
67C0
6C60
6C60
6C60
6C60
7C60
7C60
6C60
6C60
6C60
6C60
67C0
6380
0000
0000
0000
0000
0000
ENDCHAR
STARTCHAR U+042F
ENCODING 1071
SWIDTH 500 0
DWIDTH 12 0
BBX 12 24 0 -2
BITMAP 
0000
0000
0000
0000
0000
0FE0
1FE0
3860
3060
3060
3860
1FE0
0FE0
0C60
0C60
1860
1860
3060
3060
0000
0000
0000
0000
0000
ENDCHAR
STARTCHAR U+0430
ENCODING 1072
SWIDTH 500 0
DWIDTH 12 0
BBX 12 24 0 -2
BITMAP 
0000
0000
0000
0000
0000
0000
0000
0000
0000
0780
0FC0
1860
0060
07E0
1FE0
3060
30E0
3FE0
1F60
0000
0000
0000
0000
0000
ENDCHAR
STARTCHAR U+0431
ENCODING 1073
SWIDTH 500 0
DWIDTH 12 0
BBX 12 24 0 -2
BITMAP 
0000
0000
0000
0000
0000
0FE0
1FE0
3800
3000
3F80
3FC0
38E0
3060
3060
3060
3060
38E0
1FC0
0F80
0000
0000
0000
0000
0000
ENDCHAR
STARTCHAR U+0432
ENCODING 1074
SWIDTH 500 0
DWIDTH 12 0
BBX 12 24 0 -2
BITMAP 
0000
0000
0000
0000
0000
0000
0000
0000
0000
3F00
3F80
30C0
30C0
3F80
3FC0
30E0
3060
3FC0
3F80
0000
0000
0000
0000
0000
ENDCHAR
STARTCHAR U+0433
ENCODING 1075
SWIDTH 500 0
DWIDTH 12 0
BBX 12 24 0 -2
BITMAP 
0000
0000
0000
0000
0000
0000
0000
0000
0000
3FE0
3FE0
3000
3000
3000
3000
3000
3000
3000
3000
0000
0000
0000
0000
0000
ENDCHAR
STARTCHAR U+0434
ENCODING 1076
SWIDTH 500 0
DWIDTH 12 0
BBX 12 24 0 -2
BITMAP 
0000
0000
0000
0000
0000
0000
0000
0000
0000
07E0
07E0
0C60
0C60
1860
1860
3060
3060
3FE0
3FE0
0000
0000
0000
0000
0000
ENDCHAR
STARTCHAR U+0435
ENCODING 1077
SWIDTH 500 0
DWIDTH 12 0
BBX 12 24 0 -2
BITMAP 
0000
0000
0000
0000
0000
0000
0000
0000
0000
0F80
1FC0
3860
3060
3FE0
3FE0
3000
3060
1FE0
0FC0
0000
0000
0000
0000
0000
ENDCHAR
STARTCHAR U+0436
ENCODING 1078
SWIDTH 500 0
DWIDTH 12 0
BBX 12 24 0 -2
BITMAP 
0000
0000
0000
0000
0000
0000
0000
0000
0000
6660
6660
36C0
36C0
1F80
1F80
36C0
36C0
6660
6660
0000
0000
0000
0000
0000
ENDCHAR
STARTCHAR U+0437
ENCODING 1079
SWIDTH 500 0
DWIDTH 12 0
BBX 12 24 0 -2
BITMAP 
0000
0000
0000
0000
0000
0000
0000
0000
0000
0F80
1FC0
3060
0060
07C0
07C0
0060
3060
1FC0
0F80
0000
0000
0000
0000
0000
ENDCHAR
STARTCHAR U+0438
ENCODING 1080
SWIDTH 500 0
DWIDTH 12 0
BBX 12 24 0 -2
BITMAP 
0000
0000
0000
0000
0000
0000
0000
0000
0000
3060
3060
30E0
31E0
3360
3660
3C60
3860
3060
3060
0000
0000
0000
0000
0000
ENDCHAR
STARTCHAR U+0439
ENCODING 1081
SWIDTH 500 0
DWIDTH 12 0
BBX 12 24 0 -2
BITMAP 
0000
0000
0000
0000
18C0
18C0
0F80
0000
0000
3060
3060
30E0
31E0
3360
3660
3C60
3860
3060
3060
0000
0000
0000
0000
0000
ENDCHAR
STARTCHAR U+043A
ENCODING 1082
SWIDTH 500 0
DWIDTH 12 0
BBX 12 24 0 -2
BITMAP 
0000
0000
0000
0000
0000
0000
0000
0000
0000
30E0
31E0
3380
3700
3E00
3F00
3380
31C0
30E0
3060
0000
0000
0000
0000
0000
ENDCHAR
STARTCHAR U+043B
ENCODING 1083
SWIDTH 500 0
DWIDTH 12 0
BBX 12 24 0 -2
BITMAP 
0000
0000
0000
0000
0000
0000
0000
0000
0000
0FE0
0FE0
0C60
0C60
0C60
0C60
0C60
1860
1860
3060
0000
0000
0000
0000
0000
ENDCHAR
STARTCHAR U+043C
ENCODING 1084
SWIDTH 500 0
DWIDTH 12 0
BBX 12 24 0 -2
BITMAP 
0000
0000
0000
0000
0000
0000
0000
0000
0000
3060
38E0
38E0
3DE0
3FE0
3760
3760
3260
3060
3060
0000
0000
0000
0000
0000
ENDCHAR
STARTCHAR U+043D
ENCODING 1085
SWIDTH 500 0
DWIDTH 12 0
BBX 12 24 0 -2
BITMAP 
0000
0000
0000
0000
0000
0000
0000
0000
0000
3060
3060
3060
3060
3FE0
3FE0
3060
3060
3060
3060
0000
0000
0000
0000
0000
ENDCHAR
STARTCHAR U+043E
ENCODING 1086
SWIDTH 500 0
DWIDTH 12 0
BBX 12 24 0 -2
BITMAP 
0000
0000
0000
0000
0000
0000
0000
0000
0000
0F80
1FC0
38E0
3060
3060
3060
3060
38E0
1FC0
0F80
0000
0000
0000
0000
0000
ENDCHAR
STARTCHAR U+043F
ENCODING 1087
SWIDTH 500 0
DWIDTH 12 0
BBX 12 24 0 -2
BITMAP 
0000
0000
0000
0000
0000
0000
0000
0000
0000
3FE0
3FE0
3060
3060
3060
3060
3060
3060
3060
3060
0000
0000
0000
0000
0000
ENDCHAR
STARTCHAR U+0440
ENCODING 1088
SWIDTH 500 0
DWIDTH 12 0
BBX 12 24 0 -2
BITMAP 
0000
0000
0000
0000
0000
0000
0000
0000
0000
3380
37C0
3CE0
3860
3060
3060
3860
3CE0
37C0
3380
3000
3000
3000
3000
0000
ENDCHAR
STARTCHAR U+0441
ENCODING 1089
SWIDTH 500 0
DWIDTH 12 0
BBX 12 24 0 -2
BITMAP 
0000
0000
0000
0000
0000
0000
0000
0000
0000
07C0
1FC0
3860
3060
3000
3000
3000
3860
1FE0
0FC0
0000
0000
0000
0000
0000
ENDCHAR
STARTCHAR U+0442
ENCODING 1090
SWIDTH 500 0
DWIDTH 12 0
BBX 12 24 0 -2
BITMAP 
0000
0000
0000
0000
0000
0000
0000
0000
0000
7FE0
7FE0
0600
0600
0600
0600
0600
0600
0600
0600
0000
0000
0000
0000
0000
ENDCHAR
STARTCHAR U+0443
ENCODING 1091
SWIDTH 500 0
DWIDTH 12 0
BBX 12 24 0 -2
BITMAP 
0000
0000
0000
0000
0000
0000
0000
0000
0000
3060
3060
3060
38E0
18C0
1DC0
0D80
0F80
0700
0700
0600
0E00
0C00
1C00
1800
ENDCHAR
STARTCHAR U+0444
ENCODING 1092
SWIDTH 500 0
DWIDTH 12 0
BBX 12 24 0 -2
BITMAP 
0000
0000
0000
0000
0000
0000
0000
0600
0600
0600
3FC0
7FE0
6660
6660
6660
6660
7FE0
3FC0
0600
0600
0600
0000
0000
0000
ENDCHAR
STARTCHAR U+0445
ENCODING 1093
SWIDTH 500 0
DWIDTH 12 0
BBX 12 24 0 -2
BITMAP 
0000
0000
0000
0000
0000
0000
0000
0000
0000
3060
38E0
1DC0
0F80
0700
0700
0F80
1DC0
38E0
3060
0000
0000
0000
0000
0000
ENDCHAR
STARTCHAR U+0446
ENCODING 1094
SWIDTH 500 0
DWIDTH 12 0
BBX 12 24 0 -2
BITMAP 
0000
0000
0000
0000
0000
0000
0000
0000
0000
30C0
30C0
30C0
30C0
30C0
30C0
30C0
30C0
3FC0
3FC0
00C0
00C0
0060
0000
0000
ENDCHAR
STARTCHAR U+0447
ENCODING 1095
SWIDTH 500 0
DWIDTH 12 0
BBX 12 24 0 -2
BITMAP 
0000
0000
0000
0000
0000
0000
0000
0000
0000
3060
3060
3060
3060
39E0
1FE0
0E60
0060
0060
0060
0000
0000
0000
0000
0000
ENDCHAR
STARTCHAR U+0448
ENCODING 1096
SWIDTH 500 0
DWIDTH 12 0
BBX 12 24 0 -2
BITMAP 
0000
0000
0000
0000
0000
0000
0000
0000
0000
6660
6660
6660
6660
6660
6660
6660
6660
7FE0
7FE0
0000
0000
0000
0000
0000
ENDCHAR
STARTCHAR U+0449
ENCODING 1097
SWIDTH 500 0
DWIDTH 12 0
BBX 12 24 0 -2
BITMAP 
0000
0000
0000
0000
0000
0000
0000
0000
0000
6660
6660
6660
6660
6660
6660
6660
6660
7FE0
7FE0
0060
0060
0030
0000
0000
ENDCHAR
STARTCHAR U+044A
ENCODING 1098
SWIDTH 500 0
DWIDTH 12 0
BBX 12 24 0 -2
BITMAP 
0000
0000
0000
0000
0000
0000
0000
0000
0000
3C00
3C00
0C00
0FC0
0FE0
0C60
0C60
0C60
0FE0
0FC0
0000
0000
0000
0000
0000
ENDCHAR
STARTCHAR U+044B
ENCODING 1099
SWIDTH 500 0
DWIDTH 12 0
BBX 12 24 0 -2
BITMAP 
0000
0000
0000
0000
0000
0000
0000
0000
0000
3060
3060
3060
3E60
3F60
3360
3360
3360
3F60
3E60
0000
0000
0000
0000
0000
ENDCHAR
STARTCHAR U+044C
ENCODING 1100
SWIDTH 500 0
DWIDTH 12 0
BBX 12 24 0 -2
BITMAP 
0000
0000
0000
0000
0000
0000
0000
0000
0000
3000
3000
3000
3F00
3F80
30C0
30C0
30C0
3F80
3F00
0000
0000
0000
0000
0000
ENDCHAR
STARTCHAR U+044D
ENCODING 1101
SWIDTH 500 0
DWIDTH 12 0
BBX 12 24 0 -2
BITMAP 
0000
0000
0000
0000
0000
0000
0000
0000
0000
0F80
1FC0
3060
0060
07E0
07E0
0060
3060
1FC0
0F80
0000
0000
0000
0000
0000
ENDCHAR
STARTCHAR U+044E
ENCODING 1102
SWIDTH 500 0
DWIDTH 12 0
BBX 12 24 0 -2
BITMAP 
0000
0000
0000
0000
0000
0000
0000
0000
0000
63C0
67E0
6660
6660
7E60
7E60
6660
6660
67E0
63C0
0000
0000
0000
0000
0000
ENDCHAR
STARTCHAR U+044F
ENCODING 1103
SWIDTH 500 0
DWIDTH 12 0
BBX 12 24 0 -2
BITMAP 
0000
0000
0000
0000
0000
0000
0000
0000
0000
0FE0
1FE0
3060
3060
1FE0
0FE0
0C60
1C60
3860
3060
0000
0000
0000
0000
0000
ENDCHAR
STARTCHAR U+0451
ENCODING 1105
SWIDTH 500 0
DWIDTH 12 0
BBX 12 24 0 -2
BITMAP 
0000
0000
0000
0000
0000
18C0
18C0
0000
0000
0F80
1FC0
3860
3060
3FE0
3FE0
3000
3060
1FE0
0FC0
0000
0000
0000
0000
0000
ENDCHAR
STARTCHAR U+0452
ENCODING 1106
SWIDTH 500 0
DWIDTH 12 0
BBX 12 24 0 -2
BITMAP 
0000
0000
0000
0000
0000
0C00
0C00
0C00
3F80
3F80
0C00
0C00
0FC0
0FE0
0C60
0C60
0C60
0C60
0C60
0060
01E0
01C0
0000
0000
ENDCHAR
STARTCHAR U+0453
ENCODING 1107
SWIDTH 500 0
DWIDTH 12 0
BBX 12 24 0 -2
BITMAP 
0000
0000
0000
0000
0300
0700
0C00
0000
0000
3FE0
3FE0
3000
3000
3000
3000
3000
3000
3000
3000
0000
0000
0000
0000
0000
ENDCHAR
STARTCHAR U+0454
ENCODING 1108
SWIDTH 500 0
DWIDTH 12 0
BBX 12 24 0 -2
BITMAP 
0000
0000
0000
0000
0000
0000
0000
0000
0000
0F80
1FC0
3060
3000
3F00
3F00
3000
3060
1FC0
0F80
0000
0000
0000
0000
0000
ENDCHAR
STARTCHAR U+0455
ENCODING 1109
SWIDTH 500 0
DWIDTH 12 0
BBX 12 24 0 -2
BITMAP 
0000
0000
0000
0000
0000
0000
0000
0000
0000
1FC0
3FE0
3020
3000
1F80
0FC0
0060
3060
3FE0
1FC0
0000
0000
0000
0000
0000
ENDCHAR
STARTCHAR U+0456
ENCODING 1110
SWIDTH 500 0
DWIDTH 12 0
BBX 12 24 0 -2
BITMAP 
0000
0000
0000
0000
0000
0600
0600
0000
0000
0600
0600
0600
0600
0600
0600
0600
0600
0600
0600
0000
0000
0000
0000
0000
ENDCHAR
STARTCHAR U+0457
ENCODING 1111
SWIDTH 500 0
DWIDTH 12 0
BBX 12 24 0 -2
BITMAP 
0000
0000
0000
0000
0000
1980
1980
0000
0000
0600
0600
0600
0600
0600
0600
0600
0600
0600
0600
0000
0000
0000
0000
0000
ENDCHAR
STARTCHAR U+0458
ENCODING 1112
SWIDTH 500 0
DWIDTH 12 0
BBX 12 24 0 -2
BITMAP 
0000
0000
0000
0000
0000
0600
0600
0000
0000
0600
0600
0600
0600
0600
0600
0600
0600
0600
0600
0600
0600
3E00
3800
0000
ENDCHAR
STARTCHAR U+0459
ENCODING 1113
SWIDTH 500 0
DWIDTH 12 0
BBX 12 24 0 -2
BITMAP 
0000
0000
0000
0000
0000
0000
0000
0000
0000
1F00
1F00
1B00
1BC0
1BE0
1B60
1B60
1B60
7BE0
63C0
0000
0000
0000
0000
0000
ENDCHAR
STARTCHAR U+045A
ENCODING 1114
SWIDTH 500 0
DWIDTH 12 0
BBX 12 24 0 -2
BITMAP 
0000
0000
0000
0000
0000
0000
0000
0000
0000
6600
6600
6600
67C0
7FE0
7E60
6660
6660
67E0
67C0
0000
0000
0000
0000
0000
ENDCHAR
STARTCHAR U+045B
ENCODING 1115
SWIDTH 500 0
DWIDTH 12 0
BBX 12 24 0 -2
BITMAP 
0000
0000
0000
0000
0000
0C00
0C00
0C00
3F80
3F80
0C00
0C00
0DC0
0FE0
0E60
0C60
0C60
0C60
0C60
0000
0000
0000
0000
0000
ENDCHAR
STARTCHAR U+045C
ENCODING 1116
SWIDTH 500 0
DWIDTH 12 0
BBX 12 24 0 -2
BITMAP 
0000
0000
0000
0000
0300
0700
0C00
0000
0000
30E0
31E0
3380
3700
3E00
3F00
3380
31C0
30E0
3060
0000
0000
0000
0000
0000
ENDCHAR
STARTCHAR U+045E
ENCODING 1118
SWIDTH 500 0
DWIDTH 12 0
BBX 12 24 0 -2
BITMAP 
0000
0000
0000
0000
18C0
18C0
0F80
0000
0000
3060
3060
3060
38E0
18C0
1DC0
0D80
0F80
0700
0700
0600
0E00
0C00
1C00
1800
ENDCHAR
STARTCHAR U+045F
ENCODING 1119
SWIDTH 500 0
DWIDTH 12 0
BBX 12 24 0 -2
BITMAP 
0000
0000
0000
0000
0000
0000
0000
0000
0000
30C0
30C0
30C0
30C0
30C0
30C0
30C0
30C0
3FC0
3FC0
0600
0600
0600
0600
0600
ENDCHAR
STARTCHAR U+0460
ENCODING 1120
SWIDTH 500 0
DWIDTH 12 0
BBX 12 24 0 -2
BITMAP 
0000
0000
0000
0000
0000
39C0
39C0
6060
6060
6060
6660
6660
6660
6660
6660
6660
6660
3FC0
1980
0000
0000
0000
0000
0000
ENDCHAR
STARTCHAR U+0461
ENCODING 1121
SWIDTH 500 0
DWIDTH 12 0
BBX 12 24 0 -2
BITMAP 
0000
0000
0000
0000
0000
0000
0000
0000
0000
6060
6060
6060
6660
6660
6660
6660
6660
3FC0
1980
0000
0000
0000
0000
0000
ENDCHAR
STARTCHAR U+0462
ENCODING 1122
SWIDTH 500 0
DWIDTH 12 0
BBX 12 24 0 -2
BITMAP 
0000
0000
0000
0000
0000
1800
7F00
7F00
1800
1800
1F80
1FC0
18E0
1860
1860
1860
18E0
1FC0
1F80
0000
0000
0000
0000
0000
ENDCHAR
STARTCHAR U+0463
ENCODING 1123
SWIDTH 500 0
DWIDTH 12 0
BBX 12 24 0 -2
BITMAP 
0000
0000
0000
0000
0000
0C00
0C00
0C00
3F80
3F80
0C00
0C00
0FC0
0FE0
0C60
0C60
0C60
0FE0
0FC0
0000
0000
0000
0000
0000
ENDCHAR
STARTCHAR U+0464
ENCODING 1124
SWIDTH 500 0
DWIDTH 12 0
BBX 12 24 0 -2
BITMAP 
0000
0000
0000
0000
0000
63C0
67E0
6E60
6C20
6C00
6C00
7F80
7F80
6C00
6C00
6C20
6E60
67E0
63C0
0000
0000
0000
0000
0000
ENDCHAR
STARTCHAR U+0465
ENCODING 1125
SWIDTH 500 0
DWIDTH 12 0
BBX 12 24 0 -2
BITMAP 
0000
0000
0000
0000
0000
0000
0000
0000
0000
63C0
67E0
6C20
6C00
7F80
7F80
6C00
6C20
67E0
63C0
0000
0000
0000
0000
0000
ENDCHAR
STARTCHAR U+0466
ENCODING 1126
SWIDTH 500 0
DWIDTH 12 0
BBX 12 24 0 -2
BITMAP 
0000
0000
0000
0000
0000
0600
0600
0F00
0F00
1980
1980
30C0
39C0
3FC0
6F60
6660
6660
6660
6660
0000
0000
0000
0000
0000
ENDCHAR
STARTCHAR U+0467
ENCODING 1127
SWIDTH 500 0
DWIDTH 12 0
BBX 12 24 0 -2
BITMAP 
0000
0000
0000
0000
0000
0000
0000
0000
0000
0600
0600
0F00
0F00
1980
1980
1F80
36C0
36C0
36C0
0000
0000
0000
0000
0000
ENDCHAR
STARTCHAR U+0468
ENCODING 1128
SWIDTH 500 0
DWIDTH 12 0
BBX 12 24 0 -2
BITMAP 
0000
0000
0000
0000
0000
6180
6180
63C0
63C0
63C0
6660
6660
7FE0
7FE0
6DB0
6DB0
6DB0
6DB0
6DB0
0000
0000
0000
0000
0000
ENDCHAR
STARTCHAR U+0469
ENCODING 1129
SWIDTH 500 0
DWIDTH 12 0
BBX 12 24 0 -2
BITMAP 
0000
0000
0000
0000
0000
0000
0000
0000
0000
6180
6180
63C0
63C0
6660
6660
7FE0
6DB0
6DB0
6DB0
0000
0000
0000
0000
0000
ENDCHAR
STARTCHAR U+046A
ENCODING 1130
SWIDTH 500 0
DWIDTH 12 0
BBX 12 24 0 -2
BITMAP 
0000
0000
0000
0000
0000
3FC0
3FC0
30C0
30C0
1980
0F00
0600
0F00
1F80
36C0
6660
6660
6660
6660
0000
0000
0000
0000
0000
ENDCHAR
STARTCHAR U+046B
ENCODING 1131
SWIDTH 500 0
DWIDTH 12 0
BBX 12 24 0 -2
BITMAP 
0000
0000
0000
0000
0000
0000
0000
0000
0000
3FC0
3FC0
1980
0F00
0600
0F00
1F80
36C0
36C0
36C0
0000
0000
0000
0000
0000
ENDCHAR
STARTCHAR U+046C
ENCODING 1132
SWIDTH 500 0
DWIDTH 12 0
BBX 12 24 0 -2
BITMAP 
0000
0000
0000
0000
0000
6FF0
6FF0
6C30
6C30
6660
63C0
7F80
7FC0
67E0
6DB0
6DB0
6DB0
6DB0
6DB0
0000
0000
0000
0000
0000
ENDCHAR
STARTCHAR U+046D
ENCODING 1133
SWIDTH 500 0
DWIDTH 12 0
BBX 12 24 0 -2
BITMAP 
0000
0000
0000
0000
0000
0000
0000
0000
0000
6FF0
6FF0
6660
63C0
7F80
7FC0
67E0
6DB0
6DB0
6DB0
0000
0000
0000
0000
0000
ENDCHAR
STARTCHAR U+046E
ENCODING 1134
SWIDTH 500 0
DWIDTH 12 0
BBX 12 24 0 -2
BITMAP 
0000
0000
1980
0F00
0600
0F80
1FC0
3060
3060
0060
00C0
0780
0780
00C0
0060
0060
0060
1FC0
3F80
3000
3000
3000
0000
0000
ENDCHAR
STARTCHAR U+046F
ENCODING 1135
SWIDTH 500 0
DWIDTH 12 0
BBX 12 24 0 -2
BITMAP 
0000
0000
0000
0000
1980
0F00
0600
0000
0000
0F80
1FC0
3060
0060
07C0
07C0
0060
0060
1FC0
3F80
3000
3000
3000
0000
0000
ENDCHAR
STARTCHAR U+0470
ENCODING 1136
SWIDTH 500 0
DWIDTH 12 0
BBX 12 24 0 -2
BITMAP 
0000
0000
0000
0000
0000
6660
6660
6660
6660
6660
6660
76E0
3FC0
1F80
0600
0600
0600
0600
0600
0000
0000
0000
0000
0000
ENDCHAR
STARTCHAR U+0471
ENCODING 1137
SWIDTH 500 0
DWIDTH 12 0
BBX 12 24 0 -2
BITMAP 
0000
0000
0000
0000
0000
0000
0600
0600
0600
6660
6660
6660
6660
6660
6660
6660
76E0
3FC0
1F80
0600
0600
0600
0600
0600
ENDCHAR
STARTCHAR U+0472
ENCODING 1138
SWIDTH 500 0
DWIDTH 12 0
BBX 12 24 0 -2
BITMAP 
0000
0000
0000
0000
0000
0F80
1FC0
38E0
3060
3060
3060
3760
3760
3060
3060
3060
38E0
1FC0
0F80
0000
0000
0000
0000
0000
ENDCHAR
STARTCHAR U+0473
ENCODING 1139
SWIDTH 500 0
DWIDTH 12 0
BBX 12 24 0 -2
BITMAP 
0000
0000
0000
0000
0000
0000
0000
0000
0000
0F80
1FC0
38E0
3060
3760
3760
3060
38E0
1FC0
0F80
0000
0000
0000
0000
0000
ENDCHAR
STARTCHAR U+0474
ENCODING 1140
SWIDTH 500 0
DWIDTH 12 0
BBX 12 24 0 -2
BITMAP 
0000
0000
0000
0000
0000
60E0
61E0
6160
6300
6300
3300
3600
3600
3600
3400
1C00
1800
1800
1800
0000
0000
0000
0000
0000
ENDCHAR
STARTCHAR U+0475
ENCODING 1141
SWIDTH 500 0
DWIDTH 12 0
BBX 12 24 0 -2
BITMAP 
0000
0000
0000
0000
0000
0000
0000
0000
0000
30E0
31E0
3360
1B00
1B00
1A00
0E00
0C00
0C00
0C00
0000
0000
0000
0000
0000
ENDCHAR
STARTCHAR U+0476
ENCODING 1142
SWIDTH 500 0
DWIDTH 12 0
BBX 12 24 0 -2
BITMAP 
6300
7380
18C0
0000
0000
60E0
61E0
6160
6300
6300
3300
3600
3600
3600
3400
1C00
1800
1800
1800
0000
0000
0000
0000
0000
ENDCHAR
STARTCHAR U+0477
ENCODING 1143
SWIDTH 500 0
DWIDTH 12 0
BBX 12 24 0 -2
BITMAP 
0000
0000
0000
0000
3180
39C0
0C60
0000
0000
30E0
31E0
3360
1B00
1B00
1A00
0E00
0C00
0C00
0C00
0000
0000
0000
0000
0000
ENDCHAR
STARTCHAR U+0478
ENCODING 1144
SWIDTH 500 0
DWIDTH 12 0
BBX 12 24 0 -2
BITMAP 
0000
0000
0000
0000
0000
3800
7C00
6C00
6C00
6F60
6F60
6F60
6F60
6D40
6DC0
6DC0
6CC0
7D80
3980
0180
0300
0300
0000
0000
ENDCHAR
STARTCHAR U+0479
ENCODING 1145
SWIDTH 500 0
DWIDTH 12 0
BBX 12 24 0 -2
BITMAP 
0000
0000
0000
0000
0000
0000
0000
0000
0000
3B60
7F60
6F60
6F60
6D40
6DC0
6DC0
6CC0
7D80
3980
0180
0300
0300
0000
0000
ENDCHAR
STARTCHAR U+047A
ENCODING 1146
SWIDTH 500 0
DWIDTH 12 0
BBX 12 24 0 -2
BITMAP 
0000
0000
0000
0000
0600
1F80
3FC0
6660
6060
6060
6060
6060
6060
6060
6060
6060
6060
6660
3FC0
1F80
0600
0000
0000
0000
ENDCHAR
STARTCHAR U+047B
ENCODING 1147
SWIDTH 500 0
DWIDTH 12 0
BBX 12 24 0 -2
BITMAP 
0000
0000
0000
0000
0000
0000
0000
0000
0600
1F80
3FC0
6660
6060
6060
6060
6060
6060
6660
3FC0
1F80
0600
0000
0000
0000
ENDCHAR
STARTCHAR U+047C
ENCODING 1148
SWIDTH 500 0
DWIDTH 12 0
BBX 12 24 0 -2
BITMAP 
1F00
7FE0
60E0
0000
0000
39C0
39C0
6060
6060
6060
6660
6660
6660
6660
6660
6660
6660
3FC0
1980
0000
0000
0000
0000
0000
ENDCHAR
STARTCHAR U+047D
ENCODING 1149
SWIDTH 500 0
DWIDTH 12 0
BBX 12 24 0 -2
BITMAP 
0000
0000
0000
0000
1F00
7FE0
60E0
0000
0000
6060
6060
6060
6660
6660
6660
6660
6660
3FC0
1980
0000
0000
0000
0000
0000
ENDCHAR
STARTCHAR U+047E
ENCODING 1150
SWIDTH 500 0
DWIDTH 12 0
BBX 12 24 0 -2
BITMAP 
3FC0
3FC0
0600
0000
0000
39C0
39C0
6060
6060
6060
6660
6660
6660
6660
6660
6660
6660
3FC0
1980
0000
0000
0000
0000
0000
ENDCHAR
STARTCHAR U+047F
ENCODING 1151
SWIDTH 500 0
DWIDTH 12 0
BBX 12 24 0 -2
BITMAP 
0000
0000
0000
0000
3FC0
3FC0
0600
0000
0000
6060
6060
6060
6660
6660
6660
6660
6660
3FC0
1980
0000
0000
0000
0000
0000
ENDCHAR
STARTCHAR U+0480
ENCODING 1152
SWIDTH 500 0
DWIDTH 12 0
BBX 12 24 0 -2
BITMAP 
0000
0000
0000
0000
0000
0F80
1FC0
38E0
3060
3000
3000
3000
3000
3000
3000
3000
3800
1F00
0F80
0180
0180
0180
0000
0000
ENDCHAR
STARTCHAR U+0481
ENCODING 1153
SWIDTH 500 0
DWIDTH 12 0
BBX 12 24 0 -2
BITMAP 
0000
0000
0000
0000
0000
0000
0000
0000
0000
0F80
1FC0
38E0
3060
3000
3000
3000
3800
1F00
0F80
0180
0180
0180
0000
0000
ENDCHAR
STARTCHAR U+0482
ENCODING 1154
SWIDTH 500 0
DWIDTH 12 0
BBX 12 24 0 -2
BITMAP 
0000
0000
0000
0000
0000
00C0
00C0
0180
1D80
1F00
03E0
06E0
7600
7C00
0F80
1B80
1800
3000
3000
0000
0000
0000
0000
0000
ENDCHAR
STARTCHAR U+0490
ENCODING 1168
SWIDTH 500 0
DWIDTH 12 0
BBX 12 24 0 -2
BITMAP 
0000
0000
0000
0000
0000
0060
0060
3FE0
3FC0
3000
3000
3000
3000
3000
3000
3000
3000
3000
3000
3000
3000
0000
0000
0000
ENDCHAR
STARTCHAR U+0491
ENCODING 1169
SWIDTH 500 0
DWIDTH 12 0
BBX 12 24 0 -2
BITMAP 
0000
0000
0000
0000
0000
0000
0000
0000
0000
0060
0060
3FE0
3FC0
3000
3000
3000
3000
3000
3000
3000
3000
0000
0000
0000
ENDCHAR
STARTCHAR U+0492
ENCODING 1170
SWIDTH 500 0
DWIDTH 12 0
BBX 12 24 0 -2
BITMAP 
0000
0000
0000
0000
0000
1FE0
1FE0
1800
1800
1800
1800
1800
7F00
7F00
1800
1800
1800
1800
1800
0000
0000
0000
0000
0000
ENDCHAR
STARTCHAR U+0493
ENCODING 1171
SWIDTH 500 0
DWIDTH 12 0
BBX 12 24 0 -2
BITMAP 
0000
0000
0000
0000
0000
0000
0000
0000
0000
1FE0
1FE0
1800
1800
7F00
7F00
1800
1800
1800
1800
0000
0000
0000
0000
0000
ENDCHAR
STARTCHAR U+0494
ENCODING 1172
SWIDTH 500 0
DWIDTH 12 0
BBX 12 24 0 -2
BITMAP 
0000
0000
0000
0000
0000
3FE0
3FE0
3000
3000
3000
3000
3F00
3F80
31C0
30C0
30C0
30C0
30C0
30C0
01C0
0380
0300
0000
0000
ENDCHAR
STARTCHAR U+0495
ENCODING 1173
SWIDTH 500 0
DWIDTH 12 0
BBX 12 24 0 -2
BITMAP 
0000
0000
0000
0000
0000
0000
0000
0000
0000
3FE0
3FE0
3000
3000
3F00
3F80
31C0
30C0
30C0
30C0
01C0
0380
0300
0000
0000
ENDCHAR
STARTCHAR U+0496
ENCODING 1174
SWIDTH 500 0
DWIDTH 12 0
BBX 12 24 0 -2
BITMAP 
0000
0000
0000
0000
0000
6660
6660
36C0
36C0
36C0
1F80
1F80
0F00
1F80
1F80
36C0
36C0
6670
6670
0030
0060
0060
0000
0000
ENDCHAR
STARTCHAR U+0497
ENCODING 1175
SWIDTH 500 0
DWIDTH 12 0
BBX 12 24 0 -2
BITMAP 
0000
0000
0000
0000
0000
0000
0000
0000
0000
6660
6660
36C0
36C0
1F80
1F80
36C0
36C0
6670
6670
0030
0060
0060
0000
0000
ENDCHAR
STARTCHAR U+0498
ENCODING 1176
SWIDTH 500 0
DWIDTH 12 0
BBX 12 24 0 -2
BITMAP 
0000
0000
0000
0000
0000
0F80
1FC0
3060
3060
0060
00C0
0780
0780
00C0
0060
3060
3060
1FC0
0F80
0300
0380
00C0
07C0
0780
ENDCHAR
STARTCHAR U+0499
ENCODING 1177
SWIDTH 500 0
DWIDTH 12 0
BBX 12 24 0 -2
BITMAP 
0000
0000
0000
0000
0000
0000
0000
0000
0000
0F80
1FC0
3060
0060
07C0
07C0
0060
3060
1FC0
0F80
0300
0380
00C0
07C0
0780
ENDCHAR
STARTCHAR U+049A
ENCODING 1178
SWIDTH 500 0
DWIDTH 12 0
BBX 12 24 0 -2
BITMAP 
0000
0000
0000
0000
0000
60C0
61C0
6300
6300
6600
6600
7C00
7C00
6600
6300
6300
6180
60E0
60E0
0060
00C0
00C0
0000
0000
ENDCHAR
STARTCHAR U+049B
ENCODING 1179
SWIDTH 500 0
DWIDTH 12 0
BBX 12 24 0 -2
BITMAP 
0000
0000
0000
0000
0000
0000
0000
0000
0000
61C0
63C0
6700
6E00
7C00
7E00
6700
6380
61E0
60E0
0060
00C0
00C0
0000
0000
ENDCHAR
STARTCHAR U+049C
ENCODING 1180
SWIDTH 500 0
DWIDTH 12 0
BBX 12 24 0 -2
BITMAP 
0000
0000
0000
0000
0000
6060
60E0
6180
6D80
6D80
6D80
7F00
7F00
6D80
6D80
6D80
60C0
6060
6060
0000
0000
0000
0000
0000
ENDCHAR
STARTCHAR U+049D
ENCODING 1181
SWIDTH 500 0
DWIDTH 12 0
BBX 12 24 0 -2
BITMAP 
0000
0000
0000
0000
0000
0000
0000
0000
0000
60E0
61E0
6D80
6D80
7F00
7F00
6D80
6DC0
60E0
6060
0000
0000
0000
0000
0000
ENDCHAR
STARTCHAR U+049E
ENCODING 1182
SWIDTH 500 0
DWIDTH 12 0
BBX 12 24 0 -2
BITMAP 
0000
0000
0000
0000
0000
3060
7CE0
7D80
3180
3300
3300
3E00
3E00
3300
3180
3180
30C0
3060
3060
0000
0000
0000
0000
0000
ENDCHAR
STARTCHAR U+049F
ENCODING 1183
SWIDTH 500 0
DWIDTH 12 0
BBX 12 24 0 -2
BITMAP 
0000
0000
0000
0000
0000
0000
0000
0000
0000
30E0
7DE0
7D80
3180
3F00
3F00
3180
31C0
30E0
3060
0000
0000
0000
0000
0000
ENDCHAR
STARTCHAR U+04A0
ENCODING 1184
SWIDTH 500 0
DWIDTH 12 0
BBX 12 24 0 -2
BITMAP 
0000
0000
0000
0000
0000
7860
78E0
1980
1980
1B00
1B00
1E00
1E00
1B00
1980
1980
18C0
1860
1860
0000
0000
0000
0000
0000
ENDCHAR
STARTCHAR U+04A1
ENCODING 1185
SWIDTH 500 0
DWIDTH 12 0
BBX 12 24 0 -2
BITMAP 
0000
0000
0000
0000
0000
0000
0000
0000
0000
78E0
79E0
1B80
1B00
1E00
1F00
1B80
19C0
18E0
1860
0000
0000
0000
0000
0000
ENDCHAR
STARTCHAR U+04A2
ENCODING 1186
SWIDTH 500 0
DWIDTH 12 0
BBX 12 24 0 -2
BITMAP 
0000
0000
0000
0000
0000
60C0
60C0
60C0
60C0
60C0
60C0
7FC0
7FC0
60C0
60C0
60C0
60C0
60E0
60E0
0060
00C0
00C0
0000
0000
ENDCHAR
STARTCHAR U+04A3
ENCODING 1187
SWIDTH 500 0
DWIDTH 12 0
BBX 12 24 0 -2
BITMAP 
0000
0000
0000
0000
0000
0000
0000
0000
0000
60C0
60C0
60C0
60C0
7FC0
7FC0
60C0
60C0
60E0
60E0
0060
00C0
00C0
0000
0000
ENDCHAR
STARTCHAR U+04A4
ENCODING 1188
SWIDTH 500 0
DWIDTH 12 0
BBX 12 24 0 -2
BITMAP 
0000
0000
0000
0000
0000
63E0
63E0
6300
6300
6300
6300
7F00
7F00
6300
6300
6300
6300
6300
6300
0000
0000
0000
0000
0000
ENDCHAR
STARTCHAR U+04A5
ENCODING 1189
SWIDTH 500 0
DWIDTH 12 0
BBX 12 24 0 -2
BITMAP 
0000
0000
0000
0000
0000
0000
0000
0000
0000
63E0
63E0
6300
6300
7F00
7F00
6300
6300
6300
6300
0000
0000
0000
0000
0000
ENDCHAR
STARTCHAR U+04A6
ENCODING 1190
SWIDTH 500 0
DWIDTH 12 0
BBX 12 24 0 -2
BITMAP 
0000
0000
0000
0000
0000
7F00
7F00
6300
6300
6300
6300
63C0
63E0
6360
6360
6360
6360
6360
6360
0060
00E0
00C0
0000
0000
ENDCHAR
STARTCHAR U+04A7
ENCODING 1191
SWIDTH 500 0
DWIDTH 12 0
BBX 12 24 0 -2
BITMAP 
0000
0000
0000
0000
0000
0000
0000
0000
0000
7F00
7F00
6300
6300
63C0
63E0
6360
6360
6360
6360
0060
00E0
00C0
0000
0000
ENDCHAR
STARTCHAR U+04A8
ENCODING 1192
SWIDTH 500 0
DWIDTH 12 0
BBX 12 24 0 -2
BITMAP 
0000
0000
0000
0000
0000
0F00
1F00
3800
7000
6300
6780
6CC0
6CC0
6CC0
6CC0
7780
3F00
1F00
03E0
01E0
0000
0000
0000
0000
ENDCHAR
STARTCHAR U+04A9
ENCODING 1193
SWIDTH 500 0
DWIDTH 12 0
BBX 12 24 0 -2
BITMAP 
0000
0000
0000
0000
0000
0000
0000
0000
0F00
1F00
3800
7380
67C0
6CC0
6CC0
77C0
3F80
1F00
03E0
01E0
0000
0000
0000
0000
ENDCHAR
STARTCHAR U+04AA
ENCODING 1194
SWIDTH 500 0
DWIDTH 12 0
BBX 12 24 0 -2
BITMAP 
0000
0000
0000
0000
0000
0F80
1FC0
38E0
3060
3000
3000
3000
3000
3000
3000
3060
38E0
1FC0
0F80
0300
0700
0C00
0F80
0780
ENDCHAR
STARTCHAR U+04AB
ENCODING 1195
SWIDTH 500 0
DWIDTH 12 0
BBX 12 24 0 -2
BITMAP 
0000
0000
0000
0000
0000
0000
0000
0000
0000
07C0
1FC0
3860
3060
3000
3000
3000
3860
1FE0
0FC0
0300
0700
0C00
0F80
0780
ENDCHAR
STARTCHAR U+04AC
ENCODING 1196
SWIDTH 500 0
DWIDTH 12 0
BBX 12 24 0 -2
BITMAP 
0000
0000
0000
0000
0000
7FE0
7FE0
0600
0600
0600
0600
0600
0600
0600
0600
0600
0600
0700
0700
0300
0600
0600
0000
0000
ENDCHAR
STARTCHAR U+04AD
ENCODING 1197
SWIDTH 500 0
DWIDTH 12 0
BBX 12 24 0 -2
BITMAP 
0000
0000
0000
0000
0000
0000
0000
0000
0000
7FE0
7FE0
0600
0600
0600
0600
0600
0600
0700
0700
0300
0600
0600
0000
0000
ENDCHAR
STARTCHAR U+04AE
ENCODING 1198
SWIDTH 500 0
DWIDTH 12 0
BBX 12 24 0 -2
BITMAP 
0000
0000
0000
0000
0000
6060
6060
30C0
30C0
1980
1F80
0F00
0600
0600
0600
0600
0600
0600
0600
0000
0000
0000
0000
0000
ENDCHAR
STARTCHAR U+04AF
ENCODING 1199
SWIDTH 500 0
DWIDTH 12 0
BBX 12 24 0 -2
BITMAP 
0000
0000
0000
0000
0000
0000
0000
0000
0000
0000
30C0
30C0
30C0
30C0
1980
1F80
0F00
0600
0600
0600
0600
0600
0600
0600
ENDCHAR
STARTCHAR U+04B0
ENCODING 1200
SWIDTH 500 0
DWIDTH 12 0
BBX 12 24 0 -2
BITMAP 
0000
0000
0000
0000
0000
6060
6060
30C0
30C0
1980
1F80
0F00
0600
0600
3FC0
3FC0
0600
0600
0600
0000
0000
0000
0000
0000
ENDCHAR
STARTCHAR U+04B1
ENCODING 1201
SWIDTH 500 0
DWIDTH 12 0
BBX 12 24 0 -2
BITMAP 
0000
0000
0000
0000
0000
0000
0000
0000
0000
0000
30C0
30C0
30C0
30C0
1980
1F80
0F00
0600
3FC0
3FC0
0600
0600
0600
0600
ENDCHAR
STARTCHAR U+04B2
ENCODING 1202
SWIDTH 500 0
DWIDTH 12 0
BBX 12 24 0 -2
BITMAP 
0000
0000
0000
0000
0000
60C0
60C0
3180
3180
1B00
1B00
0E00
0E00
1B00
1B00
3180
3180
60E0
60E0
0060
00C0
00C0
0000
0000
ENDCHAR
STARTCHAR U+04B3
ENCODING 1203
SWIDTH 500 0
DWIDTH 12 0
BBX 12 24 0 -2
BITMAP 
0000
0000
0000
0000
0000
0000
0000
0000
0000
60C0
71C0
3B80
1F00
0E00
0E00
1F00
3B80
71E0
60E0
0060
00C0
00C0
0000
0000
ENDCHAR
STARTCHAR U+04B4
ENCODING 1204
SWIDTH 500 0
DWIDTH 12 0
BBX 12 24 0 -2
BITMAP 
0000
0000
0000
0000
0000
7F60
7F60
0C60
0C60
0C60
0C60
0C60
0C60
0C60
0C60
0C60
0C60
0FE0
0FE0
0060
0060
0060
0000
0000
ENDCHAR
STARTCHAR U+04B5
ENCODING 1205
SWIDTH 500 0
DWIDTH 12 0
BBX 12 24 0 -2
BITMAP 
0000
0000
0000
0000
0000
0000
0000
0000
0000
7F60
7F60
0C60
0C60
0C60
0C60
0C60
0C60
0FE0
0FE0
0060
0060
0020
0000
0000
ENDCHAR
STARTCHAR U+04B6
ENCODING 1206
SWIDTH 500 0
DWIDTH 12 0
BBX 12 24 0 -2
BITMAP 
0000
0000
0000
0000
0000
60C0
60C0
60C0
60C0
60C0
60C0
61C0
73C0
3EC0
1CC0
00C0
00C0
00E0
00E0
0060
00C0
00C0
0000
0000
ENDCHAR
STARTCHAR U+04B7
ENCODING 1207
SWIDTH 500 0
DWIDTH 12 0
BBX 12 24 0 -2
BITMAP 
0000
0000
0000
0000
0000
0000
0000
0000
0000
60C0
60C0
60C0
60C0
73C0
3FC0
1CC0
00C0
00E0
00E0
0060
00C0
00C0
0000
0000
ENDCHAR
STARTCHAR U+04B8
ENCODING 1208
SWIDTH 500 0
DWIDTH 12 0
BBX 12 24 0 -2
BITMAP 
0000
0000
0000
0000
0000
6060
6060
6060
6060
6060
6660
66E0
77E0
3F60
1E60
0660
0660
0060
0060
0000
0000
0000
0000
0000
ENDCHAR
STARTCHAR U+04B9
ENCODING 1209
SWIDTH 500 0
DWIDTH 12 0
BBX 12 24 0 -2
BITMAP 
0000
0000
0000
0000
0000
0000
0000
0000
0000
6060
6060
6660
6660
77E0
3FE0
1E60
0660
0660
0060
0000
0000
0000
0000
0000
ENDCHAR
STARTCHAR U+04BA
ENCODING 1210
SWIDTH 500 0
DWIDTH 12 0
BBX 12 24 0 -2
BITMAP 
0000
0000
0000
0000
0000
3000
3000
3000
3000
3380
37C0
3CE0
3860
3060
3060
3060
3060
3060
3060
0000
0000
0000
0000
0000
ENDCHAR
STARTCHAR U+04BB
ENCODING 1211
SWIDTH 500 0
DWIDTH 12 0
BBX 12 24 0 -2
BITMAP 
0000
0000
0000
0000
0000
0000
0000
0000
0000
3000
3000
3000
3380
3FC0
3CE0
3060
3060
3060
3060
0000
0000
0000
0000
0000
ENDCHAR
STARTCHAR U+04BC
ENCODING 1212
SWIDTH 500 0
DWIDTH 12 0
BBX 12 24 0 -2
BITMAP 
0000
0000
0000
0000
0000
3380
77C0
6EE0
6C60
6C60
7C60
3FE0
1FE0
0C00
0C00
0C00
0E60
07E0
03C0
0000
0000
0000
0000
0000
ENDCHAR
STARTCHAR U+04BD
ENCODING 1213
SWIDTH 500 0
DWIDTH 12 0
BBX 12 24 0 -2
BITMAP 
0000
0000
0000
0000
0000
0000
0000
0000
0000
0380
67C0
6C60
6C60
7FE0
3FE0
0C00
0C60
07E0
03C0
0000
0000
0000
0000
0000
ENDCHAR
STARTCHAR U+04BE
ENCODING 1214
SWIDTH 500 0
DWIDTH 12 0
BBX 12 24 0 -2
BITMAP 
0000
0000
0000
0000
0000
3380
77C0
6EE0
6C60
6C60
7C60
3FE0
1FE0
0C00
0C00
0C00
0E60
07E0
03C0
0180
0380
0600
07C0
03C0
ENDCHAR
STARTCHAR U+04BF
ENCODING 1215
SWIDTH 500 0
DWIDTH 12 0
BBX 12 24 0 -2
BITMAP 
0000
0000
0000
0000
0000
0000
0000
0000
0000
0380
67C0
6C60
6C60
7FE0
3FE0
0C00
0C60
07E0
03C0
0180
0380
0600
07C0
03C0
ENDCHAR
STARTCHAR U+04C0
ENCODING 1216
SWIDTH 500 0
DWIDTH 12 0
BBX 12 24 0 -2
BITMAP 
0000
0000
0000
0000
0000
1F80
1F80
0600
0600
0600
0600
0600
0600
0600
0600
0600
0600
1F80
1F80
0000
0000
0000
0000
0000
ENDCHAR
STARTCHAR U+04C1
ENCODING 1217
SWIDTH 500 0
DWIDTH 12 0
BBX 12 24 0 -2
BITMAP 
30C0
30C0
1F80
0000
0000
6660
6660
36C0
36C0
36C0
1F80
1F80
0F00
1F80
1F80
36C0
36C0
6660
6660
0000
0000
0000
0000
0000
ENDCHAR
STARTCHAR U+04C2
ENCODING 1218
SWIDTH 500 0
DWIDTH 12 0
BBX 12 24 0 -2
BITMAP 
0000
0000
0000
0000
1980
1980
0F00
0000
0000
6660
6660
36C0
36C0
1F80
1F80
36C0
36C0
6660
6660
0000
0000
0000
0000
0000
ENDCHAR
STARTCHAR U+04C3
ENCODING 1219
SWIDTH 500 0
DWIDTH 12 0
BBX 12 24 0 -2
BITMAP 
0000
0000
0000
0000
0000
60C0
61C0
6300
6300
6600
6C00
7F00
7F80
61C0
60C0
60C0
60C0
60C0
60C0
01C0
0F80
0F00
0000
0000
ENDCHAR
STARTCHAR U+04C4
ENCODING 1220
SWIDTH 500 0
DWIDTH 12 0
BBX 12 24 0 -2
BITMAP 
0000
0000
0000
0000
0000
0000
0000
0000
0000
30E0
31E0
3300
3600
3F80
3FC0
3060
3060
3060
3060
00E0
07C0
0780
0000
0000
ENDCHAR
STARTCHAR U+04C7
ENCODING 1223
SWIDTH 500 0
DWIDTH 12 0
BBX 12 24 0 -2
BITMAP 
0000
0000
0000
0000
0000
3060
3060
3060
3060
3060
3060
3FE0
3FE0
3060
3060
3060
3060
3060
3060
00E0
07C0
0780
0000
0000
ENDCHAR
STARTCHAR U+04C8
ENCODING 1224
SWIDTH 500 0
DWIDTH 12 0
BBX 12 24 0 -2
BITMAP 
0000
0000
0000
0000
0000
0000
0000
0000
0000
3060
3060
3060
3060
3FE0
3FE0
3060
3060
3060
3060
00E0
07C0
0780
0000
0000
ENDCHAR
STARTCHAR U+04CB
ENCODING 1227
SWIDTH 500 0
DWIDTH 12 0
BBX 12 24 0 -2
BITMAP 
0000
0000
0000
0000
0000
3060
3060
3060
3060
3060
3060
30E0
39E0
1F60
0E60
0060
0060
0060
01E0
01C0
0180
0100
0000
0000
ENDCHAR
STARTCHAR U+04CC
ENCODING 1228
SWIDTH 500 0
DWIDTH 12 0
BBX 12 24 0 -2
BITMAP 
0000
0000
0000
0000
0000
0000
0000
0000
0000
3060
3060
3060
3060
39E0
1FE0
0E60
0060
0060
01E0
01C0
0180
0100
0000
0000
ENDCHAR
STARTCHAR U+04D0
ENCODING 1232
SWIDTH 500 0
DWIDTH 12 0
BBX 12 24 0 -2
BITMAP 
18C0
18C0
0F80
0000
0000
0F80
1FC0
38E0
3060
3060
3060
3FE0
3FE0
3060
3060
3060
3060
3060
3060
0000
0000
0000
0000
0000
ENDCHAR
STARTCHAR U+04D1
ENCODING 1233
SWIDTH 500 0
DWIDTH 12 0
BBX 12 24 0 -2
BITMAP 
0000
0000
0000
0CC0
0CC0
0780
0000
0000
0780
0FC0
1860
0060
07E0
1FE0
3060
30E0
31E0
3F60
1E60
0000
0000
0000
0000
0000
ENDCHAR
STARTCHAR U+04D2
ENCODING 1234
SWIDTH 500 0
DWIDTH 12 0
BBX 12 24 0 -2
BITMAP 
0000
18C0
18C0
0000
0000
0F80
1FC0
38E0
3060
3060
3060
3FE0
3FE0
3060
3060
3060
3060
3060
3060
0000
0000
0000
0000
0000
ENDCHAR
STARTCHAR U+04D3
ENCODING 1235
SWIDTH 500 0
DWIDTH 12 0
BBX 12 24 0 -2
BITMAP 
0000
0000
0000
0000
0CC0
0CC0
0000
0000
0780
0FC0
1860
0060
07E0
1FE0
3060
30E0
31E0
3F60
1E60
0000
0000
0000
0000
0000
ENDCHAR
STARTCHAR U+04D4
ENCODING 1236
SWIDTH 500 0
DWIDTH 12 0
BBX 12 24 0 -2
BITMAP 
0000
0000
0000
0000
0000
1FE0
1FE0
3300
3300
6300
63E0
7FE0
7F00
6300
6300
6300
6300
63E0
63E0
0000
0000
0000
0000
0000
ENDCHAR
STARTCHAR U+04D5
ENCODING 1237
SWIDTH 500 0
DWIDTH 12 0
BBX 12 24 0 -2
BITMAP 
0000
0000
0000
0000
0000
0000
0000
0000
39C0
7FE0
4660
0660
1FE0
3FC0
6600
6600
6660
7FE0
3FC0
0000
0000
0000
0000
0000
ENDCHAR
STARTCHAR U+04D6
ENCODING 1238
SWIDTH 500 0
DWIDTH 12 0
BBX 12 24 0 -2
BITMAP 
18C0
18C0
0F80
0000
0000
3FE0
3FE0
3000
3000
3000
3000
3F80
3F80
3000
3000
3000
3000
3FE0
3FE0
0000
0000
0000
0000
0000
ENDCHAR
STARTCHAR U+04D7
ENCODING 1239
SWIDTH 500 0
DWIDTH 12 0
BBX 12 24 0 -2
BITMAP 
0000
0000
0000
0CC0
0CC0
0780
0000
0000
0000
0F80
1FC0
3860
3060
3FE0
3FE0
3000
3060
1FE0
0FC0
0000
0000
0000
0000
0000
ENDCHAR
STARTCHAR U+04D8
ENCODING 1240
SWIDTH 500 0
DWIDTH 12 0
BBX 12 24 0 -2
BITMAP 
0000
0000
0000
0000
0000
1F80
3FC0
70E0
6060
0060
0060
0060
7FE0
7FE0
6060
6060
70E0
3FC0
1F80
0000
0000
0000
0000
0000
ENDCHAR
STARTCHAR U+04D9
ENCODING 1241
SWIDTH 500 0
DWIDTH 12 0
BBX 12 24 0 -2
BITMAP 
0000
0000
0000
0000
0000
0000
0000
0000
0000
1F80
3FC0
3060
0060
3FE0
3FE0
3060
30E0
1FC0
0F80
0000
0000
0000
0000
0000
ENDCHAR
STARTCHAR U+04DA
ENCODING 1242
SWIDTH 500 0
DWIDTH 12 0
BBX 12 24 0 -2
BITMAP 
0000
1980
1980
0000
0000
1F80
3FC0
70E0
6060
0060
0060
0060
7FE0
7FE0
6060
6060
70E0
3FC0
1F80
0000
0000
0000
0000
0000
ENDCHAR
STARTCHAR U+04DB
ENCODING 1243
SWIDTH 500 0
DWIDTH 12 0
BBX 12 24 0 -2
BITMAP 
0000
0000
0000
0000
0000
18C0
18C0
0000
0000
1F80
3FC0
3060
0060
3FE0
3FE0
3060
30E0
1FC0
0F80
0000
0000
0000
0000
0000
ENDCHAR
STARTCHAR U+04DC
ENCODING 1244
SWIDTH 500 0
DWIDTH 12 0
BBX 12 24 0 -2
BITMAP 
0000
1980
1980
0000
0000
6660
6660
36C0
36C0
36C0
1F80
1F80
0F00
1F80
1F80
36C0
36C0
6660
6660
0000
0000
0000
0000
0000
ENDCHAR
STARTCHAR U+04DD
ENCODING 1245
SWIDTH 500 0
DWIDTH 12 0
BBX 12 24 0 -2
BITMAP 
0000
0000
0000
0000
0000
1980
1980
0000
0000
6660
6660
36C0
36C0
1F80
1F80
36C0
36C0
6660
6660
0000
0000
0000
0000
0000
ENDCHAR
STARTCHAR U+04DE
ENCODING 1246
SWIDTH 500 0
DWIDTH 12 0
BBX 12 24 0 -2
BITMAP 
0000
18C0
18C0
0000
0000
0F80
1FC0
3060
3060
0060
00C0
0780
0780
00C0
0060
3060
3060
1FC0
0F80
0000
0000
0000
0000
0000
ENDCHAR
STARTCHAR U+04DF
ENCODING 1247
SWIDTH 500 0
DWIDTH 12 0
BBX 12 24 0 -2
BITMAP 
0000
0000
0000
0000
0000
18C0
18C0
0000
0000
0F80
1FC0
3060
0060
07C0
07C0
0060
3060
1FC0
0F80
0000
0000
0000
0000
0000
ENDCHAR
STARTCHAR U+04E0
ENCODING 1248
SWIDTH 500 0
DWIDTH 12 0
BBX 12 24 0 -2
BITMAP 
0000
0000
0000
0000
0000
3FC0
3FC0
0180
0300
0600
0F80
0FC0
00E0
0060
0060
0060
30E0
3FC0
1F80
0000
0000
0000
0000
0000
ENDCHAR
STARTCHAR U+04E1
ENCODING 1249
SWIDTH 500 0
DWIDTH 12 0
BBX 12 24 0 -2
BITMAP 
0000
0000
0000
0000
0000
0000
0000
0000
0000
1F80
1F80
0180
0300
0600
0F00
0F80
01C0
00C0
00C0
00C0
31C0
3F80
1F00
0000
ENDCHAR
STARTCHAR U+04E2
ENCODING 1250
SWIDTH 500 0
DWIDTH 12 0
BBX 12 24 0 -2
BITMAP 
0000
1FC0
1FC0
0000
0000
3060
30E0
30E0
31E0
31E0
3360
3360
3660
3660
3C60
3C60
3860
3860
3060
0000
0000
0000
0000
0000
ENDCHAR
STARTCHAR U+04E3
ENCODING 1251
SWIDTH 500 0
DWIDTH 12 0
BBX 12 24 0 -2
BITMAP 
0000
0000
0000
0000
0000
1FC0
1FC0
0000
0000
3060
3060
30E0
31E0
3360
3660
3C60
3860
3060
3060
0000
0000
0000
0000
0000
ENDCHAR
STARTCHAR U+04E4
ENCODING 1252
SWIDTH 500 0
DWIDTH 12 0
BBX 12 24 0 -2
BITMAP 
0000
18C0
18C0
0000
0000
3060
30E0
30E0
31E0
31E0
3360
3360
3660
3660
3C60
3C60
3860
3860
3060
0000
0000
0000
0000
0000
ENDCHAR
STARTCHAR U+04E5
ENCODING 1253
SWIDTH 500 0
DWIDTH 12 0
BBX 12 24 0 -2
BITMAP 
0000
0000
0000
0000
0000
18C0
18C0
0000
0000
3060
3060
30E0
31E0
3360
3660
3C60
3860
3060
3060
0000
0000
0000
0000
0000
ENDCHAR
STARTCHAR U+04E6
ENCODING 1254
SWIDTH 500 0
DWIDTH 12 0
BBX 12 24 0 -2
BITMAP 
0000
18C0
18C0
0000
0000
0F80
1FC0
38E0
3060
3060
3060
3060
3060
3060
3060
3060
38E0
1FC0
0F80
0000
0000
0000
0000
0000
ENDCHAR
STARTCHAR U+04E7
ENCODING 1255
SWIDTH 500 0
DWIDTH 12 0
BBX 12 24 0 -2
BITMAP 
0000
0000
0000
0000
0000
18C0
18C0
0000
0000
0F80
1FC0
38E0
3060
3060
3060
3060
38E0
1FC0
0F80
0000
0000
0000
0000
0000
ENDCHAR
STARTCHAR U+04E8
ENCODING 1256
SWIDTH 500 0
DWIDTH 12 0
BBX 12 24 0 -2
BITMAP 
0000
0000
0000
0000
0000
0F80
1FC0
38E0
3060
3060
3060
3FE0
3FE0
3060
3060
3060
38E0
1FC0
0F80
0000
0000
0000
0000
0000
ENDCHAR
STARTCHAR U+04E9
ENCODING 1257
SWIDTH 500 0
DWIDTH 12 0
BBX 12 24 0 -2
BITMAP 
0000
0000
0000
0000
0000
0000
0000
0000
0000
0F80
1FC0
38E0
3060
3FE0
3FE0
3060
38E0
1FC0
0F80
0000
0000
0000
0000
0000
ENDCHAR
ENDFONT
